<svg width="24" height="24" viewBox="0 0 24 24" fill="none" xmlns="http://www.w3.org/2000/svg">
<path d="M14.3001 12.179C14.2768 12.1558 14.2584 12.1282 14.2458 12.0978C14.2332 12.0674 14.2267 12.0349 14.2267 12.002C14.2267 11.9691 14.2332 11.9365 14.2458 11.9062C14.2584 11.8758 14.2768 11.8482 14.3001 11.825L23.5631 2.56298C23.8444 2.28132 24.0022 1.89947 24.002 1.50142C24.0017 1.10338 23.8433 0.721745 23.5616 0.440482C23.28 0.15922 22.8981 0.00136702 22.5001 0.00164832C22.102 0.00192962 21.7204 0.160323 21.4391 0.441982L12.1771 9.69998C12.1539 9.72326 12.1263 9.74174 12.0959 9.75434C12.0656 9.76694 12.033 9.77343 12.0001 9.77343C11.9672 9.77343 11.9347 9.76694 11.9043 9.75434C11.8739 9.74174 11.8463 9.72326 11.8231 9.69998L2.56113 0.441982C2.42186 0.30265 2.25651 0.192112 2.07453 0.116681C1.89254 0.0412497 1.69748 0.00240184 1.50048 0.00235541C1.10262 0.00226164 0.721022 0.16022 0.439627 0.441482C0.158232 0.722745 9.38099e-05 1.10427 4.17235e-08 1.50213C-9.37265e-05 1.89999 0.157865 2.28159 0.439127 2.56298L9.70013 11.825C9.72341 11.8482 9.74188 11.8758 9.75448 11.9062C9.76709 11.9365 9.77357 11.9691 9.77357 12.002C9.77357 12.0349 9.76709 12.0674 9.75448 12.0978C9.74188 12.1282 9.72341 12.1558 9.70013 12.179L0.439127 21.442C0.29986 21.5813 0.189401 21.7467 0.114055 21.9287C0.0387096 22.1108 -4.63876e-05 22.3058 4.17235e-08 22.5028C9.38099e-05 22.9007 0.158232 23.2822 0.439627 23.5635C0.57896 23.7027 0.744358 23.8132 0.92638 23.8886C1.1084 23.9639 1.30348 24.0027 1.50048 24.0026C1.89834 24.0025 2.27987 23.8444 2.56113 23.563L11.8231 14.3C11.8463 14.2767 11.8739 14.2582 11.9043 14.2456C11.9347 14.233 11.9672 14.2265 12.0001 14.2265C12.033 14.2265 12.0656 14.233 12.0959 14.2456C12.1263 14.2582 12.1539 14.2767 12.1771 14.3L21.4391 23.563C21.7204 23.8444 22.1019 24.0025 22.4998 24.0026C22.8976 24.0027 23.2792 23.8447 23.5606 23.5635C23.842 23.2822 24.0002 22.9007 24.0003 22.5028C24.0003 22.105 23.8424 21.7234 23.5611 21.442L14.3001 12.179Z" fill="white"/>
</svg>
