<svg width="133" height="40" viewBox="0 0 133 40" fill="none" xmlns="http://www.w3.org/2000/svg">
<g clip-path="url(#clip0_823_24)">
<path fill-rule="evenodd" clip-rule="evenodd" d="M82.3459 31.2812C74.6325 36.9666 63.4524 40 53.8265 40C40.3295 40 28.1787 35.0079 18.9861 26.7052C18.2639 26.0523 18.911 25.1625 19.7777 25.671C29.6983 31.443 41.9646 34.9155 54.6354 34.9155C63.1808 34.9155 72.5814 33.1475 81.225 29.4786C82.5308 28.9239 83.6228 30.3337 82.3459 31.2812Z" fill="white"/>
<path fill-rule="evenodd" clip-rule="evenodd" d="M85.5529 27.6123C84.5707 26.3528 79.0355 27.0172 76.5511 27.3119C75.7942 27.4043 75.6786 26.7457 76.3604 26.2719C80.7689 23.1692 88.0027 24.0647 88.8463 25.1048C89.6898 26.1505 88.6267 33.4017 84.484 36.8626C83.8485 37.3942 83.2418 37.1111 83.5249 36.4062C84.4551 34.0835 86.5409 28.8777 85.5529 27.6123Z" fill="white"/>
<path fill-rule="evenodd" clip-rule="evenodd" d="M76.7235 4.36812V1.35209C76.7235 0.895642 77.0702 0.589417 77.4862 0.589417H90.989C91.4224 0.589417 91.769 0.90142 91.769 1.35209V3.93478C91.7633 4.36812 91.3992 4.93435 90.7521 5.82991L83.7552 15.8198C86.3552 15.7562 89.0997 16.1434 91.457 17.4723C91.9886 17.7727 92.133 18.2118 92.1735 18.6452V21.8634C92.1735 22.3025 91.6881 22.8168 91.1797 22.551C87.0254 20.3727 81.5076 20.1358 76.9142 22.5741C76.4462 22.8283 75.9551 22.3199 75.9551 21.8807V18.8243C75.9551 18.3332 75.9608 17.4954 76.452 16.75L84.5583 5.12502H77.5035C77.0702 5.12502 76.7235 4.8188 76.7235 4.36812Z" fill="white"/>
<path fill-rule="evenodd" clip-rule="evenodd" d="M27.4678 23.1864H23.3598C22.9669 23.1576 22.6549 22.8629 22.626 22.4873V1.404C22.626 0.982221 22.9784 0.647104 23.4175 0.647104H27.2482C27.6469 0.664426 27.9647 0.970662 27.9936 1.352V4.10803H28.0687C29.0683 1.44444 30.9461 0.202209 33.4768 0.202209C36.0479 0.202209 37.6541 1.44444 38.8097 4.10803C39.8035 1.44444 42.0626 0.202209 44.4835 0.202209C46.2053 0.202209 48.0889 0.912883 49.2387 2.50757C50.5387 4.28136 50.2729 6.85828 50.2729 9.11741L50.2672 22.4238C50.2672 22.8456 49.9147 23.1864 49.4756 23.1864H45.3733C44.9631 23.1576 44.6338 22.8282 44.6338 22.4238V11.2494C44.6338 10.3596 44.7146 8.14096 44.5182 7.29739C44.212 5.88183 43.2933 5.48315 42.1031 5.48315C41.1093 5.48315 40.0693 6.1476 39.6475 7.21073C39.2257 8.27385 39.2661 10.0534 39.2661 11.2494V22.4238C39.2661 22.8456 38.9137 23.1864 38.4746 23.1864H34.3723C33.9563 23.1576 33.6328 22.8282 33.6328 22.4238L33.627 11.2494C33.627 8.89786 34.0141 5.43693 31.0963 5.43693C28.1438 5.43693 28.2594 8.81118 28.2594 11.2494V22.4238C28.2594 22.8456 27.9069 23.1864 27.4678 23.1864" fill="white"/>
<path fill-rule="evenodd" clip-rule="evenodd" d="M103.394 0.202209C109.49 0.202209 112.789 5.43693 112.789 12.093C112.789 18.5237 109.143 23.6256 103.394 23.6256C97.4081 23.6256 94.1494 18.3908 94.1494 11.8677C94.1494 5.30404 97.4486 0.202209 103.394 0.202209ZM103.429 4.5067C100.401 4.5067 100.21 8.63207 100.21 11.2032C100.21 13.7801 100.17 19.2806 103.394 19.2806C106.578 19.2806 106.728 14.8433 106.728 12.1392C106.728 10.3597 106.653 8.23341 106.115 6.54628C105.653 5.07871 104.734 4.5067 103.429 4.5067Z" fill="white"/>
<path fill-rule="evenodd" clip-rule="evenodd" d="M120.693 23.1864H116.603C116.193 23.1576 115.863 22.8282 115.863 22.4238L115.857 1.33467C115.892 0.94755 116.233 0.647104 116.649 0.647104H120.457C120.815 0.664426 121.109 0.907107 121.19 1.23644V4.46047H121.265C122.415 1.57734 124.027 0.202209 126.864 0.202209C128.707 0.202209 130.504 0.866662 131.66 2.68668C132.734 4.37381 132.734 7.21073 132.734 9.2503V22.522C132.688 22.8918 132.347 23.1864 131.943 23.1864H127.823C127.448 23.1576 127.136 22.8802 127.095 22.522V11.0703C127.095 8.76497 127.361 5.39071 124.524 5.39071C123.525 5.39071 122.606 6.06094 122.149 7.07784C121.572 8.3663 121.497 9.64898 121.497 11.0703V22.4238C121.491 22.8456 121.133 23.1864 120.693 23.1864" fill="white"/>
<path fill-rule="evenodd" clip-rule="evenodd" d="M65.96 13.1157C65.96 14.7162 66.0005 16.0508 65.1916 17.4722C64.5387 18.6278 63.4987 19.3384 62.3489 19.3384C60.7715 19.3384 59.8471 18.1366 59.8471 16.3628C59.8471 12.8615 62.9844 12.2259 65.96 12.2259V13.1157ZM70.1027 23.1287C69.8312 23.3714 69.4383 23.3887 69.1321 23.2269C67.7685 22.0945 67.5201 21.5687 66.7747 20.4882C64.5214 22.7878 62.9209 23.4754 60.0031 23.4754C56.5422 23.4754 53.8555 21.3433 53.8555 17.0735C53.8555 13.7397 55.6582 11.469 58.2351 10.3597C60.4653 9.37743 63.5796 9.2041 65.96 8.93254V8.40098C65.96 7.42452 66.0351 6.26895 65.4574 5.42539C64.9605 4.66849 64.0013 4.35649 63.152 4.35649C61.5862 4.35649 60.1938 5.15961 59.8529 6.82363C59.7835 7.19341 59.512 7.55741 59.1364 7.57475L55.1555 7.14718C54.8204 7.07208 54.4448 6.80051 54.543 6.28629C55.4559 1.45602 59.824 0 63.7298 0C65.7289 0 68.3405 0.531562 69.9179 2.04535C71.917 3.9116 71.7263 6.40184 71.7263 9.11165V15.5135C71.7263 17.4375 72.5237 18.2811 73.2748 19.3211C73.5348 19.6909 73.5926 20.1358 73.2574 20.4131C72.4196 21.1122 70.929 22.4122 70.1085 23.1402L70.1027 23.1287" fill="white"/>
<path fill-rule="evenodd" clip-rule="evenodd" d="M12.1046 13.1159C12.1046 14.7164 12.145 16.0511 11.3361 17.4724C10.6832 18.628 9.64899 19.3387 8.49342 19.3387C6.91607 19.3387 5.9974 18.1369 5.9974 16.3631C5.9974 12.8617 9.13476 12.2262 12.1046 12.2262V13.1159ZM16.2473 23.1289C15.9757 23.3716 15.5828 23.3889 15.2766 23.2272C13.913 22.0947 13.6704 21.5689 12.9192 20.4885C10.6659 22.788 9.07121 23.4756 6.14762 23.4756C2.69247 23.4756 0 21.3436 0 17.0738C0 13.7399 1.80846 11.4693 4.3796 10.3599C6.60984 9.37767 9.7241 9.20434 12.1046 8.93279V8.40122C12.1046 7.42477 12.1797 6.2692 11.6077 5.42564C11.105 4.66874 10.1459 4.35673 9.30232 4.35673C7.73653 4.35673 6.33829 5.15985 5.9974 6.82387C5.92806 7.19366 5.6565 7.55766 5.28672 7.57499L1.30001 7.14743C0.964898 7.07232 0.595116 6.80076 0.687562 6.28654C1.60624 1.45626 5.9685 0.000244141 9.87432 0.000244141C11.8735 0.000244141 14.485 0.531806 16.0624 2.0456C18.0615 3.91184 17.8708 6.40209 17.8708 9.1119V15.5137C17.8708 17.4378 18.6682 18.2813 19.4193 19.3213C19.6851 19.6911 19.7429 20.136 19.4078 20.4133C18.57 21.1125 17.0793 22.4125 16.2588 23.1405L16.2473 23.1289" fill="white"/>
</g>
<defs>
<clipPath id="clip0_823_24">
<rect width="132.734" height="40" fill="white"/>
</clipPath>
</defs>
</svg>
