<svg width="62" height="70" viewBox="0 0 62 70" fill="none" xmlns="http://www.w3.org/2000/svg">
<g clip-path="url(#clip0_823_33)">
<path d="M56.9466 3.53468H57.3715C57.8954 3.53468 58.3244 3.36096 58.3244 2.90162C58.3244 2.55613 58.071 2.2363 57.4057 2.2363C57.1975 2.2363 57.0558 2.2363 56.9464 2.25145V3.53468H56.9466ZM56.9466 5.76639H56.2341V1.80921C56.5647 1.76206 56.8975 1.69756 57.4209 1.69756C58.0539 1.69756 58.4488 1.82632 58.7019 2.01738C58.923 2.1911 59.0496 2.45718 59.0496 2.83931C59.0496 3.34581 58.717 3.67615 58.2921 3.7878V3.81786C58.6376 3.88236 58.8585 4.19779 58.9382 4.78565C59.0327 5.40356 59.1119 5.63763 59.1764 5.76639H58.4488C58.3542 5.63763 58.2728 5.27505 58.1934 4.7556C58.1162 4.2772 57.8479 4.08833 57.3564 4.08833H56.9464V5.76639H56.9466ZM57.5948 0.749064C56.0282 0.749064 54.7621 2.06234 54.7621 3.7084C54.7621 5.35445 56.0282 6.66773 57.6097 6.66773C59.1761 6.68483 60.4274 5.35445 60.4274 3.7084C60.4274 2.06234 59.1761 0.749064 57.6097 0.749064H57.5948ZM57.6097 0.148254C59.569 0.148254 61.1357 1.73201 61.1357 3.69349C61.1357 5.68723 59.569 7.26878 57.5948 7.26878C55.6182 7.26878 54.0195 5.68723 54.0195 3.69349C54.0195 1.73201 55.6182 0.148254 57.5948 0.148254H57.6097Z" fill="white"/>
<path d="M6.80942 63.6093L6.21496 60.088C6.04539 59.073 5.82867 57.4868 5.6635 56.3881H5.599C5.42528 57.4951 5.18266 59.1263 5.00454 60.0965L4.36489 63.6093H6.80942ZM4.04555 65.9038L3.27297 69.8116H0.418945L3.97909 53.5536H7.47693L10.7109 69.8116H7.84196L7.08649 65.9038H4.04555Z" fill="white"/>
<path d="M17.2081 62.5493C17.2081 62.3326 17.2081 62.0792 17.1651 61.8474C17.0514 61.0447 16.6244 60.3218 15.9376 60.3218C14.7594 60.3218 14.326 62.0191 14.326 64.0043C14.326 66.2854 14.9439 67.5838 15.8968 67.5838C16.3324 67.5838 16.8345 67.3604 17.1072 66.4032C17.1736 66.2123 17.2081 65.957 17.2081 65.6587V62.5493ZM20.1373 53.1221V66.44C20.1373 67.4956 20.1911 68.7942 20.2341 69.8091H17.704L17.5389 68.4548H17.4788C17.0539 69.2899 16.1291 69.9999 15.0238 69.9999C12.601 69.9999 11.3994 67.3262 11.3994 63.9503C11.3994 59.8368 13.1911 57.8364 15.144 57.8364C16.1655 57.8364 16.8264 58.3366 17.1592 59.06H17.2086V53.1221H20.1373Z" fill="white"/>
<path d="M26.2367 67.7534C27.3548 67.7534 27.6316 65.646 27.6316 63.9013C27.6316 62.2425 27.3548 60.0812 26.1876 60.0812C24.9513 60.0812 24.6915 62.2425 24.6915 63.9013C24.6915 65.9036 25.0177 67.7534 26.2108 67.7534H26.2367ZM26.181 70.0002C23.4813 70.0002 21.7881 67.8328 21.7881 63.9531C21.7881 59.7188 23.962 57.8367 26.2497 57.8367C28.9129 57.8367 30.5825 60.1097 30.5825 63.8844C30.5825 68.7344 27.9666 70.0002 26.2047 70.0002H26.181Z" fill="white"/>
<path d="M35.1501 65.603C35.1501 65.8969 35.2038 66.1718 35.2661 66.356C35.56 67.3414 36.058 67.5838 36.457 67.5838C37.5902 67.5838 38.0473 66.1478 38.0473 63.8516C38.0473 61.7614 37.5643 60.3218 36.444 60.3218C35.8884 60.3218 35.4205 60.925 35.2595 61.573C35.2036 61.7767 35.1501 62.0941 35.1501 62.3131V65.603ZM32.2205 53.1221H35.1498V59.2594H35.197C35.7741 58.3537 36.5425 57.8364 37.6584 57.8364C39.8666 57.8364 40.9761 60.3474 40.9761 63.6307C40.9761 67.7792 39.3215 69.9999 37.1775 69.9999C36.156 69.9999 35.4758 69.5469 34.862 68.3993H34.8002L34.6372 69.8091H32.1221C32.1651 68.8328 32.2205 67.4956 32.2205 66.44V53.1221Z" fill="white"/>
<path d="M47.9957 62.7967C48.0109 61.1425 47.5256 59.9832 46.5964 59.9832C45.5363 59.9832 45.0855 61.5351 45.0535 62.7967H47.9957ZM45.0427 64.8678C45.0772 66.9984 46.1975 67.6918 47.5879 67.6918C48.4697 67.6918 49.2252 67.4961 49.7833 67.2862L50.1781 69.3934C49.4011 69.7279 48.2015 69.9383 47.0511 69.9383C43.9073 69.9383 42.1904 67.79 42.1904 64.1209C42.1904 60.1833 44.182 57.8184 46.7829 57.8184C49.2958 57.8184 50.6885 59.9085 50.6885 63.3203C50.6885 64.1014 50.6562 64.5414 50.6047 64.8844L45.0427 64.8678Z" fill="white"/>
<path d="M31.9512 0H50.6899V44.8621L31.9512 0Z" fill="white"/>
<path d="M18.7495 -0.000427246H0V44.8616L18.7495 -0.000427246Z" fill="white"/>
<path d="M17.1582 35.8361L25.3537 16.5306L37.2916 44.8597H29.4697L25.8986 35.8361H17.1582Z" fill="white"/>
</g>
<defs>
<clipPath id="clip0_823_33">
<rect width="61.135" height="70" fill="white"/>
</clipPath>
</defs>
</svg>
