<svg width="86" height="87" viewBox="0 0 86 87" fill="none" xmlns="http://www.w3.org/2000/svg">
<circle cx="43" cy="43.4628" r="43" fill="#FF68F9"/>
<path d="M54.1454 36.4L51.3534 33.6C51.307 33.5535 51.2518 33.5165 51.1911 33.4913C51.1303 33.4661 51.0652 33.4531 50.9994 33.4531C50.9337 33.4531 50.8685 33.4661 50.8078 33.4913C50.747 33.5165 50.6919 33.5535 50.6454 33.6L38.8534 45.4C38.807 45.4466 38.7518 45.4835 38.6911 45.5087C38.6303 45.5339 38.5652 45.5469 38.4994 45.5469C38.4337 45.5469 38.3685 45.5339 38.3078 45.5087C38.247 45.4835 38.1919 45.4466 38.1454 45.4L35.3534 42.6C35.307 42.5535 35.2518 42.5165 35.1911 42.4913C35.1303 42.4661 35.0652 42.4531 34.9994 42.4531C34.9337 42.4531 34.8685 42.4661 34.8078 42.4913C34.747 42.5165 34.6919 42.5535 34.6454 42.6L31.8534 45.4C31.7597 45.4938 31.707 45.6209 31.707 45.7535C31.707 45.8861 31.7597 46.0133 31.8534 46.107L38.1454 52.4C38.1919 52.4466 38.247 52.4835 38.3078 52.5087C38.3685 52.5339 38.4337 52.5469 38.4994 52.5469C38.5652 52.5469 38.6303 52.5339 38.6911 52.5087C38.7518 52.4835 38.807 52.4466 38.8534 52.4L54.1454 37.1C54.237 37.0066 54.2884 36.8809 54.2884 36.75C54.2884 36.6191 54.237 36.4935 54.1454 36.4Z" fill="white"/>
</svg>
