<svg width="86" height="86" viewBox="0 0 86 86" fill="none" xmlns="http://www.w3.org/2000/svg">
<circle cx="43" cy="43" r="43" fill="#FF68F9"/>
<path d="M43 32.337C36.659 32.337 31.5 36.587 31.5 41.811C31.5196 43.0668 31.8139 44.3031 32.3625 45.433C32.911 46.5629 33.7003 47.5589 34.675 48.351L32.375 52.938C32.3284 53.0309 32.3119 53.136 32.3278 53.2386C32.3437 53.3413 32.3912 53.4365 32.4636 53.511C32.5361 53.5854 32.63 53.6355 32.7322 53.6541C32.8344 53.6727 32.9399 53.6591 33.034 53.615L39.183 50.753C40.4239 51.1094 41.7089 51.2889 43 51.286C49.341 51.286 54.5 47.036 54.5 41.811C54.5 36.586 49.341 32.337 43 32.337Z" fill="white"/>
</svg>
