<svg width="112" height="30" viewBox="0 0 112 30" fill="none" xmlns="http://www.w3.org/2000/svg">
<g clip-path="url(#clip0_823_15)">
<path d="M15.3236 0C13.7964 0 12.1657 0 10.6126 0C10.6126 6.39344 10.5867 10.5349 10.5867 16.9543C8.56773 10.6903 6.54875 6.57463 4.52977 0C2.79551 0 1.73425 0 0 0C0 9.99137 0 20.0086 0 30C1.52718 29.7929 3.15789 29.5859 4.68507 29.3788C4.68507 23.1148 4.68507 19.258 4.71096 12.9681C6.80759 19.1544 8.10181 22.7783 10.1984 28.654C11.8292 28.4728 13.6411 28.2399 15.2977 28.0587C15.2977 18.7144 15.3236 9.37015 15.3236 0Z" fill="white"/>
<path d="M32.9246 0C28.5502 0 24.2534 0 19.8789 0C19.853 9.24072 19.853 18.4556 19.8271 27.6963C24.2016 27.308 28.5502 26.9715 32.9246 26.7127C32.9246 25.3667 32.9246 23.4254 32.9246 22.0794C30.0774 22.2606 27.3595 22.4418 24.5381 22.6229C24.5381 20.138 24.5381 18.0932 24.564 15.6083C26.6347 15.5824 28.809 15.6083 30.9316 15.5565C30.9316 14.2105 30.9316 12.2433 30.9316 10.8973C28.8349 10.9232 26.6347 10.9491 24.564 10.975C24.564 8.49008 24.564 7.14409 24.5899 4.65919C25.8841 4.6333 27.1524 4.6333 28.4208 4.6333C28.6537 4.6333 28.8608 4.6333 29.0938 4.6333C29.3267 4.6333 29.5338 4.6333 29.7668 4.6333C30.828 4.6333 31.8893 4.6333 32.9764 4.6333C32.9505 3.28732 32.9246 1.34599 32.9246 0Z" fill="white"/>
<path d="M50.5006 0.0258789C45.712 0.0258789 40.7681 0.0258789 35.9795 0.0258789C35.9795 1.37187 35.9795 3.28731 35.9795 4.6333C36.1866 4.6333 36.3936 4.6333 36.6007 4.6333C37.2219 4.6333 37.8691 4.6333 38.4903 4.6333C39.1115 4.6333 39.7586 4.6333 40.3798 4.6333C40.5351 4.6333 40.6904 4.6333 40.8716 4.6333C40.8716 12.0621 40.8458 18.8697 40.8458 26.2985C42.3729 26.2468 44.0295 26.195 45.5567 26.1432C45.5567 18.7403 45.5826 11.9845 45.5826 4.58153C47.2133 4.58153 48.8699 4.58153 50.5006 4.55565C50.5006 3.3132 50.5006 1.34598 50.5006 0.0258789Z" fill="white"/>
<path d="M66.6522 0C62.2777 0 57.9291 0 53.5547 0C53.5547 8.69715 53.5547 17.3684 53.5547 26.0656C54.0724 26.0656 54.5642 26.0656 55.0819 26.0656C56.1172 26.0656 57.1785 26.0656 58.2139 26.0656C58.2139 22.39 58.2139 19.025 58.2139 15.3236C58.4727 15.3236 58.7316 15.3236 58.9904 15.3236C59.6116 15.3236 60.207 15.3236 60.8282 15.3236C61.4494 15.3236 62.0707 15.3236 62.6919 15.3236C63.339 15.3236 63.9602 15.3236 64.5814 15.3236C64.5814 14.0035 64.5814 12.0362 64.5814 10.7161C63.9861 10.7161 63.3908 10.7161 62.7954 10.7161C62.1483 10.7161 61.5012 10.7161 60.8541 10.7161C60.207 10.7161 59.5599 10.7161 58.9386 10.7161C58.7057 10.7161 58.4468 10.7161 58.2139 10.7161C58.2139 8.33477 58.2139 7.01467 58.2139 4.6333C58.7316 4.6333 59.2493 4.6333 59.7411 4.6333C60.2587 4.6333 60.7764 4.6333 61.2941 4.6333C61.8118 4.6333 62.3295 4.6333 62.8472 4.6333C64.1155 4.6333 65.3839 4.6333 66.6522 4.6333C66.6522 3.33909 66.6522 1.3201 66.6522 0Z" fill="white"/>
<path d="M69.7065 0.0258789C69.7065 8.80069 69.6807 17.5755 69.6807 26.3244C73.8739 26.4797 78.2743 26.6609 82.4417 26.9456C82.4417 25.5997 82.4417 23.6583 82.4417 22.3123C79.8015 22.157 77.0318 21.9758 74.3916 21.8723C74.3916 14.3658 74.4175 7.55823 74.4175 0.0258789C72.8644 0.0258789 71.2337 0.0258789 69.7065 0.0258789Z" fill="white"/>
<path d="M86.2988 0.0258789C86.3247 9.08541 86.3247 18.1708 86.3506 27.2304C87.8778 27.3598 89.4826 27.4633 91.0098 27.6186C91.0098 18.4297 91.0357 9.21484 91.0098 0.0258789C89.4826 0.0258789 87.8519 0.0258789 86.2988 0.0258789Z" fill="white"/>
<path d="M95.0475 0.0258789C96.937 4.60742 98.6454 9.21484 100.561 14.0811C98.5677 18.7662 96.5488 23.3995 94.5557 27.9034C96.2123 28.0587 97.8948 28.2916 99.5514 28.4987C100.742 25.5997 101.803 23.3736 102.994 20.4228C104.159 23.5807 105.246 26.0397 106.411 29.3011C108.041 29.5082 110.164 29.8188 111.821 30.0518C109.827 24.7455 107.653 19.2062 105.66 14.2105C107.653 9.49956 109.672 4.99568 111.743 0.0776477C110.035 0.0776477 108.3 0.0776477 106.592 0.0776477C105.324 3.13201 104.443 5.07333 103.227 7.97238C102.088 4.9698 101.337 3.00258 100.173 0.0776477C98.4901 0.0258789 96.7558 0.0258789 95.0475 0.0258789Z" fill="white"/>
</g>
<defs>
<clipPath id="clip0_823_15">
<rect width="111.821" height="30" fill="white"/>
</clipPath>
</defs>
</svg>
