<svg width="86" height="87" viewBox="0 0 86 87" fill="none" xmlns="http://www.w3.org/2000/svg">
<circle cx="43" cy="43.3887" r="43" fill="#FF68F9"/>
<path d="M53.5 35.5H32.5C32.2348 35.5 31.9804 35.6054 31.7929 35.7929C31.6054 35.9804 31.5 36.2348 31.5 36.5V49.5C31.5 49.7652 31.6054 50.0196 31.7929 50.2071C31.9804 50.3946 32.2348 50.5 32.5 50.5H53.5C53.7652 50.5 54.0196 50.3946 54.2071 50.2071C54.3946 50.0196 54.5 49.7652 54.5 49.5V36.5C54.5 36.2348 54.3946 35.9804 54.2071 35.7929C54.0196 35.6054 53.7652 35.5 53.5 35.5ZM34.5 39.5C34.3022 39.5 34.1089 39.4414 33.9444 39.3315C33.78 39.2216 33.6518 39.0654 33.5761 38.8827C33.5004 38.7 33.4806 38.4989 33.5192 38.3049C33.5578 38.1109 33.653 37.9327 33.7929 37.7929C33.9327 37.653 34.1109 37.5578 34.3049 37.5192C34.4989 37.4806 34.7 37.5004 34.8827 37.5761C35.0654 37.6518 35.2216 37.78 35.3315 37.9444C35.4414 38.1089 35.5 38.3022 35.5 38.5C35.5 38.7652 35.3946 39.0196 35.2071 39.2071C35.0196 39.3946 34.7652 39.5 34.5 39.5ZM43 46C42.4067 46 41.8266 45.8241 41.3333 45.4944C40.8399 45.1648 40.4554 44.6962 40.2284 44.1481C40.0013 43.5999 39.9419 42.9967 40.0576 42.4147C40.1734 41.8328 40.4591 41.2982 40.8787 40.8787C41.2982 40.4591 41.8328 40.1734 42.4147 40.0576C42.9967 39.9419 43.5999 40.0013 44.1481 40.2284C44.6962 40.4554 45.1648 40.8399 45.4944 41.3333C45.8241 41.8266 46 42.4067 46 43C46 43.7956 45.6839 44.5587 45.1213 45.1213C44.5587 45.6839 43.7956 46 43 46ZM51.5 48.5C51.3022 48.5 51.1089 48.4414 50.9444 48.3315C50.78 48.2216 50.6518 48.0654 50.5761 47.8827C50.5004 47.7 50.4806 47.4989 50.5192 47.3049C50.5578 47.1109 50.653 46.9327 50.7929 46.7929C50.9327 46.653 51.1109 46.5578 51.3049 46.5192C51.4989 46.4806 51.7 46.5004 51.8827 46.5761C52.0654 46.6518 52.2216 46.78 52.3315 46.9444C52.4414 47.1089 52.5 47.3022 52.5 47.5C52.5 47.7652 52.3946 48.0196 52.2071 48.2071C52.0196 48.3946 51.7652 48.5 51.5 48.5Z" fill="white"/>
</svg>
