<svg width="172" height="74" viewBox="0 0 172 74" fill="none" xmlns="http://www.w3.org/2000/svg">
<g opacity="0.1">
<path fill-rule="evenodd" clip-rule="evenodd" d="M171.797 45.142C171.4 40.4243 170.803 35.3486 170.637 30.259C170.578 28.4796 171.121 26.8003 169.184 25.7938C168.786 25.5872 168.204 25.2578 167.909 25.4054C162.913 27.9095 157.337 27.9739 152.096 29.4139C148.586 30.3786 145.317 31.9413 143.096 35.0613C142.653 35.6842 142.683 36.6582 142.496 37.4698C143.286 37.6314 144.123 38.0546 144.855 37.9125C150.181 36.878 155.497 35.7828 160.789 34.5867C162.45 34.2116 162.75 34.8655 162.947 36.3514C163.401 39.7797 164.121 43.17 164.614 46.5936C164.826 48.0569 164.746 49.5637 164.783 51.0511C164.786 51.1753 164.595 51.3183 164.617 51.4262C164.844 52.5415 164.951 54.5252 165.369 54.5975C166.577 54.8072 168.079 54.5501 169.168 53.9318C172.535 52.0212 171.496 48.5253 171.797 45.142Z" fill="white"/>
<path fill-rule="evenodd" clip-rule="evenodd" d="M100.789 63.0014C100.704 63.2014 100.617 63.4023 100.531 63.6023L94.8282 60.4446C94.9479 60.2225 95.0683 60.0012 95.188 59.7798C97.0545 60.8534 98.9226 61.9278 100.789 63.0014ZM56.2412 58.8283C56.1612 58.9788 56.0811 59.1292 56.0011 59.2796C52.84 57.9201 49.6788 56.5599 46.5169 55.1996C46.6141 54.9696 46.712 54.7396 46.8091 54.5104C49.9531 55.9494 53.0972 57.3893 56.2412 58.8283ZM86.5354 40.0357C86.976 37.6602 87.3707 35.2743 87.8719 32.9114C88.1812 31.4518 89.1052 31.0667 90.5715 31.3888C95.1648 32.4002 98.5645 36.5031 98.9717 41.422C99.4161 46.7836 96.3537 50.0902 92.5771 52.9761C92.2818 53.2022 91.1877 52.8107 90.8046 52.3893C87.6528 48.9166 86.7421 44.6538 86.5354 40.0357ZM71.5791 58.4424C58.954 58.9 48.3392 54.0528 38.8239 46.0408C27.9915 36.9197 19.5898 25.7767 12.2309 13.7374C10.0023 10.0913 7.86536 6.38538 5.55122 2.79682C4.93112 1.83351 3.91704 0.852094 2.88664 0.53388C2.17561 0.314124 1.12579 1.21993 0.227493 1.624C0.504135 2.1596 0.756668 2.71175 1.06284 3.22924C1.88887 4.62339 2.85866 5.9443 3.55492 7.39989C5.82242 12.1369 7.91351 16.9605 10.2284 21.6722C11.7888 24.8481 13.4914 27.968 15.361 30.965C16.5421 32.8577 18.2416 34.411 19.544 36.2368C21.6087 39.1299 23.2832 42.3474 25.5818 45.0231C29.1587 49.189 32.8047 53.403 36.9846 56.9065C46.2248 64.6515 56.8885 68.4362 69.0769 67.6706C74.7488 67.3146 80.3717 67.1846 85.7327 64.9603C86.3186 64.7169 87.4143 65.1021 87.987 65.5613C93.7529 70.1927 100.379 72.625 107.622 73.081C113.042 73.4229 118.596 73.8584 123.906 73.0314C128.36 72.3383 132.712 70.2108 136.804 68.1077C140.442 66.2371 143.818 63.7292 147.028 61.1433C151.601 57.4586 154.855 52.6413 157.009 47.1498C157.318 46.3613 156.786 44.9026 156.168 44.159C155.482 43.332 154.496 43.729 153.373 44.2386C149.858 45.8344 148.433 49.1622 146.52 52.0388C142.897 57.4893 137.689 60.7069 131.731 62.4193C121.564 65.3415 111.45 64.1128 101.635 60.5163C96.3328 58.5724 96.3848 58.3518 100.248 54.4931C105.334 49.4151 108.147 43.3533 107.758 36.0493C107.306 27.5718 100.356 21.6124 91.9866 22.2354C89.3593 22.4315 87.5705 24.0612 85.8524 25.7389C81.9499 29.5504 79.7695 34.307 79.0087 39.7033C78.2208 45.2854 78.0755 50.8242 80.6957 56.0723C81.3283 57.3397 80.7198 57.8934 79.3988 57.9556C76.7902 58.0793 74.1854 58.2762 71.5791 58.4424Z" fill="white"/>
</g>
</svg>
