<svg width="102" height="42" viewBox="0 0 102 42" fill="none" xmlns="http://www.w3.org/2000/svg">
<g clip-path="url(#clip0_823_10)">
<path fill-rule="evenodd" clip-rule="evenodd" d="M81.1862 6.77709C81.3634 6.91162 82.3843 6.93983 82.5829 6.95263C83.1023 6.98453 83.9077 5.92654 84.2261 5.52795C84.7143 4.91868 85.2355 4.30962 85.6936 3.67691C86.0988 2.85804 86.5855 2.16002 86.5087 1.1719C86.4513 0.446107 86.0588 0.0540276 85.4502 0C83.8405 0.823215 81.9446 2.60287 81.1947 4.51054C80.9926 5.02673 80.6413 6.3631 81.1862 6.77709ZM12.9254 28.6539C12.9254 28.6539 14.7852 25.7612 15.259 24.6168C15.4852 24.0674 16.1255 22.3214 16.2395 21.9384C16.6027 20.726 16.9266 20.1449 16.3164 18.9622C16.001 18.3533 14.7735 18.8574 14.5046 19.2093C13.8201 20.1056 12.9075 21.0334 12.3192 21.8137C11.5368 22.7823 11.0439 23.4644 10.4945 24.208C9.62837 25.3791 8.79013 26.5737 8.02111 27.8142C7.71995 28.2996 7.33427 28.8811 7.09237 29.3951C6.8972 29.8102 6.1443 31.0795 5.94743 31.4058C5.26697 32.5337 4.60904 33.7121 4.00822 34.8857C3.452 35.9726 2.83035 37.2246 2.61287 38.437C2.40665 39.5879 2.67191 41.1985 3.82598 40.443C4.32889 40.1149 5.01871 39.6614 5.43561 39.2273C5.83467 38.8104 6.92098 37.841 7.28903 37.3936C8.35156 36.1006 8.99402 35.0823 9.66599 33.9378C10.9069 31.8272 11.5946 30.6863 12.9254 28.6539ZM31.5797 24.709C31.7867 25.1606 33.819 24.098 34.4444 23.6953C35.3213 23.1294 36.2295 22.2854 37.0474 21.6514C37.7493 21.1081 38.4452 20.4869 39.1454 19.857C39.964 19.1199 40.7665 18.4718 40.6289 17.123C40.5643 16.4845 38.6506 17.6494 38.3344 17.8538C31.6432 22.1847 31.2647 24.4157 31.5797 24.709ZM89.2777 22.2771C90.2548 21.6473 91.2288 21.0111 92.1212 20.261C93.0185 19.5065 93.8627 18.6846 94.7808 17.9584C95.8907 17.081 96.7468 16.0408 96.8587 14.98C97.0216 13.4409 92.1838 16.9373 91.7695 17.2797C90.2404 18.5453 87.9603 19.7875 87.482 21.7976C87.3017 22.5573 88.494 22.7823 89.2777 22.2771ZM99.3676 17.6403C99.4674 17.6796 99.3841 17.6065 99.3676 17.6403V17.6403ZM99.408 27.38C98.2692 28.6188 97.2247 29.5181 95.9676 30.6104C93.6856 32.5955 91.8993 34.1042 89.4264 35.8949C86.9921 37.6574 84.0141 39.5714 81.2043 38.0436C79.8043 37.2816 78.5929 36.0333 78.149 34.5659C77.5363 32.537 77.5909 30.3316 77.3993 30.1302C76.7042 30.8226 74.2071 33.8501 73.6969 34.3689C72.3424 35.7469 72.0677 35.958 71.4363 36.5782C70.8491 37.1545 69.6965 38.1578 68.9298 38.3986C68.1013 38.6581 67.2871 38.7816 66.4489 38.5841C65.9831 38.5212 65.4556 38.012 65.1442 37.6993C64.5154 37.0668 64.2832 36.1527 64.2066 35.3128C64.0447 33.5461 64.1995 32.9904 63.7584 32.7021C63.6833 32.627 60.0246 36.4282 59.623 36.7607C57.4417 38.5618 56.0003 39.4965 54.1651 40.7268C53.0401 41.4823 49.6701 41.8978 48.5615 41.4942C46.4012 40.7081 46.0607 38.304 46.059 37.0631C46.0586 36.3336 46.1331 35.7541 46.3287 35.0548C46.5385 34.2999 46.7461 33.5969 47.0173 32.8678C47.5818 31.4898 48.4083 30.0684 49.1842 28.8015C50.1137 27.2813 52.3622 23.0079 52.6164 22.487C52.9152 21.8731 53.2334 21.4646 53.4054 20.7954C53.6014 20.0371 53.5638 19.7611 52.7086 19.9292C52.195 20.0297 51.6267 20.0371 51.1436 20.2569C50.5294 20.5381 50.3036 21.1504 49.9689 21.6885C49.5435 22.3726 49.0062 23.1212 48.5005 23.7457C47.9664 24.4046 44.6274 28.1876 44.1406 28.8796C43.7273 29.4661 39.8423 33.8547 38.672 34.7879C38.0765 35.2642 36.9649 36.4072 36.3754 36.8958C35.656 37.491 35.0896 37.7922 34.2987 38.2871C33.7724 38.6171 32.4699 39.4123 31.7818 39.7871C24.905 43.311 23.3861 41.3191 23.0322 41.0221C20.732 39.0869 20.8687 34.2276 20.4206 34.3272C19.8175 34.462 17.302 37.1623 16.7038 37.8534C16.3943 38.2103 14.4402 40.64 13.9123 41.0221C12.7259 41.8787 11.3234 41.4567 10.7156 40.0613C9.94143 38.2862 10.3889 36.3525 10.1597 36.2542C9.87346 36.3347 8.82006 37.4717 8.60174 37.6893C8.2443 38.0436 6.0154 40.6537 5.14401 41.1427C4.183 41.683 3.7629 42.3105 2.33316 41.8269C1.75039 41.6296 1.29762 40.8466 0.890914 40.3859C0.309844 39.7283 -0.365725 37.0432 0.233819 34.8795C0.664949 33.3255 1.09096 31.0136 1.78799 29.69C2.90149 27.5738 3.61084 26.3216 5.06032 24.4096C5.69109 23.5788 8.98954 20.2592 9.77237 19.666C10.8188 18.8717 11.8456 18.027 12.9496 17.3172C13.7744 16.7861 14.3069 16.4647 15.2919 16.2747C15.849 16.1677 17.1897 16.0709 19.147 17.3999C19.4193 17.5837 19.4596 17.1979 19.7451 16.9265C20.654 16.0566 21.6074 15.7782 23.0335 16.0069C23.6658 16.1078 23.5182 17.4644 23.3043 18.053C22.8037 20.9388 21.0862 23.1991 19.3868 25.4659C17.3203 28.2243 15.3957 31.1791 13.9838 34.3511C13.4841 35.4735 12.6527 37.7716 13.0373 39.0079C13.1849 39.4809 14.4984 38.0528 14.5583 37.9736C15.02 37.3667 15.7438 36.6582 16.1877 36.0431C17.0098 34.904 18.2983 33.3511 19.0973 32.4011C19.8954 31.4523 21.394 30.1196 22.2543 28.9885C24.3985 26.168 25.7263 24.4413 27.9371 21.9504C28.4999 21.3159 29.8246 19.9375 30.7444 19.3095C31.3586 18.8908 32.2667 18.2116 33.0281 17.6468C34.3272 16.6815 35.0779 16.1705 36.4514 15.3267C42.3101 11.7316 43.8118 13.3719 44.1021 13.8938C44.3496 14.3414 44.4838 14.947 44.546 15.4126C44.6936 16.5214 44.3383 18.1843 43.9178 19.203C43.3662 20.5361 41.9754 22.017 40.9269 22.9539C39.9739 23.8055 39.0084 24.5554 38.0009 25.3836C36.5829 26.551 35.0435 27.3783 33.6554 28.2792C32.3691 29.1128 31.3686 30.0868 30.2102 31.106C29.0963 32.0878 28.1975 33.4003 27.293 34.5681C26.672 35.3703 26.0005 37.6728 27.6258 37.5819C29.1282 37.4992 31.2575 37.1106 34.2333 35.1262C37.3183 33.0686 39.1357 31.1435 40.432 29.9907C41.5334 29.01 45.0649 25.3339 46.2092 23.9162C47.1508 22.751 48.3722 21.4973 49.0106 20.0353C49.4539 19.0201 47.0994 17.7627 47.1706 16.0488C47.1939 15.4885 47.4087 15.1127 47.6355 14.6115C48.9856 11.625 52.2424 13.0964 52.4308 14.1567C52.4902 14.4894 52.5251 14.7801 52.544 15.0908C52.5635 15.4282 52.4087 16.8204 52.8598 16.8848C53.5392 16.9831 54.345 16.6073 55.025 16.5517C55.8688 16.4817 56.7164 16.5274 57.5602 16.4684C58.5681 16.3966 60.046 16.7051 60.574 17.7154C60.5462 17.8378 61.4418 19.1199 60.6554 20.5055C59.9845 21.6861 58.3668 24.0861 57.9739 24.5574C57.1155 25.5863 56.9111 25.7937 56.1273 26.8714C54.2528 29.4515 53.0127 30.8226 51.4265 33.8957C50.7747 35.1546 49.9357 36.3931 49.9684 37.8813C49.9805 38.47 50.1953 39.0578 50.742 39.3325C51.2045 39.5642 52.0617 39.5514 52.8547 39.1619C53.4162 38.8855 54.1481 38.4915 54.8366 38.0339C55.4213 37.6464 56.7759 36.4658 57.2811 35.9763C58.2358 35.0522 58.5286 34.9643 59.5147 34.0502C60.6439 33.0017 61.5436 31.9986 62.5774 30.8595C63.5187 29.823 64.4043 28.8577 65.1935 27.6068C66.0999 26.1734 66.7423 25.0555 67.5778 23.8259C67.9667 23.2529 68.2482 22.5646 68.5478 21.9348C68.8932 21.2113 72.0459 16.6824 72.5142 16.131C73.3579 15.1407 74.1618 14.0315 75.1827 13.2244C75.6098 12.8865 76.0452 12.8464 76.4984 12.6082C77.0495 12.3194 77.5626 12.2315 78.1433 12.3029C79.0733 12.1703 79.9538 12.9278 79.3646 13.9272C78.0462 16.1631 76.8244 18.526 75.4972 20.6706C74.58 22.1541 73.6549 23.6378 72.7043 25.0998C71.8422 26.4258 71.3259 27.9377 70.4966 29.2695C70.0085 30.051 69.5982 30.8565 69.3204 31.745C69.1996 32.1316 68.7867 33.2569 69.1085 33.6362C69.8291 34.4863 71.5241 33.4359 72.1179 32.9342C73.246 31.9798 74.7474 30.6408 75.706 29.499C76.4814 28.5775 78.8233 25.5917 79.6174 24.4586C82.0927 20.9252 88.2668 15.8442 88.7879 15.4328C90.6904 13.9283 93.4422 12.1777 94.9664 11.3924C95.9529 10.8851 97.7131 9.7191 98.9358 9.97101C100.318 10.2576 101.009 11.3293 101.133 12.45C101.32 14.1465 100.765 15.1457 100.549 15.7422C99.5322 18.5755 96.8025 20.9796 94.5154 22.7977C92.0004 24.7973 89.4034 26.0432 86.7228 27.742C85.9998 28.2 85.1172 28.9659 84.524 29.5958C84.0132 30.1378 82.3964 31.7467 82.5861 34.9406C82.6935 36.7396 87.7468 34.1317 88.5224 33.3163C88.7758 33.0508 92.5887 29.9816 94.6948 27.6552C95.8754 26.3522 96.9125 24.9074 98.2169 23.7775C98.7073 23.3534 99.9429 22.7771 100.719 23.4384C102.02 24.5491 100.252 26.4618 99.408 27.38ZM28.4821 41.5277C28.4462 41.5739 28.4562 41.5769 28.5035 41.6071C28.576 41.5583 28.525 41.5257 28.4821 41.5277ZM99.3676 17.6403C99.4674 17.6796 99.3841 17.6065 99.3676 17.6403V17.6403ZM23.1907 16.2458C23.1692 16.2783 23.1011 16.1837 23.1593 16.294C23.2058 16.3061 23.1996 16.2875 23.1907 16.2458ZM23.2489 16.5014C23.2578 16.4465 23.2397 16.4246 23.1951 16.4374C23.1427 16.4895 23.2077 16.5626 23.2489 16.5014Z" fill="white"/>
</g>
<defs>
<clipPath id="clip0_823_10">
<rect width="101.182" height="42" fill="white"/>
</clipPath>
</defs>
</svg>
