<svg width="86" height="87" viewBox="0 0 86 87" fill="none" xmlns="http://www.w3.org/2000/svg">
<circle cx="43" cy="43.9258" r="43" fill="#FF68F9"/>
<g clip-path="url(#clip0_813_433)">
<path d="M52.4897 32C51.8267 32 51.1908 32.2634 50.7219 32.7322C50.2531 33.2011 49.9897 33.837 49.9897 34.5C49.9891 34.7721 50.0334 35.0423 50.1207 35.3C50.1355 35.3444 50.1376 35.3921 50.1269 35.4377C50.1161 35.4832 50.0928 35.5249 50.0597 35.558L47.7897 37.807C47.6965 37.8996 47.6224 38.0096 47.5717 38.1308C47.521 38.2521 47.4946 38.3821 47.4941 38.5135C47.4937 38.6449 47.5191 38.7751 47.569 38.8966C47.6188 39.0182 47.6921 39.1288 47.7847 39.222C47.8773 39.3152 47.9873 39.3893 48.1085 39.44C48.2298 39.4908 48.3598 39.5171 48.4912 39.5176C48.6226 39.518 48.7528 39.4926 48.8743 39.4427C48.9959 39.3929 49.1065 39.3196 49.1997 39.227L51.4997 36.948C51.5321 36.916 51.5725 36.8935 51.6168 36.8827C51.661 36.872 51.7073 36.8735 51.7507 36.887C52.0947 36.9941 52.4577 37.0256 52.815 36.9793C53.1723 36.933 53.5153 36.8101 53.8206 36.6189C54.126 36.4277 54.3864 36.1727 54.584 35.8715C54.7816 35.5703 54.9118 35.23 54.9657 34.8738C55.0196 34.5176 54.9958 34.154 54.8961 33.8078C54.7963 33.4616 54.6229 33.1411 54.3878 32.8682C54.1526 32.5953 53.8613 32.3764 53.5337 32.2265C53.2061 32.0767 52.85 31.9994 52.4897 32Z" fill="white"/>
<path d="M52.5006 51C52.2286 50.9999 51.9584 51.0442 51.7006 51.1311C51.6562 51.1463 51.6084 51.1487 51.5628 51.1379C51.5171 51.1271 51.4754 51.1036 51.4426 51.07L49.6586 49.2701C49.5666 49.1743 49.4565 49.0979 49.3346 49.0451C49.2128 48.9924 49.0817 48.9645 48.9489 48.963C48.8161 48.9614 48.6844 48.9864 48.5614 49.0363C48.4384 49.0862 48.3265 49.1602 48.2324 49.2538C48.1383 49.3474 48.0637 49.4588 48.0131 49.5816C47.9624 49.7043 47.9368 49.8359 47.9375 49.9686C47.9383 50.1014 47.9655 50.2327 48.0175 50.3548C48.0695 50.477 48.1454 50.5875 48.2406 50.6801L50.0496 52.501C50.0817 52.5333 50.1045 52.5737 50.1154 52.618C50.1263 52.6622 50.125 52.7085 50.1116 52.7521C50.0365 52.9942 49.999 53.2465 50.0006 53.5C50.0006 53.9945 50.1472 54.4779 50.4219 54.889C50.6966 55.3001 51.0871 55.6205 51.5439 55.8097C52.0007 55.999 52.5034 56.0485 52.9883 55.952C53.4733 55.8555 53.9187 55.6174 54.2684 55.2678C54.618 54.9182 54.8561 54.4727 54.9526 53.9878C55.049 53.5028 54.9995 53.0002 54.8103 52.5433C54.6211 52.0865 54.3006 51.6961 53.8895 51.4214C53.4784 51.1467 52.995 51 52.5006 51Z" fill="white"/>
<path d="M38.2117 37.807L35.9417 35.555C35.9091 35.5222 35.8862 35.481 35.8754 35.436C35.8647 35.3911 35.8665 35.344 35.8807 35.3C35.968 35.0423 36.0123 34.772 36.0117 34.5C36.0117 33.9733 35.8453 33.4601 35.5363 33.0336C35.2274 32.6071 34.7916 32.2891 34.2912 32.1249C33.7908 31.9607 33.2513 31.9587 32.7497 32.1192C32.2481 32.2797 31.81 32.5946 31.4979 33.0188C31.1858 33.443 31.0157 33.955 31.0118 34.4816C31.0079 35.0083 31.1704 35.5227 31.4761 35.9515C31.7818 36.3804 32.2152 36.7017 32.7143 36.8697C33.2135 37.0376 33.7529 37.0437 34.2557 36.887C34.2991 36.8733 34.3455 36.8718 34.3897 36.8825C34.4339 36.8933 34.4744 36.9159 34.5067 36.948L36.8007 39.227C36.8934 39.322 37.0041 39.3976 37.1263 39.4495C37.2485 39.5013 37.3798 39.5283 37.5125 39.5288C37.6452 39.5294 37.7768 39.5035 37.8994 39.4527C38.022 39.4019 38.1333 39.3272 38.2268 39.2329C38.3202 39.1387 38.394 39.0268 38.4438 38.9037C38.4935 38.7806 38.5183 38.6489 38.5166 38.5162C38.5149 38.3834 38.4868 38.2524 38.434 38.1306C38.3811 38.0088 38.3045 37.8988 38.2087 37.807H38.2117Z" fill="white"/>
<path d="M33.4996 56C33.8279 56 34.153 55.9353 34.4564 55.8097C34.7597 55.684 35.0353 55.4999 35.2674 55.2677C35.4996 55.0356 35.6837 54.76 35.8093 54.4567C35.935 54.1533 35.9996 53.8283 35.9996 53.5C35.9999 53.2479 35.9614 52.9973 35.8856 52.757C35.8721 52.7134 35.8707 52.6671 35.8817 52.6228C35.8926 52.5786 35.9154 52.5382 35.9476 52.506L37.7576 50.685C37.9448 50.4969 38.0495 50.2422 38.0488 49.977C38.0482 49.7117 37.9422 49.4576 37.7541 49.2705C37.5661 49.0833 37.3114 48.9786 37.0462 48.9793C36.7809 48.9799 36.5268 49.0859 36.3396 49.274L34.5536 51.074C34.521 51.1075 34.4795 51.1311 34.434 51.1419C34.3885 51.1527 34.3408 51.1503 34.2966 51.135C33.9527 51.0171 33.5871 50.9757 33.2255 51.0136C32.8638 51.0516 32.5148 51.168 32.2028 51.3546C31.8907 51.5413 31.6232 51.7938 31.4188 52.0946C31.2144 52.3953 31.078 52.737 31.0192 53.0958C30.9604 53.4547 30.9806 53.822 31.0784 54.1722C31.1762 54.5225 31.3492 54.8471 31.5853 55.1236C31.8215 55.4001 32.1151 55.6218 32.4457 55.7731C32.7764 55.9245 33.136 56.0019 33.4996 56Z" fill="white"/>
<path d="M52.4902 41C52.0295 41.0002 51.5779 41.1277 51.185 41.3684C50.7922 41.6091 50.4736 41.9536 50.2642 42.364C50.2432 42.4048 50.2114 42.4391 50.1722 42.463C50.1331 42.487 50.0881 42.4998 50.0422 42.5H48.9902C48.725 42.5 48.4707 42.6054 48.2831 42.7929C48.0956 42.9804 47.9902 43.2348 47.9902 43.5C47.9902 43.7652 48.0956 44.0196 48.2831 44.2071C48.4707 44.3946 48.725 44.5 48.9902 44.5H50.0422C50.0883 44.5002 50.1334 44.5131 50.1725 44.5372C50.2117 44.5614 50.2434 44.5959 50.2642 44.637C50.4663 45.0327 50.7702 45.3674 51.1446 45.6066C51.519 45.8459 51.9504 45.981 52.3944 45.9981C52.8384 46.0153 53.2789 45.9137 53.6706 45.704C54.0623 45.4943 54.3911 45.184 54.623 44.8051C54.855 44.4261 54.9817 43.9922 54.9903 43.5479C54.9988 43.1037 54.8887 42.6652 54.6715 42.2776C54.4543 41.8901 54.1376 41.5674 53.7543 41.3428C53.3709 41.1182 52.9346 40.9999 52.4902 41Z" fill="white"/>
<path d="M35.9585 42.5C35.9126 42.4998 35.8676 42.487 35.8285 42.463C35.7894 42.439 35.7575 42.4048 35.7365 42.364C35.4813 41.864 35.0652 41.4644 34.5552 41.2296C34.0453 40.9948 33.4712 40.9385 32.9253 41.0698C32.3795 41.201 31.8937 41.5122 31.5462 41.9531C31.1987 42.394 31.0098 42.9391 31.0098 43.5005C31.0098 44.0619 31.1987 44.607 31.5462 45.0479C31.8937 45.4888 32.3795 45.8 32.9253 45.9312C33.4712 46.0625 34.0453 46.0062 34.5552 45.7714C35.0652 45.5366 35.4813 45.137 35.7365 44.637C35.7573 44.5959 35.789 44.5614 35.8282 44.5372C35.8674 44.5131 35.9125 44.5002 35.9585 44.5H37.0105C37.2757 44.5 37.5301 44.3946 37.7176 44.2071C37.9051 44.0196 38.0105 43.7652 38.0105 43.5C38.0105 43.2348 37.9051 42.9804 37.7176 42.7929C37.5301 42.6053 37.2757 42.5 37.0105 42.5H35.9585Z" fill="white"/>
<path d="M40.1426 39.1199C40.1426 39.685 40.3101 40.2374 40.6241 40.7072C40.938 41.177 41.3842 41.5432 41.9063 41.7595C42.4283 41.9757 43.0027 42.0323 43.557 41.922C44.1112 41.8118 44.6202 41.5397 45.0198 41.1401C45.4193 40.7406 45.6914 40.2315 45.8017 39.6773C45.9119 39.1231 45.8553 38.5487 45.6391 38.0266C45.4229 37.5046 45.0567 37.0584 44.5868 36.7444C44.117 36.4305 43.5646 36.2629 42.9996 36.2629C42.2419 36.2629 41.5152 36.5639 40.9794 37.0997C40.4436 37.6355 40.1426 38.3622 40.1426 39.1199Z" fill="white"/>
<path d="M39.1665 48.263H46.8345C47.0128 48.2637 47.1889 48.2226 47.3485 48.1431C47.5082 48.0636 47.647 47.9478 47.7539 47.8051C47.8608 47.6623 47.9328 47.4965 47.9642 47.3209C47.9955 47.1454 47.9853 46.9649 47.9345 46.794C47.6176 45.7326 46.9667 44.8018 46.0785 44.14C45.1902 43.4782 44.1121 43.1207 43.0045 43.1207C41.8968 43.1207 40.8187 43.4782 39.9305 44.14C39.0423 44.8018 38.3913 45.7326 38.0745 46.794C38.0238 46.9649 38.0138 47.1453 38.0453 47.3208C38.0767 47.4963 38.1488 47.662 38.2556 47.8047C38.3625 47.9474 38.5012 48.0631 38.6607 48.1427C38.8203 48.2223 38.9962 48.2634 39.1745 48.263H39.1665Z" fill="white"/>
</g>
<defs>
<clipPath id="clip0_813_433">
<rect width="24" height="24" fill="white" transform="translate(31 32)"/>
</clipPath>
</defs>
</svg>
