<svg width="119" height="50" viewBox="0 0 119 50" fill="none" xmlns="http://www.w3.org/2000/svg">
<g clip-path="url(#clip0_823_8)">
<path d="M102.273 21.8394C100.286 22.2979 95.0384 22.5526 95.0384 22.5526L94.3931 24.6245C94.3931 24.6245 96.9914 24.4037 98.8934 24.5905C98.8934 24.5905 99.5048 24.5396 99.5727 25.2698C99.6067 26.017 99.5217 26.7982 99.5217 26.7982C99.5217 26.7982 99.4708 27.2567 98.8424 27.3756C98.1122 27.4945 93.1873 27.7153 93.1873 27.7153L92.3891 30.3985C92.3891 30.3985 92.1004 31.0098 92.7627 30.84C93.3741 30.6702 98.5368 29.6852 99.2161 29.8211C99.9293 29.9909 100.744 30.9759 100.507 31.859C100.235 32.9289 95.0724 36.2234 91.9476 36.0027C91.9476 36.0027 90.3003 36.1046 88.9247 33.8799C87.6001 31.7571 89.3833 27.7662 89.3833 27.7662C89.3833 27.7662 88.5851 25.8981 89.1795 25.2189C89.1795 25.2189 89.5191 24.9302 90.5381 24.8452L91.8117 22.2299C91.8117 22.2299 90.3682 22.3149 89.5191 21.262C88.7379 20.243 88.67 19.8015 89.2814 19.5297C89.9267 19.1901 95.9045 18.1202 100.014 18.2561C100.014 18.2561 101.458 18.0862 102.731 20.5827C102.731 20.5827 103.309 21.6016 102.29 21.8394H102.273ZM86.785 31.8929C86.2755 33.1326 84.8659 34.4403 83.1677 33.6421C81.4355 32.827 78.7013 27.2567 78.7013 27.2567C78.7013 27.2567 77.6824 25.1849 77.4786 25.2528C77.4786 25.2528 77.2578 24.8452 77.1389 27.1209C76.9691 29.3795 77.1729 33.778 76.2389 34.4743C75.3898 35.1535 74.3708 34.8649 73.7934 34.0667C73.3179 33.2685 73.1141 31.3495 73.3858 28.004C73.6915 24.6584 74.4557 21.0921 75.4237 19.9883C76.4427 18.8674 77.2578 19.6826 77.5635 19.9883C77.5635 19.9883 78.8711 21.177 81.0789 24.6924L81.4525 25.3377C81.4525 25.3377 83.4564 28.6833 83.6602 28.6663C83.6602 28.6663 83.83 28.8361 83.9659 28.7002C84.1697 28.6493 84.1017 27.5624 84.1017 27.5624C84.1017 27.5624 83.7281 23.9452 81.8601 17.8315C81.8601 17.8315 81.5883 17.0503 81.7751 16.3031C81.945 15.6238 82.6752 15.9634 82.6752 15.9634C82.6752 15.9634 85.4943 17.322 86.8699 21.9073C88.2284 26.4925 87.3114 30.6532 86.8019 31.8929H86.785ZM72.9613 20.1241C72.6896 20.5996 72.5707 21.262 71.3989 21.4488C71.3989 21.4488 60.0207 22.2469 59.4603 23.0451C59.4603 23.0451 59.0867 23.5206 59.698 23.6395C60.3434 23.7753 62.9247 24.115 64.1474 24.1829C65.472 24.1829 69.9214 24.2169 71.5517 26.2208C71.5517 26.2208 72.4858 27.1718 72.4518 29.3286C72.4178 31.5363 72.0272 32.3175 71.1611 33.1157C70.2611 33.8629 62.5511 37.3273 57.5752 32.0288C57.5752 32.0288 55.2996 29.4814 58.3734 27.5454C58.3734 27.5454 60.5811 26.1868 66.2362 27.7662C66.2362 27.7662 67.9345 28.3776 67.8666 29.0059C67.7647 29.6852 66.457 30.3645 64.555 30.3306C62.7209 30.2796 61.3623 29.3965 61.634 29.5494C61.8888 29.6343 59.6471 28.4625 58.9508 29.2607C58.2715 30.0079 58.4413 30.4494 59.1206 30.908C60.8189 31.8929 67.4929 31.5363 69.4799 29.3116C69.4799 29.3116 70.2781 28.4115 69.0723 27.6813C67.8835 27.002 64.4191 26.5774 63.0775 26.5265C61.8038 26.4586 57.0318 26.5265 56.3185 25.2868C56.3185 25.2868 55.6392 24.4037 56.3865 21.9922C57.1676 19.4448 62.7209 18.4599 65.1324 18.2561C65.1324 18.2561 71.7555 17.9844 72.9952 19.3429C72.9952 19.3429 73.1651 19.6486 72.9613 20.1071V20.1241ZM54.1787 35.0517C53.3806 35.646 51.6823 35.3913 51.1898 34.712C50.7143 34.1176 50.5445 31.7741 50.6294 28.0889C50.7483 24.3188 50.7993 19.6996 51.6484 18.9523C52.4975 18.2221 53.007 18.8674 53.3466 19.3599C53.6863 19.8694 54.1278 20.4298 54.1957 21.6016C54.2976 22.7904 54.5863 28.904 54.5863 28.904C54.5863 28.904 54.9599 34.4743 54.1957 35.0517H54.1787ZM55.877 15.1823C53.5334 15.9804 51.9371 15.7257 50.5785 15.1313C49.9841 16.2012 49.6275 16.5239 49.1859 16.5918C48.5066 16.6597 47.9122 15.5728 47.8273 15.2332C47.6915 14.9785 47.3688 14.5199 47.7594 13.484C46.4348 12.2952 46.3329 10.6989 46.5706 9.62901C46.8763 8.37232 49.118 3.65121 55.911 3.09079C55.911 3.09079 59.2395 2.85304 59.8169 4.61921H59.9188C59.9188 4.61921 63.1455 4.61921 63.0775 7.50621C63.0775 10.3932 59.5112 13.9935 55.877 15.2332V15.1823ZM58.8998 6.96278C56.7601 7.30242 53.4655 10.1555 51.8861 12.516C54.3146 12.9576 58.5602 12.7877 60.4622 8.94972C60.4622 8.94972 61.3623 6.53822 58.8998 6.96278ZM49.5086 8.83084C48.8293 9.9347 48.7953 10.597 49.118 11.0386C49.9162 9.84978 51.3257 7.98172 53.4485 6.52123C51.8182 6.69106 50.4426 7.37035 49.5086 8.83084ZM107.368 34.9328C105.805 38.7708 104.481 42.6598 103.716 48.4847C103.716 48.4847 103.547 49.6226 102.613 49.2489C101.679 48.9093 100.15 47.3809 99.8104 45.2241C99.4708 42.405 100.727 37.65 103.292 32.1816C102.545 30.9929 102.018 29.2267 102.443 26.7473C102.443 26.7473 103.122 22.162 107.707 18.0183C107.707 18.0183 108.251 17.5598 108.556 17.7126C108.93 17.8825 108.777 19.3429 108.471 20.0902C108.2 20.8034 106.162 24.3358 106.162 24.3358C106.162 24.3358 104.888 26.7473 105.245 28.6323C107.656 24.9302 113.142 17.4239 116.538 19.8015C118.695 21.3299 118.695 26.2548 117.082 29.1078C115.808 31.3665 112.208 36.0366 107.402 34.9498L107.368 34.9328ZM114.466 23.4017C113.21 24.7603 110.968 27.3417 109.202 30.84C111.07 30.6362 112.887 29.6003 113.447 29.0739C114.347 28.2757 116.419 26.1189 116.097 23.2659C116.097 23.2659 115.893 21.7714 114.466 23.4017ZM38.3851 36.9367C32.3734 38.7708 26.7012 37.9217 23.6104 37.1065C23.5255 38.3632 23.3897 38.8897 23.1859 39.0935C22.9481 39.3652 20.9782 40.486 19.8913 38.8897C19.4158 38.1255 19.178 36.7499 19.0422 35.4932C12.0794 32.3345 8.85273 27.6813 8.75084 27.5115C8.58101 27.3417 7.00165 25.6944 8.58101 23.6565C10.0585 21.8224 14.9494 19.9713 19.3309 19.241C19.5007 15.5049 19.9083 12.6179 20.4347 11.3442C21.0631 9.81582 21.8612 11.1744 22.5745 12.1934C23.1519 12.9576 23.5085 16.2352 23.5425 18.8505C26.3955 18.7146 28.1278 18.9184 31.3035 19.5297C35.4811 20.243 38.2662 22.3828 38.0455 24.7943C37.8417 27.1718 35.6679 28.1568 34.8188 28.2247C33.9697 28.2927 32.6111 27.6643 32.6111 27.6643C31.6601 27.2228 32.5262 26.8152 33.63 26.3397C34.8528 25.7453 34.5811 25.1509 34.5811 25.1509C34.1395 23.7923 28.7221 22.8923 23.3387 22.8923C23.3387 25.8642 23.4576 30.7891 23.5425 33.6591C27.3126 34.3724 30.1317 34.2195 30.1317 34.2195C30.1317 34.2195 43.8874 33.8289 44.278 25.049C44.7026 16.2521 30.5223 7.82888 20.0781 5.17963C9.6509 2.44546 3.74103 4.38145 3.23156 4.63619C2.67114 4.90791 3.18061 5.0098 3.18061 5.0098C3.18061 5.0098 3.74103 5.09471 4.75997 5.43436C5.77892 5.77401 4.96376 6.28348 4.96376 6.28348C3.18061 6.89485 1.19367 6.53822 0.803076 5.72306C0.412481 4.92489 1.05781 4.19465 1.82202 3.12476C2.53528 2.0209 3.35044 2.05487 3.35044 2.05487C16.2571 -2.44547 32.0167 5.62117 32.0167 5.62117C46.7574 13.0595 49.2708 21.8054 48.9991 25.2019C48.7614 28.5474 47.4707 34.2025 38.3851 36.9537V36.9367ZM10.0245 24.7943C8.56403 25.4736 9.58298 26.5605 9.58298 26.5605C12.3341 29.4984 15.6966 31.3495 18.9233 32.5043C19.2969 27.4096 19.2629 25.5925 19.2629 23.0281C14.2701 23.3678 11.3831 24.1829 10.0245 24.7943Z" fill="white"/>
</g>
<defs>
<clipPath id="clip0_823_8">
<rect width="118.886" height="50" fill="white"/>
</clipPath>
</defs>
</svg>
