<svg width="312" height="147" viewBox="0 0 312 147" fill="none" xmlns="http://www.w3.org/2000/svg">
<path d="M80.1876 70.9375C80.6876 70.9375 81.0209 71.1458 81.1876 71.5625C81.3959 71.9375 81.4168 72.3125 81.2501 72.6875C81.0834 73.0625 80.7293 73.25 80.1876 73.25C76.1876 73.1667 72.2918 73.5208 68.5001 74.3125C67.8334 74.4792 67.3751 74.8542 67.1251 75.4375C66.2501 77.6875 65.3959 79.8542 64.5626 81.9375C63.7293 84.2292 62.0209 87.9167 59.4376 93C56.8959 98.0833 53.8126 103.563 50.1876 109.438C46.5626 115.354 42.7293 120.708 38.6876 125.5C34.6459 130.333 30.7293 133.646 26.9376 135.438C23.1876 137.229 19.8751 136.542 17.0001 133.375C16.9168 133.292 16.8543 133.188 16.8126 133.063C15.2709 129.646 14.9793 126.063 15.9376 122.313C16.9376 118.563 18.2501 115.104 19.8751 111.938C24.3334 103.354 30.1876 95.75 37.4376 89.125C44.7293 82.4583 52.9584 77.5 62.1251 74.25C62.6668 74.0417 63.0418 73.6667 63.2501 73.125C66.0834 65.25 68.2084 57.5209 69.6251 49.9375C71.0834 42.3542 71.3543 35.4792 70.4376 29.3125C69.3126 24.2709 67.0418 21.375 63.6251 20.625C60.2501 19.875 56.3959 20.4167 52.0626 22.25C47.7293 24.0417 43.5626 26.3125 39.5626 29.0625C35.6043 31.8125 32.4793 34.1667 30.1876 36.125C26.6459 39.125 22.9168 42.7292 19.0001 46.9375C15.1251 51.1042 11.7501 55.5625 8.87509 60.3125C6.00009 65.0625 4.33343 69.8125 3.87509 74.5625C3.83343 77.1042 4.43759 79.25 5.68759 81C6.93759 82.7083 8.66676 84.1042 10.8751 85.1875C11.7084 85.7292 12.1251 86.4167 12.1251 87.25C12.1251 88.0833 11.8126 88.7917 11.1876 89.375C10.5626 89.9167 9.77093 90.0417 8.81259 89.75C4.43759 87.8333 1.87509 84.8958 1.12509 80.9375C0.333426 76.9792 0.750093 72.9375 2.37509 68.8125C6.29176 58.9375 12.2501 49.8125 20.2501 41.4375C28.2918 33.0625 36.8543 26.2292 45.9376 20.9375C49.8543 18.6459 53.7918 17.125 57.7501 16.375C61.7084 15.5834 65.2501 16.0625 68.3751 17.8125C71.5001 19.5209 73.7293 23 75.0626 28.25C76.1876 34.9584 76.1251 41.8334 74.8751 48.875C73.6251 55.875 71.7709 62.7083 69.3126 69.375C69.1043 70.0833 69.2084 70.6875 69.6251 71.1875C70.0834 71.6875 70.6668 71.8958 71.3751 71.8125C74.2501 71.3125 77.1876 71.0208 80.1876 70.9375ZM46.8751 109.313C51.5001 101.146 56.1459 91.2917 60.8126 79.75C61.0626 78.9583 60.9168 78.2917 60.3751 77.75C59.8334 77.2083 59.1668 77.0833 58.3751 77.375C51.9168 80 45.9793 83.5625 40.5626 88.0625C35.1459 92.5625 30.4376 97.6458 26.4376 103.313C23.8959 106.896 21.6668 110.729 19.7501 114.813C17.8751 118.938 16.8751 123.229 16.7501 127.688C16.8334 130.688 17.8334 132.792 19.7501 134C21.7084 135.208 24.0418 135.083 26.7501 133.625C31.0418 130.833 34.7084 127.375 37.7501 123.25C40.8334 119.125 43.6459 114.854 46.1876 110.438C46.3959 110.063 46.6251 109.688 46.8751 109.313Z" fill="#FF68F9"/>
<path d="M101.875 87.8125C102.083 87.4792 102.354 87.3333 102.688 87.375C103.063 87.4167 103.333 87.5833 103.5 87.875C103.708 88.125 103.708 88.4375 103.5 88.8125C100.667 93.3542 97.1668 97.3125 93.0001 100.688C90.0001 103.021 86.9168 103.896 83.7501 103.313C80.5834 102.729 78.5626 100.438 77.6876 96.4375C77.2709 93.1042 77.6668 89.9375 78.8751 86.9375C80.0834 83.8958 81.7293 81.1042 83.8126 78.5625C84.8543 77.1875 86.2501 76.1458 88.0001 75.4375C89.7501 74.7292 91.2918 75.1042 92.6251 76.5625C93.4584 78.1042 93.3959 79.8958 92.4376 81.9375C91.4793 83.9792 90.1251 85.8542 88.3751 87.5625C86.6251 89.2292 85.0209 90.2917 83.5626 90.75C83.3959 90.7917 83.2293 90.8333 83.0626 90.875C82.6043 92.625 82.4376 94.1875 82.5626 95.5625C82.6043 95.8542 82.6459 96.1667 82.6876 96.5C82.7709 97.2917 82.8959 98.0208 83.0626 98.6875C83.6876 100.188 84.6876 101 86.0626 101.125C87.4793 101.208 88.8126 100.875 90.0626 100.125C92.6043 98.7083 94.8334 96.9167 96.7501 94.75C98.6668 92.5833 100.375 90.2708 101.875 87.8125ZM88.6876 79.5625C88.3959 79.6042 88.0209 79.8542 87.5626 80.3125C87.1459 80.7708 86.7293 81.3125 86.3126 81.9375C85.8959 82.5208 85.5209 83.0417 85.1876 83.5C84.8959 83.9167 84.7501 84.125 84.7501 84.125C85.3334 84 85.8543 83.7083 86.3126 83.25C86.8126 82.75 87.2293 82.2292 87.5626 81.6875C87.9376 81.1042 88.2084 80.6042 88.3751 80.1875C88.5834 79.7708 88.6876 79.5625 88.6876 79.5625Z" fill="#FF68F9"/>
<path d="M147.563 87.625C147.938 87.625 148.188 87.7708 148.313 88.0625C148.438 88.3125 148.438 88.5833 148.313 88.875C148.188 89.125 147.938 89.25 147.563 89.25C145.271 89.4167 143.042 89.9375 140.875 90.8125C138.708 91.6458 136.583 92.5833 134.5 93.625C132.792 94.4167 131.083 95.5208 129.375 96.9375C130.292 98.4792 131.396 99.9583 132.688 101.375C132.729 101.417 132.792 101.479 132.875 101.563C133.125 101.813 133.333 102.083 133.5 102.375C133.708 102.625 133.896 102.938 134.063 103.313C134.229 103.688 134.271 104.125 134.188 104.625C134.104 105.125 133.875 105.5 133.5 105.75C132.667 106.25 131.771 106.396 130.813 106.188C129.854 105.979 128.917 105.667 128 105.25C127.417 105 126.854 104.813 126.313 104.688C125.854 104.521 125.396 104.354 124.938 104.188C123.854 103.896 122.813 103.479 121.813 102.938C121.313 102.604 121.021 102.146 120.938 101.563C120.854 100.979 120.979 100.458 121.313 100C122.396 98.75 123.646 97.7292 125.063 96.9375C124.646 96.1042 124.271 95.2708 123.938 94.4375C122.354 90.2708 122.188 86.4167 123.438 82.875C122.813 83.4167 122.188 83.9583 121.563 84.5C121.479 84.5833 121.417 84.6458 121.375 84.6875C117.417 88.0208 114 91.8125 111.125 96.0625C110.75 96.6875 110.354 97.3125 109.938 97.9375C109.771 98.1458 109.625 98.3542 109.5 98.5625C110.417 99.9375 111.479 101.229 112.688 102.438C113.313 103.104 113.604 103.854 113.563 104.688C113.563 105.479 113.063 106.021 112.063 106.313C110.854 106.229 109.729 105.854 108.688 105.188C108.146 104.854 107.583 104.563 107 104.313C106.917 104.271 106.813 104.229 106.688 104.188C105.813 103.854 105.063 103.417 104.438 102.875C103.813 102.333 103.729 101.5 104.188 100.375C104.521 99.875 104.875 99.375 105.25 98.875C104.792 98.125 104.375 97.3958 104 96.6875C102.625 94.0625 101.854 91.2708 101.688 88.3125C101.521 85.3125 102.229 82.5208 103.813 79.9375C106.021 76.6042 108.938 74.1458 112.563 72.5625C113.604 72.1458 114.458 72.25 115.125 72.875C115.833 73.4583 116.167 74.1875 116.125 75.0625C116.125 75.9375 115.625 76.625 114.625 77.125C109.917 79.0417 107.125 81.7083 106.25 85.125C105.417 88.5 105.938 92 107.813 95.625C110.021 93.125 112.354 90.7292 114.813 88.4375C115.354 87.9375 115.896 87.4375 116.438 86.9375C116.896 86.5208 117.333 86.1042 117.75 85.6875C120.167 83.4792 122.646 81.3542 125.188 79.3125C127.104 76.4375 129.896 74.1875 133.563 72.5625C134.604 72.1458 135.458 72.25 136.125 72.875C136.792 73.4583 137.104 74.1875 137.063 75.0625C137.063 75.9375 136.563 76.625 135.563 77.125C131.104 78.9167 128.375 81.4375 127.375 84.6875C126.417 87.9375 126.729 91.3333 128.313 94.875C131.479 93.125 134.729 91.5625 138.063 90.1875C138.146 90.1875 138.229 90.1667 138.313 90.125C141.271 88.8333 144.354 88 147.563 87.625ZM125.563 100.625C125.563 100.625 125.583 100.646 125.625 100.688C126.542 101.146 127.458 101.563 128.375 101.938C127.75 101.146 127.146 100.333 126.563 99.5C126.188 99.875 125.854 100.25 125.563 100.625Z" fill="#FF68F9"/>
<path d="M241.375 1.00002C243.25 0.750017 245.333 0.645851 247.625 0.687517C249.958 0.729184 251.979 1.22918 253.688 2.18752C255.438 3.14585 256.396 4.85418 256.563 7.31252C256.479 8.35418 256.042 9.06252 255.25 9.43752C254.5 9.77085 253.729 9.77085 252.938 9.43752C252.188 9.06252 251.792 8.35418 251.75 7.31252C251.75 5.97918 250.583 5.16668 248.25 4.87502C245.917 4.58335 243.354 4.54168 240.563 4.75002C237.813 4.95835 235.833 5.14585 234.625 5.31252C234.542 5.35418 234.479 5.37502 234.438 5.37502C221.188 7.37502 208.063 9.97918 195.063 13.1875C184.063 15.8542 172.979 18.1459 161.813 20.0625C161.521 20.1042 161.208 20.1459 160.875 20.1875C165.875 25.1875 169.729 30.8959 172.438 37.3125C175.146 43.6875 176.917 50.4584 177.75 57.625C178.167 57.5834 178.604 57.5625 179.063 57.5625C179.438 56.3125 179.833 55.0625 180.25 53.8125C183.917 42.5625 188.125 31.5417 192.875 20.75C192.958 20.5417 193.104 20.4375 193.313 20.4375C193.521 20.4375 193.688 20.5209 193.813 20.6875C193.938 20.8125 193.958 20.9792 193.875 21.1875C188.917 33.0209 184.729 45.125 181.313 57.5C187.063 57.5 192.75 58.0209 198.375 59.0625C198.583 59.1042 198.708 59.2084 198.75 59.375C198.792 59.5417 198.771 59.7084 198.688 59.875C198.604 60 198.458 60.0625 198.25 60.0625C195.583 59.9792 192.938 59.9167 190.313 59.875C187.104 59.7917 183.896 59.7709 180.688 59.8125C180.146 61.7709 179.604 63.75 179.063 65.75C178.854 66.5 178.646 67.2292 178.438 67.9375C178.479 80.8542 176.896 93.0833 173.688 104.625C173.063 107.083 172.375 109.5 171.625 111.875C171.417 112.5 171.042 112.958 170.5 113.25C170 113.542 169.438 113.625 168.813 113.5C166.896 112.833 165.979 111.271 166.063 108.813C166.104 106.396 166.396 104.042 166.938 101.75C167.146 100.792 167.292 99.9792 167.375 99.3125C169.958 87.8542 173.021 76.5417 176.563 65.375C176.563 63.5417 176.5 61.7292 176.375 59.9375C174.125 59.9792 172.083 60.2917 170.25 60.875C170.375 61.0417 170.521 61.2084 170.688 61.375C170.896 61.5417 171.083 61.6875 171.25 61.8125C171.542 62.0209 171.646 62.2709 171.563 62.5625C171.521 62.8125 171.375 63.0209 171.125 63.1875C170.917 63.3125 170.688 63.2917 170.438 63.125C168.563 62.0417 167.958 61.0209 168.625 60.0625C169.25 59.0625 170.438 58.4375 172.188 58.1875C173.521 57.9792 174.854 57.8125 176.188 57.6875C175.563 51.2292 174.104 44.8959 171.813 38.6875C170.604 35.5625 169.042 32.375 167.125 29.125C165.167 25.875 162.896 22.9375 160.313 20.3125C160.021 20.3125 159.708 20.3334 159.375 20.375C157.417 20.7084 155.25 20.9792 152.875 21.1875C150.458 21.3542 148.25 21.25 146.25 20.875C144.25 20.4584 142.854 19.5417 142.063 18.125C141.604 16.75 141.75 15.4792 142.5 14.3125C143.25 13.1042 144.354 12.4167 145.813 12.25C147.438 12.125 149 12.3542 150.5 12.9375C152 13.4792 153.417 14.1667 154.75 15C156.667 16.4167 158.458 17.8959 160.125 19.4375C166.792 18.3959 173.396 17.0834 179.938 15.5C186.479 13.875 193.021 12.1875 199.563 10.4375C206.438 8.52085 213.354 6.72918 220.313 5.06252C227.271 3.39585 234.292 2.04168 241.375 1.00002ZM170.25 60.75C170.25 60.7917 170.25 60.8125 170.25 60.8125C170.25 60.7709 170.25 60.75 170.25 60.75ZM171 109.438C171 109.479 171 109.5 171 109.5C171 109.542 171 109.563 171 109.563C171.042 109.563 171.042 109.542 171 109.5C171 109.5 171 109.479 171 109.438ZM172.25 95.0625C173.708 89.8542 174.833 84.5833 175.625 79.25C174.292 84.5 173.167 89.7708 172.25 95.0625ZM178.313 59.875C178.188 59.875 178.083 59.875 178 59.875C178 59.9584 178 60.0209 178 60.0625C178.042 60.2292 178.063 60.3959 178.063 60.5625C178.104 60.4792 178.146 60.375 178.188 60.25C178.229 60.125 178.271 60 178.313 59.875ZM143.688 19.125C145.104 19.9167 146.625 20.3542 148.25 20.4375C149.833 20.5209 151.417 20.4792 153 20.3125C153.458 20.3125 153.917 20.2917 154.375 20.25C156.083 20.0417 157.813 19.8125 159.563 19.5625C156.104 16.1875 152.146 13.9792 147.688 12.9375C146.771 12.8125 145.896 12.875 145.063 13.125C144.229 13.3334 143.563 13.8334 143.063 14.625C142.646 15.375 142.458 16.1875 142.5 17.0625C142.542 17.9375 142.938 18.625 143.688 19.125Z" fill="#FF68F9"/>
<path d="M221.625 88.0625C221.75 87.7708 221.938 87.625 222.188 87.625C222.438 87.625 222.646 87.7292 222.813 87.9375C222.979 88.1042 223.021 88.3333 222.938 88.625C221.354 92.0417 219.313 95.3958 216.813 98.6875C214.313 101.938 211.333 104.438 207.875 106.188C206.125 107.021 204.271 107.375 202.313 107.25C198.604 106.792 196.208 104.896 195.125 101.563C194.083 98.2292 193.792 94.4792 194.25 90.3125C194.667 86.1458 195.271 82.6042 196.063 79.6875C199.604 65.2292 205.292 51.6667 213.125 39C213.417 38.5834 213.708 38.1459 214 37.6875C215 36.1459 216.146 34.6875 217.438 33.3125C218.729 31.9375 220.292 30.9584 222.125 30.375C223.083 30.1667 224.021 30.3334 224.938 30.875C225.896 31.375 226.5 32.125 226.75 33.125C227.167 35.8334 226.917 38.625 226 41.5C225.083 44.3334 224 47.0625 222.75 49.6875C222.292 50.7292 221.854 51.75 221.438 52.75C216.771 62.6667 211.333 72.1667 205.125 81.25C204.708 81.8333 204.271 82.4375 203.813 83.0625C202.646 84.8125 201.313 86.4375 199.813 87.9375C198.813 92.2292 198.917 96.4375 200.125 100.563C200.75 102.479 201.917 103.771 203.625 104.438C205.333 105.104 207.042 104.979 208.75 104.063C211.667 102.271 214.167 99.9375 216.25 97.0625C218.375 94.1458 220.167 91.1458 221.625 88.0625ZM208.063 60.8125C205.396 67.3959 203.167 74.125 201.375 81C201.208 81.5417 201.063 82.1042 200.938 82.6875C200.813 83.3542 200.667 84 200.5 84.625C201.083 83.9583 201.646 83.2917 202.188 82.625C204.021 80.5417 205.708 78.375 207.25 76.125C208.833 73.7083 210.813 70.4792 213.188 66.4375C215.604 62.3542 217.896 58.1042 220.063 53.6875C222.271 49.2709 223.896 45.3125 224.938 41.8125C226.021 38.3125 226.021 35.8959 224.938 34.5625C224.479 34.1459 223.917 34.125 223.25 34.5C222.625 34.8334 222.021 35.3334 221.438 36C220.896 36.625 220.479 37.125 220.188 37.5C217.604 40.9167 215.375 44.5834 213.5 48.5C211.667 52.375 209.938 56.2917 208.313 60.25C208.229 60.4167 208.146 60.6042 208.063 60.8125Z" fill="#FF68F9"/>
<path d="M258.188 88.0625C258.313 87.8542 258.479 87.7708 258.688 87.8125C258.938 87.8125 259.125 87.9167 259.25 88.125C259.375 88.2917 259.375 88.5 259.25 88.75C259 89.0833 258.75 89.4375 258.5 89.8125C257.208 91.8125 255.667 93.9375 253.875 96.1875C252.083 98.4375 250.104 100.271 247.938 101.688C245.771 103.063 243.438 103.479 240.938 102.938C238.938 101.979 237.458 100.5 236.5 98.5C235.542 96.5 234.896 94.3125 234.563 91.9375C234.479 91.6042 234.271 91.4167 233.938 91.375C233.646 91.2917 233.417 91.3958 233.25 91.6875C233.25 91.6875 233.25 91.7083 233.25 91.75C232.625 92.7083 232.021 93.7292 231.438 94.8125C230.313 96.9375 229.063 98.875 227.688 100.625C226.354 102.333 224.688 103.333 222.688 103.625C220.104 103.375 218.771 101.875 218.688 99.125C218.563 96.3333 219.229 93.125 220.688 89.5C222.146 85.875 223.917 82.6667 226 79.875C228.125 77.0833 230.083 75.5417 231.875 75.25C232.792 74.9583 233.813 75.0625 234.938 75.5625C236.104 76.0625 237 76.7917 237.625 77.75C238.292 78.6667 238.333 79.6458 237.75 80.6875C238.542 81.1458 238.896 81.9583 238.813 83.125C237.896 87.875 237.792 92.0208 238.5 95.5625C239.208 99.0625 240.792 100.979 243.25 101.313C245.708 101.646 249.125 99.4583 253.5 94.75C255.25 92.6667 256.813 90.4375 258.188 88.0625ZM223.688 97.625C225.563 95.0833 227.313 92.25 228.938 89.125C230.479 86.2083 232.125 83.5208 233.875 81.0625C233.917 80.9792 233.938 80.8542 233.938 80.6875C233.979 80.5208 233.979 80.375 233.938 80.25C233.938 80.0833 233.854 79.9792 233.688 79.9375C233.563 79.8958 233.333 79.9583 233 80.125C230.708 81.4583 228.688 84 226.938 87.75C225.229 91.4583 224.146 94.75 223.688 97.625Z" fill="#FF68F9"/>
<path d="M285.375 87.3125C285.583 87.5208 285.688 87.7708 285.688 88.0625C285.729 88.3125 285.646 88.5625 285.438 88.8125C284.938 89.3958 284.396 90.0417 283.813 90.75C282.313 92.625 280.875 94.3333 279.5 95.875C279.292 96.125 279.063 96.3542 278.813 96.5625C277.063 98.5625 275.188 100.458 273.188 102.25C271.188 104.042 268.917 105.438 266.375 106.438C262.583 107.396 259.896 106.875 258.313 104.875C256.771 102.875 256.021 100.313 256.063 97.1875C256.104 94.0208 256.604 91.125 257.563 88.5C258.604 85.4167 260.063 82.2708 261.938 79.0625C263.854 75.8542 266.375 73.5833 269.5 72.25C270.667 71.8333 271.792 71.875 272.875 72.375C273.958 72.875 274.667 73.7083 275 74.875C275.375 76.375 275.313 77.8333 274.813 79.25C274.313 80.6667 273.583 81.9375 272.625 83.0625C271.875 83.8125 271.083 84.0625 270.25 83.8125C269.417 83.5625 268.813 83.0625 268.438 82.3125C268.104 81.5208 268.25 80.6875 268.875 79.8125C269.167 79.3958 269.417 78.9375 269.625 78.4375C268 80.0208 266.604 81.8333 265.438 83.875C264.313 85.9167 263.333 88 262.5 90.125C261.708 92.2083 261.083 94.5417 260.625 97.125C260.167 99.7083 260.417 101.75 261.375 103.25C262.333 104.75 264.5 104.854 267.875 103.563C269.917 102.479 271.771 101.167 273.438 99.625C275.146 98.0417 276.771 96.3958 278.313 94.6875C280.313 92.3958 282.229 90 284.063 87.5C284.229 87.2917 284.417 87.1875 284.625 87.1875C284.875 87.1458 285.125 87.1875 285.375 87.3125Z" fill="#FF68F9"/>
<path d="M311.125 20.125C306.792 30.0834 302.833 40.2084 299.25 50.5C295 62.4167 291.021 74.4167 287.313 86.5C287.479 86.25 287.625 86.0208 287.75 85.8125C288 85.4375 288.208 85.125 288.375 84.875C288.875 84.1667 289.396 83.4375 289.938 82.6875C291.438 80.5208 293.083 78.4167 294.875 76.375C296.708 74.2917 298.813 72.7083 301.188 71.625C302.229 71.3333 303.042 71.5208 303.625 72.1875C304.25 72.8542 304.5 73.625 304.375 74.5C304.292 75.375 303.729 76 302.688 76.375C299.896 78.25 297.229 80.9792 294.688 84.5625C292.188 88.1042 290.042 91.3958 288.25 94.4375C288.167 94.5208 288.104 94.625 288.063 94.75C288.021 94.8333 287.958 94.9375 287.875 95.0625C287.292 96.1458 286.708 97.25 286.125 98.375C287 98 287.833 97.5833 288.625 97.125C288.667 97.125 288.708 97.1042 288.75 97.0625C290.25 96.2708 291.75 95.4583 293.25 94.625C295.083 93.625 296.938 92.6458 298.813 91.6875C302.229 89.7708 305.854 88.4167 309.688 87.625C310.063 87.5833 310.313 87.6875 310.438 87.9375C310.563 88.1875 310.563 88.4583 310.438 88.75C310.354 89 310.146 89.1458 309.813 89.1875C306.771 89.8958 303.042 91.5417 298.625 94.125C294.25 96.6667 290.458 98.9792 287.25 101.063C285.25 102.354 283.938 103.167 283.313 103.5C282.979 103.667 282.625 103.75 282.25 103.75C280.292 110.75 278.479 117.771 276.813 124.813C275.271 131.438 274 138.083 273 144.75C272.917 145.458 272.604 146.021 272.063 146.438C271.521 146.854 270.896 147.021 270.188 146.938C269.438 146.813 268.875 146.458 268.5 145.875C268.083 145.292 267.938 144.646 268.063 143.938C269.854 135.854 271.875 127.833 274.125 119.875C281.958 92.25 290.479 64.8334 299.688 37.625C301.896 31.125 304.167 24.6459 306.5 18.1875C307 17.1875 307.688 16.6667 308.563 16.625C309.479 16.5417 310.229 16.8334 310.813 17.5C311.438 18.1667 311.542 19.0417 311.125 20.125Z" fill="#FF68F9"/>
</svg>
