<svg width="67" height="59" viewBox="0 0 67 59" fill="none" xmlns="http://www.w3.org/2000/svg">
<g clip-path="url(#clip0_1205_1452)">
<path d="M63.1233 3.92909C62.6254 1.65289 60.5868 0 58.2766 0H8.72339C6.41321 0 4.37463 1.65289 3.8767 3.92909L0 21.6508V21.8058C0 25.2225 1.79447 28.2248 4.48132 29.9038V54.0152C4.48132 56.7646 6.69774 59.0016 9.42177 59.0016H57.748C60.472 59.0016 62.6884 56.7646 62.6884 54.0152V29.7929C65.2815 28.0943 67 25.1491 67 21.8058V21.6508L63.1233 3.92909ZM16.0468 21.7177V21.8058C16.0468 25.4885 13.0786 28.4843 9.42986 28.4843C5.7811 28.4843 2.89217 25.5685 2.81457 21.9543L6.62337 4.54097C6.83838 3.55544 7.72269 2.83913 8.72339 2.83913H18.3569L16.0484 21.7177H16.0468ZM32.0935 21.8058C32.0935 25.4885 29.1254 28.4843 25.4766 28.4843C21.8279 28.4843 18.905 25.5342 18.8597 21.889L21.1893 2.83913H32.0919V21.8058H32.0935ZM34.9065 21.8058V2.83913H45.8091L48.1387 21.889C48.095 25.5326 45.143 28.4843 41.5218 28.4843C37.9005 28.4843 34.9049 25.4885 34.9049 21.8058H34.9065ZM47.5114 52.395C43.1497 52.395 39.6222 48.8346 39.6222 44.4323C39.6222 40.0301 43.1497 36.4697 47.5114 36.4697C49.6421 36.4697 51.4221 37.2546 52.7978 38.5518L50.6558 40.6338C50.0689 40.0643 49.044 39.4051 47.5114 39.4051C44.8181 39.4051 42.6195 41.6569 42.6195 44.434C42.6195 47.2111 44.8181 49.4628 47.5114 49.4628C50.6331 49.4628 51.8052 47.1997 51.9863 46.0265H47.5114V43.2967H54.9625C55.0304 43.6948 55.087 44.093 55.087 44.6167C55.087 49.1675 52.0655 52.3982 47.513 52.3982L47.5114 52.395ZM57.5701 28.4826C53.9214 28.4826 50.9532 25.4869 50.9532 21.8042V21.7161L48.6447 2.8375H58.2782C59.2789 2.8375 60.1616 3.5538 60.3782 4.53934L64.187 21.951C64.1095 25.5652 61.172 28.481 57.5718 28.481L57.5701 28.4826Z" fill="white"/>
</g>
<defs>
<clipPath id="clip0_1205_1452">
<rect width="67" height="59" fill="white"/>
</clipPath>
</defs>
</svg>
