<svg width="144" height="41" viewBox="0 0 144 41" fill="none" xmlns="http://www.w3.org/2000/svg">
<path d="M37.4844 0H44.037V41H37.4844V0ZM66.971 27.921C66.971 34.1956 61.7011 34.6958 60.1334 34.6958C56.2166 34.6958 55.504 31.0255 55.504 28.8115V13.12H48.9514V28.7787C48.9514 32.6655 50.1702 35.8734 52.3063 38.0119C54.1934 39.9028 57.0209 40.936 60.0842 40.936C62.2564 40.936 65.3328 40.2587 66.971 38.7614V41H73.5235V13.12H66.971V27.921ZM86.6287 3.28H80.0761V13.12H75.1617V19.68H80.0761V41H86.6287V19.68H91.5431V13.12H86.6287V3.28ZM112.179 32.6639C110.752 33.948 108.868 34.6598 106.801 34.6598C102.243 34.6598 98.8967 31.3092 98.8967 26.709C98.8967 22.1088 102.137 18.8994 106.801 18.8994C108.832 18.8994 110.752 19.5767 112.215 20.8608L113.209 21.7169L117.627 17.2954L116.522 16.2967C113.922 13.9466 110.47 12.628 106.799 12.628C98.6084 12.628 92.6603 18.5451 92.6603 26.6746C92.6603 34.7696 98.751 40.8983 106.799 40.8983C110.539 40.8983 114.027 39.5798 116.594 37.1919L117.662 36.1932L113.175 31.775L112.179 32.6639ZM141.015 15.5505C139.128 13.6612 136.916 12.628 133.853 12.628C131.681 12.628 129.22 13.3053 127.582 14.801V0H121.03V41H127.582V25.6414C127.582 19.3668 132.035 18.8682 133.602 18.8682C137.519 18.8682 137.411 22.5402 137.411 24.7509V41H143.964V24.7853C143.964 20.8985 143.153 17.6907 141.015 15.5505" fill="white"/>
<path d="M106.585 22.0381C107.842 22.0381 109.047 22.5378 109.935 23.4272C110.824 24.3167 111.323 25.5231 111.323 26.781C111.323 28.0389 110.824 29.2452 109.935 30.1347C109.047 31.0242 107.842 31.5238 106.585 31.5238C105.329 31.5238 104.124 31.0242 103.235 30.1347C102.347 29.2452 101.848 28.0389 101.848 26.781C101.848 25.5231 102.347 24.3167 103.235 23.4272C104.124 22.5378 105.329 22.0381 106.585 22.0381" fill="white"/>
<path d="M28.3112 30.7024C25.8195 33.269 22.4351 34.6597 18.8738 34.6597C11.5742 34.6597 6.26666 28.9197 6.26666 21.0411C6.26666 13.1265 11.5742 7.38651 18.8738 7.38651C22.4007 7.38651 25.7475 8.77559 28.2768 11.3077L29.2727 12.3065L33.6531 7.92115L32.6916 6.92239C29.0598 3.17827 24.1454 1.14795 18.8738 1.14795C8.1194 1.14795 0.0351562 9.70383 0.0351562 21.0756C0.0351562 32.4129 8.15544 40.9343 18.8738 40.9343C24.1814 40.9343 29.0958 38.8679 32.7276 35.1238L33.6892 34.1251L29.3448 29.6692L28.3112 30.7024Z" fill="white"/>
</svg>
