<svg width="234" height="57" viewBox="0 0 234 57" fill="none" xmlns="http://www.w3.org/2000/svg">
<path d="M61.502 20.1964H85.2011V24.5889H75.8933V49.2332H70.7684V24.5889H61.502V20.1964ZM84.1765 28.207H88.5639V32.2737H88.6465C88.7829 31.7041 89.0493 31.1489 89.446 30.606C89.8426 30.0631 90.3197 29.5694 90.8816 29.1207C91.4414 28.6741 92.0631 28.3135 92.7468 28.0431C93.4306 27.7726 94.1267 27.6374 94.8373 27.6374C95.3847 27.6374 95.7606 27.6517 95.9651 27.6784C96.1696 27.705 96.3824 27.7337 96.6013 27.7603V32.2327C96.2729 32.1795 95.9383 32.1303 95.5974 32.0893C95.2545 32.0483 94.9199 32.0278 94.5935 32.0278C93.8003 32.0278 93.0567 32.1836 92.3585 32.495C91.6624 32.8064 91.053 33.2673 90.5345 33.8779C90.014 34.4884 89.605 35.2403 89.3034 36.1356C89.0018 37.0309 88.8531 38.0614 88.8531 39.2271V49.2311H84.1786V28.207H84.1765ZM118.051 49.2311H113.459V46.3035H113.376C112.802 47.3606 111.947 48.2088 110.813 48.8459C109.679 49.4831 108.524 49.8027 107.349 49.8027C104.56 49.8027 102.544 49.1184 101.301 47.7499C100.057 46.3813 99.4354 44.3141 99.4354 41.5483V28.209H104.11V41.0997C104.11 42.9435 104.465 44.2445 105.176 45.0046C105.886 45.7646 106.884 46.1437 108.169 46.1437C109.152 46.1437 109.972 45.9941 110.629 45.697C111.286 45.4 111.819 44.9984 112.228 44.4965C112.639 43.9945 112.932 43.3922 113.11 42.6874C113.288 41.9827 113.376 41.2226 113.376 40.4092V28.209H118.051V49.2332V49.2311ZM126.006 42.4805C126.142 43.8368 126.663 44.7853 127.563 45.3283C128.466 45.8712 129.544 46.1416 130.802 46.1416C131.24 46.1416 131.738 46.1088 132.3 46.0392C132.86 45.9716 133.386 45.8425 133.878 45.652C134.37 45.4635 134.772 45.1848 135.088 44.8181C135.402 44.4514 135.545 43.972 135.518 43.3738C135.491 42.7776 135.272 42.29 134.861 41.9089C134.45 41.5299 133.923 41.2246 133.283 40.9931C132.641 40.7637 131.909 40.567 131.089 40.4031C130.269 40.2412 129.435 40.0651 128.588 39.8745C127.712 39.686 126.871 39.4545 126.066 39.182C125.26 38.9116 124.535 38.5449 123.893 38.0839C123.25 37.623 122.738 37.0329 122.356 36.3159C121.974 35.5988 121.782 34.7096 121.782 33.6525C121.782 32.5134 122.062 31.5587 122.622 30.7863C123.182 30.0139 123.893 29.3911 124.754 28.9158C125.615 28.4426 126.572 28.1086 127.623 27.9201C128.675 27.7316 129.681 27.6354 130.637 27.6354C131.73 27.6354 132.775 27.7501 133.775 27.9816C134.772 28.2131 135.675 28.586 136.481 29.1002C137.286 29.6165 137.958 30.2864 138.49 31.1141C139.023 31.9418 139.358 32.9375 139.494 34.1032H134.615C134.396 32.9928 133.884 32.2471 133.079 31.866C132.271 31.487 131.35 31.2964 130.311 31.2964C129.982 31.2964 129.594 31.3231 129.141 31.3784C128.691 31.4337 128.266 31.5341 127.871 31.6837C127.474 31.8332 127.14 32.0504 126.867 32.3352C126.594 32.6199 126.456 32.9928 126.456 33.4538C126.456 34.0233 126.654 34.4843 127.051 34.8367C127.448 35.1891 127.966 35.48 128.608 35.7115C129.251 35.943 129.982 36.1376 130.802 36.3015C131.622 36.4634 132.469 36.6416 133.345 36.8301C134.192 37.0206 135.026 37.2501 135.846 37.5205C136.667 37.791 137.398 38.1577 138.04 38.6186C138.683 39.0796 139.201 39.6635 139.598 40.3683C139.994 41.073 140.193 41.9417 140.193 42.9702C140.193 44.2178 139.905 45.275 139.331 46.1416C138.757 47.0103 138.011 47.715 137.096 48.2559C136.181 48.7988 135.163 49.1922 134.041 49.436C132.919 49.6798 131.812 49.8027 130.72 49.8027C129.379 49.8027 128.144 49.6531 127.01 49.3561C125.876 49.057 124.89 48.6042 124.058 47.9937C123.223 47.3831 122.569 46.6251 122.089 45.7155C121.61 44.8079 121.358 43.7302 121.331 42.4826H126.006V42.4805ZM141.422 28.207H144.948V21.903H149.622V28.207H153.846V31.6632H149.622V42.8882C149.622 43.3758 149.643 43.7979 149.684 44.1482C149.726 44.5006 149.821 44.7997 149.971 45.0435C150.122 45.2873 150.347 45.4696 150.649 45.5925C150.948 45.7155 151.359 45.7749 151.878 45.7749C152.206 45.7749 152.535 45.7687 152.861 45.7544C153.19 45.7401 153.518 45.6929 153.844 45.613V49.1922C153.324 49.2454 152.82 49.3008 152.328 49.354C151.837 49.4073 151.331 49.436 150.812 49.436C149.581 49.436 148.591 49.3213 147.84 49.0897C147.088 48.8603 146.499 48.5202 146.076 48.0736C145.652 47.6269 145.365 47.0635 145.214 46.3854C145.063 45.7073 144.975 44.9349 144.948 44.0683V31.6652H141.422V28.209V28.207ZM157.125 28.207H161.553V31.0527H161.636C162.293 29.8337 163.208 28.9588 164.383 28.4303C165.559 27.9017 166.829 27.6374 168.196 27.6374C169.863 27.6374 171.32 27.9283 172.563 28.5122C173.807 29.0961 174.84 29.8951 175.66 30.9113C176.48 31.9275 177.095 33.1137 177.504 34.4699C177.913 35.8262 178.12 37.2767 178.12 38.8215C178.12 40.231 177.936 41.6016 177.566 42.9292C177.196 44.2588 176.637 45.4307 175.885 46.4469C175.133 47.463 174.183 48.2764 173.034 48.8869C171.886 49.4974 170.533 49.8027 168.975 49.8027C168.291 49.8027 167.608 49.7412 166.926 49.6204C166.242 49.4974 165.586 49.3008 164.958 49.0303C164.328 48.7599 163.747 48.4137 163.214 47.9937C162.681 47.5737 162.237 47.0779 161.882 46.5083H161.799V56.9999H157.125V28.207V28.207ZM173.443 38.7395C173.443 37.7909 173.319 36.869 173.073 35.9737C172.828 35.0784 172.458 34.2856 171.966 33.5951C171.475 32.9047 170.859 32.3495 170.122 31.9275C169.384 31.5075 168.535 31.2964 167.579 31.2964C165.61 31.2964 164.127 31.9746 163.129 33.3288C162.132 34.6851 161.632 36.488 161.632 38.7375C161.632 39.7946 161.762 40.778 162.022 41.6856C162.283 42.5932 162.671 43.3738 163.191 44.0232C163.71 44.6747 164.332 45.1889 165.057 45.568C165.78 45.949 166.62 46.1375 167.579 46.1375C168.645 46.1375 169.547 45.9203 170.285 45.486C171.022 45.0517 171.632 44.4903 172.109 43.7979C172.586 43.1054 172.929 42.3207 173.133 41.4398C173.338 40.5588 173.441 39.6574 173.441 38.7354L173.443 38.7395ZM181.685 20.1943H186.36V24.5868H181.685V20.1943ZM181.685 28.2049H186.36V49.2291H181.685V28.2049ZM190.536 20.1943H195.211V49.2332H190.536V20.1964V20.1943ZM209.52 49.8007C207.824 49.8007 206.314 49.522 204.99 48.9668C203.664 48.4116 202.544 47.6454 201.627 46.6702C200.71 45.695 200.014 44.5293 199.536 43.173C199.057 41.8167 198.82 40.3252 198.82 38.7006C198.82 37.0759 199.059 35.6234 199.536 34.2671C200.014 32.9109 200.712 31.7451 201.627 30.7699C202.542 29.7947 203.664 29.0285 204.99 28.4733C206.316 27.9181 207.826 27.6395 209.52 27.6395C211.213 27.6395 212.723 27.9181 214.05 28.4733C215.376 29.0285 216.495 29.7947 217.412 30.7699C218.328 31.7451 219.026 32.9129 219.503 34.2671C219.98 35.6234 220.22 37.1005 220.22 38.7006C220.22 40.3007 219.98 41.8188 219.503 43.173C219.024 44.5293 218.328 45.695 217.412 46.6702C216.495 47.6454 215.376 48.4116 214.05 48.9668C212.723 49.522 211.213 49.8007 209.52 49.8007V49.8007ZM209.52 46.1396C210.559 46.1396 211.461 45.9224 212.226 45.4881C212.99 45.0537 213.62 44.4862 214.112 43.7794C214.603 43.0746 214.965 42.2818 215.198 41.4008C215.429 40.5199 215.547 39.6184 215.547 38.6965C215.547 37.7746 215.432 36.9079 215.198 36.0126C214.967 35.1173 214.603 34.3245 214.112 33.6341C213.62 32.9436 212.99 32.3802 212.226 31.9459C211.459 31.5116 210.559 31.2944 209.52 31.2944C208.481 31.2944 207.578 31.5116 206.814 31.9459C206.047 32.3802 205.419 32.9416 204.928 33.6341C204.436 34.3265 204.073 35.1194 203.841 36.0126C203.608 36.9079 203.492 37.8012 203.492 38.6965C203.492 39.5918 203.608 40.5199 203.841 41.4008C204.073 42.2818 204.436 43.0746 204.928 43.7794C205.419 44.4842 206.047 45.0537 206.814 45.4881C207.578 45.9224 208.481 46.1396 209.52 46.1396V46.1396ZM221.575 28.2049H225.101V21.9009H229.775V28.2049H234V31.6611H229.775V42.8862C229.775 43.3738 229.796 43.7958 229.837 44.1461C229.879 44.4985 229.974 44.7976 230.124 45.0414C230.275 45.2852 230.5 45.4676 230.802 45.5905C231.101 45.7134 231.513 45.7728 232.031 45.7728C232.359 45.7728 232.688 45.7667 233.014 45.7523C233.343 45.738 233.671 45.6909 233.997 45.611V49.1901C233.477 49.2434 232.973 49.2987 232.481 49.352C231.99 49.4053 231.484 49.4339 230.965 49.4339C229.734 49.4339 228.745 49.3192 227.993 49.0877C227.241 48.8582 226.652 48.5181 226.229 48.0715C225.805 47.6249 225.518 47.0615 225.367 46.3834C225.216 45.7052 225.128 44.9329 225.101 44.0662V31.6632H221.575V28.207V28.2049Z" fill="white"/>
<path d="M28.0246 40.3868L40.2242 37.2543L45.3388 52.8677L28.0246 40.3888V40.3868ZM56.045 20.1965L34.6367 20.1924L28.0225 0L21.4083 20.1903L0 20.1862L17.3204 32.6712L10.7062 52.8656L28.0246 40.3868L38.7246 32.6753L56.045 20.1944V20.1965Z" fill="white"/>
</svg>
