<svg width="59" height="60" viewBox="0 0 59 60" fill="none" xmlns="http://www.w3.org/2000/svg">
<g clip-path="url(#clip0_1205_1459)">
<path d="M41.5753 42.7482C43.8066 46.5783 46.013 50.3649 48.2177 54.1474C38.4548 61.541 23.2653 62.4345 12.0209 53.9201C-0.918937 44.1143 -3.04572 27.3827 3.88209 15.3385C11.8501 1.48517 26.7608 -1.57858 36.3612 0.66795C36.1015 1.22589 30.3516 13.0255 30.3516 13.0255C30.3516 13.0255 29.897 13.0551 29.6399 13.06C26.8022 13.179 24.6887 13.8321 22.4234 14.9906C19.9381 16.2735 17.8082 18.139 16.2199 20.424C14.6317 22.7091 13.6334 25.3442 13.3124 28.099C12.9775 30.8927 13.368 33.7248 14.4472 36.3278C15.3596 38.5284 16.6503 40.4828 18.3805 42.1328C21.0349 44.6665 24.1935 46.2353 27.8549 46.7547C31.3221 47.247 34.6566 46.7596 37.7812 45.2064C38.9533 44.6247 39.9503 43.9822 41.1157 43.101C41.2642 43.0058 41.3961 42.8852 41.5753 42.7482Z" fill="white"/>
<path d="M41.5972 9.15749C41.0307 8.60612 40.5057 8.0974 39.9831 7.58541C39.6712 7.28018 39.3709 6.96265 39.0516 6.66481C38.9371 6.55732 38.8027 6.41045 38.8027 6.41045C38.8027 6.41045 38.9114 6.18235 38.9578 6.08882C39.5692 4.87529 40.5272 3.98833 41.6636 3.2827C42.9202 2.49649 44.3843 2.09646 45.8707 2.13318C47.7727 2.1701 49.5412 2.63861 51.0334 3.90054C52.1349 4.83181 52.6998 6.01333 52.7994 7.42377C52.9653 9.80323 51.9699 11.6256 49.9932 12.8973C48.832 13.6456 47.5795 14.2241 46.3236 14.9092C45.631 15.2875 45.0388 15.6198 44.3619 16.3041C43.7663 16.9908 43.7373 17.6382 43.7373 17.6382L52.7347 17.6267V21.5906H38.8467C38.8467 21.5906 38.8467 21.3198 38.8467 21.2074C38.7936 19.2595 39.0234 17.4265 39.925 15.6575C40.7545 14.0346 42.0435 12.8465 43.5921 11.9316C44.7849 11.2268 46.0408 10.627 47.236 9.92548C47.9735 9.49308 48.4944 8.85883 48.4902 7.93905C48.4902 7.14973 47.9096 6.4482 47.0801 6.22912C45.1242 5.70728 43.1334 6.54009 42.0983 8.31074C41.9473 8.56919 41.793 8.82601 41.5972 9.15749Z" fill="white"/>
<path d="M59.0011 38.535L51.4189 25.5825H36.4144L28.7832 38.6687H43.898L51.3566 51.5596L59.0011 38.535Z" fill="white"/>
</g>
<defs>
<clipPath id="clip0_1205_1459">
<rect width="59" height="60" fill="white"/>
</clipPath>
</defs>
</svg>
