<svg width="195" height="44" viewBox="0 0 195 44" fill="none" xmlns="http://www.w3.org/2000/svg">
<g clip-path="url(#clip0_1916_2175)">
<mask id="mask0_1916_2175" style="mask-type:luminance" maskUnits="userSpaceOnUse" x="0" y="0" width="195" height="44">
<path d="M195 0H0V44H195V0Z" fill="white"/>
</mask>
<g mask="url(#mask0_1916_2175)">
<path fill-rule="evenodd" clip-rule="evenodd" d="M-317.5 -245.5H850.5V403.5H-317.5V-245.5Z" stroke="#979797"/>
<path fill-rule="evenodd" clip-rule="evenodd" d="M192.296 39.557C191.962 39.5574 191.635 39.4586 191.357 39.2731C191.078 39.0877 190.861 38.8239 190.733 38.5151C190.605 38.2063 190.571 37.8665 190.636 37.5385C190.701 37.2106 190.862 36.9092 191.098 36.6727C191.335 36.4361 191.636 36.275 191.964 36.2096C192.291 36.1442 192.631 36.1776 192.94 36.3054C193.249 36.4333 193.513 36.6499 193.699 36.9279C193.885 37.2058 193.984 37.5327 193.984 37.867C193.984 38.792 193.228 39.557 192.296 39.557ZM192.296 35.868C191.189 35.868 190.293 36.758 190.293 37.867C190.293 38.977 191.189 39.848 192.296 39.848C192.558 39.8509 192.818 39.8018 193.061 39.7036C193.304 39.6054 193.525 39.4599 193.712 39.2757C193.898 39.0915 194.046 38.8722 194.147 38.6304C194.249 38.3886 194.301 38.1291 194.301 37.867C194.301 37.604 194.249 37.3435 194.148 37.1006C194.047 36.8577 193.9 36.6371 193.713 36.4514C193.527 36.2657 193.306 36.1185 193.063 36.0184C192.82 35.9183 192.559 35.8672 192.296 35.868ZM191.919 37.718V37.075H192.287C192.499 37.075 192.737 37.137 192.737 37.382C192.737 37.656 192.473 37.718 192.243 37.718H191.919ZM193.14 37.392C193.14 36.907 192.727 36.732 192.306 36.732H191.515V38.985H191.919V38.043H192.209L192.736 38.985H193.228L192.621 38C192.937 37.93 193.139 37.718 193.139 37.392H193.14ZM143.977 17.491H139.233V22.372H136.289V26.227H139.233V33.912C139.233 36.605 139.888 40.227 145.063 40.227C146.073 40.227 147.349 40.023 148.109 39.732L147.992 35.958C147.51 36.119 146.769 36.318 145.882 36.318C144.476 36.318 143.977 35.33 143.977 33.878V26.228H148.184V22.372H143.977V17.492V17.491ZM180.934 30.576L187.196 22.372H181.588L177.997 27.382L174.506 22.372H168.682L174.982 30.577L167.913 39.835H173.662L177.922 33.907L182.15 39.835H188.04L180.934 30.576ZM125.364 36.206C122.224 36.206 120.794 33.526 120.794 31.033C120.794 28.576 122.224 25.929 125.364 25.929C128.503 25.929 129.934 28.576 129.934 31.033C129.934 33.526 128.503 36.206 125.364 36.206ZM125.364 21.88C119.885 21.88 115.911 25.73 115.911 31.033C115.911 36.521 119.974 40.373 125.364 40.373C130.752 40.373 134.818 36.485 134.818 31.033C134.818 25.73 130.841 21.88 125.364 21.88ZM162.107 32.438C162.107 35.028 160.645 36.651 157.993 36.651C157.007 36.651 155.244 36.352 155.244 34.783C155.244 33.099 157.352 32.06 161.464 32.06H162.107V32.438ZM158.904 21.88C156.135 21.88 153.319 23 151.436 24.747L153.904 27.517C155.04 26.379 156.988 25.66 158.554 25.66C160.271 25.66 162.021 26.52 162.021 28.576V28.882C156.964 28.907 150.538 29.518 150.538 34.719C150.538 38.544 153.859 40.255 157.152 40.255C159.21 40.255 160.985 39.083 162.069 37.812H162.177V39.835H166.71V29.277C166.71 26.515 165.696 21.88 158.904 21.88ZM86.0713 25.066H85.9993V22.372H81.3613V39.835H86.1753V30.505C86.1753 30.463 86.3892 26.241 90.5592 26.241C90.9052 26.241 91.5013 26.291 92.0553 26.431V22.024C91.7173 21.94 90.9663 21.88 90.6753 21.88C88.7813 21.88 87.1633 23.435 86.0713 25.066ZM53.2173 17.491H48.4733V22.372H45.5312V26.227H48.4743V33.912C48.4743 36.605 49.1303 40.227 54.3043 40.227C55.3143 40.227 56.5912 40.023 57.3512 39.732L57.2343 35.958C56.7523 36.119 56.0113 36.318 55.1233 36.318C53.7173 36.318 53.2183 35.33 53.2183 33.878V26.228H57.4263V22.372H53.2183V17.492L53.2173 17.491ZM72.4583 31.946C72.4583 33.998 71.1233 36.206 68.6333 36.206C66.7143 36.206 65.6913 34.836 65.6913 32.016V22.373H60.8773V33.21C60.8773 36.816 62.6722 40.326 67.4772 40.326C69.7422 40.326 71.6413 38.54 72.5973 37.221H72.6693V39.835H77.2723V22.372H72.4583V31.946ZM104.109 36.206C101.204 36.206 99.4693 33.612 99.4693 31.104C99.4693 28.614 101.242 25.929 104.109 25.929C107.224 25.929 108.774 28.576 108.774 31.033C108.774 33.603 107.086 36.206 104.109 36.206ZM105.055 21.88C102.853 21.88 101.231 22.844 99.6992 24.282H99.6093V12.749H94.7962V39.835H99.4003V37.366H99.4713C100.557 39.149 102.713 40.326 104.95 40.326C109.92 40.326 113.686 36.418 113.686 31.033C113.686 25.73 109.964 21.88 105.055 21.88Z" fill="black"/>
<path fill-rule="evenodd" clip-rule="evenodd" d="M0 22.91C0 11.69 9.08 2.59698 20.28 2.59698C31.48 2.59698 40.56 11.691 40.56 22.91C40.56 34.129 31.48 43.222 20.28 43.222C9.08 43.222 0 34.13 0 22.91Z" fill="#D42D27"/>
<path fill-rule="evenodd" clip-rule="evenodd" d="M15.751 30.358C13.4249 28.676 11.1842 26.8791 9.03706 24.974C8.2481 26.7138 7.53968 28.489 6.91406 30.294C10.334 33.202 14.906 36.53 18.046 38.404C22.117 27.85 28.463 20.967 34.543 16.163C33.7666 14.5186 32.7121 13.0206 31.426 11.735C24.9182 16.7386 19.5707 23.0918 15.751 30.358Z" fill="white"/>
<path fill-rule="evenodd" clip-rule="evenodd" d="M62.2323 5.81H64.7193V12.733H66.9363V5.81H69.4223V3.842H62.2323V5.81ZM76.9173 8.734C76.9173 9.919 76.2523 11.141 74.8483 11.141C73.4253 11.141 73.1843 9.827 73.1843 8.771V3.849H70.9673V9.403C70.9673 11.217 71.9273 12.993 74.2383 12.993C75.5503 12.993 76.6033 12.198 76.9923 11.309H77.0293V12.734H79.1353V3.848H76.9173V8.734ZM81.4053 12.733H83.6233V3.848H81.4053V12.733ZM65.8283 2.684C66.1842 2.684 66.5255 2.54261 66.7772 2.29094C67.0289 2.03926 67.1703 1.69792 67.1703 1.342C67.1703 0.986079 67.0289 0.644737 66.7772 0.393063C66.5255 0.141389 66.1842 0 65.8283 0C65.6521 -1.96189e-07 65.4777 0.0347261 65.315 0.102192C65.1523 0.169659 65.0045 0.268541 64.8801 0.393184C64.7556 0.517826 64.6569 0.665783 64.5897 0.82859C64.5225 0.991397 64.488 1.16586 64.4883 1.342C64.4883 2.082 65.0883 2.684 65.8283 2.684ZM88.7713 2.684C88.9474 2.684 89.1218 2.64927 89.2845 2.58181C89.4472 2.51434 89.5951 2.41546 89.7195 2.29082C89.844 2.16617 89.9426 2.01822 90.0099 1.85541C90.0771 1.6926 90.1115 1.51814 90.1113 1.342C90.1109 1.07706 90.032 0.81818 89.8845 0.598082C89.737 0.377983 89.5276 0.206543 89.2827 0.105428C89.0378 0.00431351 88.7684 -0.0219378 88.5086 0.029992C88.2488 0.0819219 88.0103 0.209702 87.8231 0.397184C87.6359 0.584665 87.5084 0.823434 87.4569 1.08331C87.4053 1.34319 87.432 1.61252 87.5335 1.85726C87.635 2.10199 87.8067 2.31115 88.027 2.45831C88.2473 2.60546 88.5063 2.684 88.7713 2.684ZM85.1773 3.842V5.811H87.6643V12.733H89.8803V5.81H92.3673V3.842H85.1773ZM48.4453 12.732H50.6633V3.849H48.4453V12.734V12.732ZM57.8323 3.589C56.5203 3.589 55.4673 4.384 55.0783 5.273H55.0413V3.848H52.9353V12.733H55.1523V7.845C55.1523 6.661 55.8183 5.439 57.2223 5.439C58.6443 5.439 58.8853 6.755 58.8853 7.809V12.733H61.1033V7.18C61.1033 5.366 60.1423 3.589 57.8323 3.589Z" fill="black"/>
</g>
</g>
<defs>
<clipPath id="clip0_1916_2175">
<rect width="195" height="44" fill="white"/>
</clipPath>
</defs>
</svg>
