<svg width="54" height="39" viewBox="0 0 54 39" fill="none" xmlns="http://www.w3.org/2000/svg">
<g clip-path="url(#clip0_1916_1782)">
<path fill-rule="evenodd" clip-rule="evenodd" d="M0.152344 0.676176H8.30647V22.9869C8.30647 26.5177 9.89064 28.6209 11.1433 29.5225C9.81713 30.7244 5.76448 31.7761 2.74344 29.2219C0.962331 27.7163 0.152344 25.2406 0.152344 22.9117V0.676176ZM51.1124 19.2092V16.8646H53.5993V8.63901H50.8683C49.8198 3.70058 45.5073 0 40.3498 0C34.4084 0 29.5921 4.9105 29.5921 10.9676V30.1768C31.2848 30.4193 33.3013 30.1467 35.0171 28.6961C36.7979 27.1903 37.6079 24.7149 37.6079 22.386V21.6783H41.6803V13.4527H37.6079V10.9676H37.6177C37.6177 9.4294 38.8408 8.18242 40.3498 8.18242C41.8586 8.18242 43.0866 9.4294 43.0866 10.9676V19.2092C43.0866 25.2663 47.908 30.1768 53.8491 30.1768V21.9944C52.3404 21.9944 51.1124 20.7474 51.1124 19.2092ZM20.2298 8.63901V20.7109C20.2298 21.3962 19.6721 21.9518 18.9839 21.9518C18.2957 21.9518 17.738 21.3962 17.738 20.7109V8.63901H9.66956V22.8368C9.66956 25.3907 10.5192 28.6209 14.3854 29.6726C18.2558 30.7255 20.501 28.546 20.501 28.546C20.2965 29.9818 18.97 31.0336 16.8333 31.259C15.2166 31.4293 13.149 30.8834 12.1177 30.4326V37.9546C14.7457 38.7447 17.5253 39 20.2455 38.4618C25.1822 37.4853 28.2979 33.2786 28.2979 27.682V8.63901H20.2298Z" fill="#EA0B8C"/>
</g>
<defs>
<clipPath id="clip0_1916_1782">
<rect width="54" height="39" fill="white"/>
</clipPath>
</defs>
</svg>
