<svg width="143" height="44" viewBox="0 0 143 44" fill="none" xmlns="http://www.w3.org/2000/svg">
<g clip-path="url(#clip0_1916_2198)">
<path d="M88.6932 34.3742C80.3931 40.6109 68.3627 43.9384 58.0048 43.9384C43.4813 43.9384 30.4064 38.4623 20.5147 29.3544C19.7375 28.6382 20.4339 27.6621 21.3665 28.2199C32.0415 34.5517 45.2408 38.3609 58.8752 38.3609C68.0705 38.3609 78.186 36.4214 87.487 32.3967C88.8921 31.7882 90.0672 33.3347 88.6932 34.3742Z" fill="#FF9900"/>
<path d="M92.1457 30.3495C91.0888 28.9677 85.1326 29.6966 82.4592 30.0199C81.6447 30.1213 81.5204 29.3987 82.254 28.879C86.9978 25.4754 94.7818 26.4578 95.6895 27.5987C96.5972 28.7459 95.4533 36.7003 90.9955 40.4968C90.3116 41.0799 89.6588 40.7694 89.9634 39.9961C90.9644 37.4482 93.2089 31.7375 92.1457 30.3495Z" fill="#FF9900"/>
<path d="M82.6472 4.85113V1.54263C82.6472 1.04191 83.0202 0.705994 83.4679 0.705994H97.9976C98.4639 0.705994 98.837 1.04825 98.837 1.54263V4.37577C98.8307 4.85113 98.4391 5.47227 97.7427 6.45468L90.2136 17.4133C93.0114 17.3436 95.9646 17.7683 98.5012 19.226C99.0732 19.5556 99.2286 20.0373 99.2722 20.5127V24.043C99.2722 24.5247 98.7499 25.0888 98.2028 24.7973C93.7326 22.4078 87.7951 22.1479 82.8524 24.8226C82.3488 25.1015 81.8203 24.5437 81.8203 24.062V20.7092C81.8203 20.1704 81.8265 19.2514 82.355 18.4338L91.0778 5.68143H83.4865C83.0202 5.68143 82.6472 5.34551 82.6472 4.85113Z" fill="#221F1F"/>
<path d="M29.6437 25.4944H25.2232C24.8004 25.4627 24.4647 25.1395 24.4336 24.7275V1.59965C24.4336 1.13696 24.8128 0.769348 25.2854 0.769348H29.4074C29.8364 0.788351 30.1783 1.12428 30.2094 1.5426V4.5659H30.2903C31.3658 1.64401 33.3864 0.281311 36.1096 0.281311C38.8763 0.281311 40.6047 1.64401 41.8481 4.5659C42.9175 1.64401 45.3485 0.281311 47.9535 0.281311C49.8062 0.281311 51.8331 1.0609 53.0703 2.81023C54.4692 4.75604 54.1832 7.58285 54.1832 10.0611L54.177 24.6578C54.177 25.1205 53.7977 25.4944 53.3252 25.4944H48.911C48.4695 25.4627 48.1151 25.1015 48.1151 24.6578V12.3998C48.1151 11.4238 48.2022 8.98991 47.9908 8.06454C47.6613 6.5117 46.6727 6.07437 45.392 6.07437C44.3226 6.07437 43.2035 6.80325 42.7496 7.96947C42.2958 9.13569 42.3393 11.0878 42.3393 12.3998V24.6578C42.3393 25.1205 41.9601 25.4944 41.4875 25.4944H37.0733C36.6256 25.4627 36.2775 25.1015 36.2775 24.6578L36.2713 12.3998C36.2713 9.82021 36.6878 6.02366 33.5481 6.02366C30.3711 6.02366 30.4954 9.72513 30.4954 12.3998V24.6578C30.4954 25.1205 30.1162 25.4944 29.6437 25.4944Z" fill="#221F1F"/>
<path d="M111.346 0.281311C117.905 0.281311 121.455 6.02366 121.455 13.3252C121.455 20.3795 117.532 25.9761 111.346 25.9761C104.905 25.9761 101.398 20.2338 101.398 13.078C101.398 5.87789 104.949 0.281311 111.346 0.281311ZM111.383 5.00323C108.126 5.00323 107.92 9.52865 107.92 12.3491C107.92 15.1759 107.877 21.2098 111.346 21.2098C114.772 21.2098 114.933 16.3422 114.933 13.3759C114.933 11.4238 114.853 9.09132 114.274 7.24059C113.777 5.6307 112.788 5.00323 111.383 5.00323Z" fill="#221F1F"/>
<path d="M129.958 25.4944H125.556C125.115 25.4627 124.76 25.1015 124.76 24.6578L124.754 1.52359C124.791 1.09893 125.158 0.769348 125.606 0.769348H129.703C130.088 0.788351 130.405 1.05457 130.492 1.41584V4.95252H130.573C131.81 1.78979 133.545 0.281311 136.598 0.281311C138.581 0.281311 140.515 1.0102 141.758 3.00671C142.915 4.85745 142.915 7.96948 142.915 10.2068V24.7655C142.865 25.1712 142.498 25.4944 142.063 25.4944H137.63C137.226 25.4627 136.89 25.1585 136.846 24.7655V12.2034C136.846 9.67443 137.132 5.97296 134.08 5.97296C133.004 5.97296 132.016 6.70819 131.524 7.82369C130.903 9.2371 130.822 10.6442 130.822 12.2034V24.6578C130.816 25.1205 130.43 25.4944 129.958 25.4944Z" fill="#221F1F"/>
<path d="M71.0642 14.4471V13.471C67.8685 13.471 64.4926 14.1682 64.4926 18.0091C64.4926 19.9549 65.4811 21.2733 67.1784 21.2733C68.4219 21.2733 69.5348 20.4937 70.2373 19.226C71.1077 17.6669 71.0642 16.2027 71.0642 14.4471ZM75.522 25.4311C75.2298 25.6973 74.807 25.7163 74.4775 25.5388C73.0102 24.2966 72.7491 23.7198 71.9409 22.5345C69.5161 25.0571 67.8002 25.8114 64.6542 25.8114C60.9363 25.8114 58.0391 23.4726 58.0391 18.7887C58.0391 15.1316 59.9851 12.6407 62.7517 11.4238C65.1516 10.3463 68.5027 10.1562 71.0642 9.85827V9.27516C71.0642 8.20401 71.145 6.93639 70.5295 6.01102C69.9886 5.18072 68.9566 4.83847 68.0489 4.83847C66.364 4.83847 64.8594 5.71947 64.4926 7.54485C64.418 7.95049 64.1258 8.3498 63.7279 8.36881L59.4379 7.89978C59.0773 7.81739 58.6794 7.5195 58.7789 6.95541C59.7675 1.65672 64.4615 0.0595093 68.6644 0.0595093C70.8155 0.0595093 73.6257 0.642618 75.323 2.30321C77.4742 4.35043 77.269 7.08216 77.269 10.0548V17.0774C77.269 19.188 78.127 20.1134 78.9353 21.2542C79.2213 21.6599 79.2834 22.1479 78.9228 22.4522C78.0213 23.2191 76.4173 24.6451 75.5344 25.4438L75.522 25.4311Z" fill="#221F1F"/>
<path d="M13.1111 14.4471V13.471C9.91542 13.471 6.53945 14.1682 6.53945 18.0091C6.53945 19.9549 7.528 21.2733 9.22531 21.2733C10.4688 21.2733 11.5816 20.4937 12.2842 19.226C13.1546 17.6669 13.1111 16.2027 13.1111 14.4471ZM17.5689 25.4311C17.2767 25.6973 16.8539 25.7163 16.5244 25.5388C15.0571 24.2966 14.796 23.7198 13.9877 22.5345C11.563 25.0571 9.84704 25.8114 6.7011 25.8114C2.98318 25.8114 0.0859375 23.4726 0.0859375 18.7887C0.0859375 15.1316 2.03194 12.6407 4.79862 11.4238C7.19848 10.3463 10.5496 10.1562 13.1111 9.85827V9.27516C13.1111 8.20401 13.1919 6.93639 12.5764 6.01102C12.0355 5.18072 11.0034 4.83847 10.0957 4.83847C8.41085 4.83847 6.90627 5.71947 6.53945 7.54485C6.46484 7.95049 6.17263 8.3498 5.77473 8.36881L1.48482 7.89978C1.12422 7.81739 0.726314 7.5195 0.82579 6.95541C1.81434 1.65672 6.50837 0.0595093 10.7112 0.0595093C12.8624 0.0595093 15.6726 0.642618 17.3699 2.30321C19.5211 4.35043 19.3159 7.08216 19.3159 10.0548V17.0774C19.3159 19.188 20.1739 20.1134 20.9822 21.2542C21.2681 21.6599 21.3303 22.1479 20.9697 22.4522C20.0682 23.2191 18.4642 24.6451 17.5813 25.4438L17.5689 25.4311Z" fill="#221F1F"/>
</g>
<defs>
<clipPath id="clip0_1916_2198">
<rect width="143" height="44" fill="white"/>
</clipPath>
</defs>
</svg>
