<svg width="124" height="33" viewBox="0 0 124 33" fill="none" xmlns="http://www.w3.org/2000/svg">
<g clip-path="url(#clip0_1916_2207)">
<path d="M17.0504 30.8729C15.185 31.1955 13.2869 31.2922 11.3234 31.5497L5.3343 14.2764V32.2911C3.46897 32.4844 1.76724 32.7422 0 33V0H4.97453L11.7815 18.7239V0H17.0504V30.8729ZM27.3592 12.085C29.3884 12.085 32.4973 11.9883 34.3627 11.9883V17.1444C32.039 17.1444 29.3229 17.1444 27.3592 17.2411V24.9112C30.4356 24.7179 33.5118 24.4598 36.6207 24.3631V29.3257L22.1229 30.4539V0H36.6207V5.15626H27.3592V12.085ZM56.0928 5.15638H50.6603V28.8751C48.8931 28.8751 47.1258 28.8751 45.4243 28.9394V5.15638H39.9918V0H56.093L56.0928 5.15638ZM64.6016 11.7306H71.7688V16.8867H64.6016V28.5851H59.4632V0H74.0923V5.15626H64.6016V11.7306ZM82.6011 24.0732C85.5793 24.1375 88.5899 24.3635 91.5027 24.5243V29.6162C86.8229 29.326 82.143 29.0363 77.365 28.9394V0H82.6011V24.0732ZM95.9207 29.9707C97.5897 30.0675 99.3569 30.1642 101.059 30.3573V0H95.9207V29.9707ZM124 0L117.356 15.6944L124 33C122.036 32.7422 120.073 32.3877 118.109 32.0654L114.346 22.5265L110.517 31.2922C108.619 30.9696 106.786 30.8729 104.888 30.6151L111.63 15.5008L105.542 0H111.171L114.607 8.66897L118.273 0L124 0Z" fill="#D81F26"/>
</g>
<defs>
<clipPath id="clip0_1916_2207">
<rect width="124" height="33" fill="white"/>
</clipPath>
</defs>
</svg>
