<svg width="146" height="32" viewBox="0 0 146 32" fill="none" xmlns="http://www.w3.org/2000/svg">
<g clip-path="url(#clip0_1916_1776)">
<path fill-rule="evenodd" clip-rule="evenodd" d="M36.2891 8.70868H42.7126V26.7606H48.0505V8.70868H54.4748V4.13889H36.2891V8.70868ZM49.5891 26.7606H55.1986L56.7971 22.1916H63.3405L64.8798 26.7606H70.3991L62.6175 4.13967H56.7815L49.5891 26.7606ZM61.7996 18.0802H57.9037L59.8618 12.6357L61.7996 18.0802ZM70.852 26.7606H76.0086V18.6172H79.7192C80.5021 18.6172 81.4111 18.4747 81.8757 19.1113C82.3403 19.7479 82.2967 20.8561 82.2804 22.0017C82.2625 23.1473 82.2679 24.3286 82.5279 25.1715C82.7862 26.0143 83.2516 26.7606 83.9263 26.7606H88.5849C88.0499 26.1982 87.6707 25.5062 87.4844 24.7528C87.3008 23.9948 87.3264 23.1691 87.3599 22.2539C87.3934 21.3394 87.4331 20.3363 87.3264 19.5137C87.2214 18.6895 86.9724 18.0467 86.5646 17.5378C86.1518 17.0283 85.5967 16.6533 84.97 16.4607C85.9536 15.7548 86.7786 14.8155 87.2805 13.8193C87.7809 12.824 87.9568 11.7726 88.0238 10.7313C88.0907 9.69003 88.0463 8.65965 87.7179 7.68064C87.3879 6.70162 86.7739 5.77318 85.9474 5.13659C85.1124 4.49591 84.0908 4.14581 83.0384 4.13967H70.8512L70.852 26.7606ZM81.9979 9.14528C82.6181 9.5554 82.9964 10.308 82.987 11.0698C82.9776 11.459 82.8771 11.8405 82.6934 12.1837C82.5097 12.5269 82.248 12.8222 81.9294 13.0458C81.2819 13.4909 80.4126 13.396 79.604 13.396H76.0047V8.92581H79.8017C80.5597 8.92581 81.3761 8.73515 81.9979 9.14528ZM90.725 8.14291C89.9499 9.28847 89.3787 10.6333 89.0681 12.3532C88.7584 14.0731 88.7078 16.1688 88.9872 17.9977C89.265 19.8273 89.8736 21.3892 90.6122 22.6002C91.3507 23.8111 92.22 24.6695 93.1671 25.4026C94.1142 26.1357 95.1352 26.7427 96.2878 27.0836C97.4495 27.4194 98.6695 27.5033 99.8661 27.3295C101.017 27.1583 102.038 26.7404 102.834 26.3785C103.629 26.0158 104.199 25.7092 104.734 25.3497L105.64 26.7598H108.989L108.981 14.0769H99.3899V18.502H103.887C104.062 19.2654 103.957 20.1013 103.57 20.797C103.182 21.492 102.511 22.0468 101.559 22.4391C100.607 22.8305 99.3759 23.0585 98.1766 22.6951C96.9789 22.3317 95.8147 21.3768 95.0473 20.2834C94.2815 19.1915 93.9119 17.9603 93.7492 16.5976C93.5881 15.2357 93.634 13.7415 93.9601 12.4388C94.2862 11.136 94.8932 10.0231 95.6551 9.22154C96.4178 8.41996 97.3361 7.93045 98.4926 7.7211C99.649 7.51176 101.043 7.58413 101.972 8.10244C102.902 8.62074 103.367 9.5842 103.635 10.1967C103.903 10.8091 103.974 11.0698 103.983 11.3376H108.801C108.729 10.3367 108.445 9.35851 107.871 8.24096C107.295 7.12342 106.431 5.86813 105.203 4.98328C103.975 4.09843 102.384 3.58557 100.909 3.39101C99.5519 3.20547 98.1713 3.2968 96.8505 3.6595C95.6287 3.99803 94.5415 4.55136 93.5095 5.30002C92.4776 6.05101 91.4993 6.99735 90.725 8.14291ZM126.813 26.7606V22.1916H116.182V16.9432L125.318 16.9245L125.32 12.7812H116.182V8.70946H126.813V4.13967L110.863 4.14278L110.889 26.7606H126.813ZM127.582 8.70868H134.007V26.7606H139.345V8.70868H145.769V4.13889H127.582V8.70868ZM141.92 25.7458H142.214V25.689C142.171 25.6898 142.112 25.6758 142.086 25.6189L141.863 25.2485C142.075 25.1808 142.161 24.9076 141.941 24.7621C141.845 24.7107 141.762 24.703 141.639 24.6998H141.097V24.7504C141.158 24.7356 141.267 24.7808 141.244 24.8594C141.239 25.1216 141.257 25.3676 141.232 25.6462C141.186 25.7053 141.163 25.6828 141.102 25.689V25.7458H141.633V25.689C141.576 25.703 141.463 25.6594 141.486 25.58V25.2485H141.633L141.92 25.7458ZM141.485 25.1964V24.7691C141.615 24.7629 141.815 24.7886 141.815 24.9419C141.826 25.0034 141.815 25.1808 141.664 25.1925C141.61 25.201 141.544 25.1956 141.485 25.1964ZM141.613 26.2182C141.8 26.2182 142.002 26.166 142.195 26.0283C142.669 25.6361 142.739 25.1466 142.42 24.6446C142.026 24.166 141.535 24.0952 141.026 24.4181C140.549 24.8096 140.479 25.2991 140.8 25.8018C141.028 26.1053 141.326 26.2151 141.613 26.2182ZM141.613 26.1092C141.449 26.1092 141.268 26.0625 141.096 25.9403C140.672 25.5901 140.608 25.1551 140.895 24.7022C141.243 24.2796 141.681 24.2181 142.13 24.5037C142.554 24.8524 142.618 25.2905 142.332 25.738C142.13 26.0081 141.864 26.1069 141.613 26.1092Z" fill="black"/>
<path fill-rule="evenodd" clip-rule="evenodd" d="M18.3669 11.4356C17.5685 10.9749 16.6463 10.7274 15.724 10.7274C14.8018 10.7274 13.8796 10.9749 13.0812 11.4356C12.2783 11.901 11.6111 12.5682 11.1457 13.3711C10.6834 14.1753 10.4393 15.0863 10.4375 16.014C10.4375 16.9369 10.685 17.8592 11.1457 18.6576C11.6072 19.4561 12.2819 20.1316 13.0812 20.5923C13.8804 21.053 14.8018 21.3005 15.724 21.3005C16.6463 21.3005 17.5685 21.0538 18.3669 20.5923C19.1654 20.1308 19.8409 19.4561 20.3024 18.6576C20.7648 17.8532 21.009 16.9418 21.0106 16.014C21.0106 15.0918 20.7639 14.1696 20.3024 13.3711C19.837 12.5682 19.1698 11.901 18.3669 11.4356Z" fill="#CA3432"/>
<path fill-rule="evenodd" clip-rule="evenodd" d="M29.13 8.26901C27.7766 5.92419 25.7945 3.94202 23.4504 2.58867C21.1064 1.23532 18.3981 0.51001 15.6906 0.51001C12.9832 0.51001 10.2765 1.23532 7.93165 2.58867C5.57526 3.95437 3.61702 5.91261 2.25132 8.26901C0.89719 10.6138 0.171875 13.3213 0.171875 16.0288C0.171875 18.7363 0.89719 21.4437 2.25132 23.7886C3.61656 26.1453 5.5749 28.1036 7.93165 29.4689C10.2922 30.8272 12.9672 31.5441 15.6906 31.5483C18.3981 31.5483 21.1056 30.823 23.4504 29.4689C25.7952 28.1155 27.7766 26.1334 29.13 23.7886C30.4833 21.4437 31.2086 18.7363 31.2086 16.0288C31.2086 13.3213 30.4833 10.613 29.13 8.26901ZM24.5828 21.1605C23.6827 22.7142 22.3916 24.0053 20.8379 24.9053C19.2812 25.8004 17.5175 26.2728 15.7218 26.2758C13.9373 26.2758 12.1528 25.798 10.6064 24.9053C9.06087 24.0127 7.75421 22.706 6.86158 21.1605C5.96894 19.6149 5.49111 17.8296 5.49111 16.0451C5.49111 14.2599 5.96894 12.4746 6.86158 10.929C7.75421 9.38344 9.06087 8.076 10.6064 7.18414C12.1628 6.28886 13.9263 5.81638 15.7218 5.81367C17.507 5.81367 19.2915 6.29151 20.8379 7.18414C22.3915 8.0844 23.6825 9.37543 24.5828 10.929C25.4784 12.4855 25.9511 14.2493 25.954 16.0451C25.9507 17.8406 25.4779 19.604 24.5828 21.1605Z" fill="#CA3432"/>
</g>
<defs>
<clipPath id="clip0_1916_1776">
<rect width="146" height="32" fill="white"/>
</clipPath>
</defs>
</svg>
