<svg width="163" height="21" viewBox="0 0 163 21" fill="none" xmlns="http://www.w3.org/2000/svg">
<g clip-path="url(#clip0_1916_1784)">
<path fill-rule="evenodd" clip-rule="evenodd" d="M35.7364 3.25469C30.4593 3.25469 27.1396 7.02076 27.1396 12.2857C27.1396 17.3614 30.8064 20.776 35.7364 20.776C40.0985 20.776 43.5097 18.224 43.9836 13.7871H38.7716C38.5171 15.5438 37.5685 16.6271 35.7045 16.6271C33.4283 16.6271 32.5129 14.4265 32.5129 12.2857C32.5129 9.99023 32.9869 7.40302 35.989 7.40302C37.3466 7.40302 38.5797 8.39641 38.6134 9.7991H43.8242C43.4477 5.42568 39.814 3.25469 35.7364 3.25469ZM93.314 3.25406C90.9882 3.25406 89.3529 4.33359 88.3749 6.07075H88.3086V3.73378H83.0972V20.2982H88.4681V11.6972C88.4681 9.27914 89.5001 7.71927 91.3745 7.7199C94.1621 7.7199 94.0621 10.0198 94.0621 12.2845V20.2982H99.4348V9.66832C99.4348 7.27414 98.7818 3.25406 93.314 3.25406ZM108.996 3.25406C107.13 3.25406 105.234 3.57471 103.78 4.40589C102.327 5.26473 101.315 6.67056 101.221 8.84029H106.246C106.499 7.43635 107.447 6.76801 108.932 6.76801C110.039 6.76801 111.522 7.24207 111.522 8.48695C111.522 9.51177 111.017 9.82802 110.101 10.021C106.372 10.7849 100.558 10.3719 100.558 15.7632C100.558 19.1803 103.023 20.7748 106.149 20.7748C108.111 20.7748 110.166 20.2007 111.555 18.7339C111.619 19.2765 111.681 19.7852 111.87 20.2982H117.276C116.644 18.9898 116.644 17.4563 116.644 16.0511V8.80571C116.644 4.1173 112.88 3.25406 108.995 3.25406H108.996ZM111.461 12.5416C111.587 15.9581 110.731 17.4237 108.173 17.4237C106.972 17.4237 105.93 16.8798 105.93 15.5431C105.93 14.2322 106.943 13.7211 108.143 13.435C109.314 13.1163 110.703 13.0226 111.46 12.5422L111.461 12.5416ZM118.398 0.0419035V20.2994H123.769V0.0412748L118.398 0.0419035ZM136.557 0.0419035V5.52251H136.491C135.386 4.02237 133.837 3.25595 131.814 3.25595C127.168 3.25595 124.894 7.34078 124.894 11.6488C124.894 16.3083 127.075 20.776 132.225 20.776C134.121 20.776 135.702 19.9467 136.745 18.3825H136.806V20.2988H141.928V0.0419035H136.557ZM133.552 7.40428C135.891 7.40428 136.745 9.60797 136.745 12.0003C136.745 14.1052 136.176 16.6271 133.552 16.6271C131.087 16.6271 130.267 14.1059 130.267 11.8406C130.267 9.7356 131.087 7.40428 133.552 7.40428ZM143.049 0.0419035V5.52125H145.563L148.074 0.0419035H143.049ZM45.107 0.0419035V20.2994H53.732C59.827 20.2994 63.5631 16.7239 63.5631 10.0877C63.5631 3.81489 59.8822 0.0419035 53.732 0.0419035H45.107ZM50.8316 4.73848H53.2451C56.3668 4.73848 57.7661 6.84597 57.7661 10.072C57.7661 13.6205 56.6379 15.6048 53.2451 15.6048H50.8316V4.73848ZM4.52669 0.0136108L0.382812 20.2988H6.29939L7.82437 12.243C7.98752 11.3529 8.12636 10.4582 8.24072 9.56018H8.3002C8.39341 10.121 8.63439 11.2313 8.87659 12.1788L11.0264 20.2988H16.9068L19.0529 12.1788C19.2976 11.2313 19.5374 10.121 19.6293 9.56018H19.6925C19.7446 9.99086 19.9096 11.2056 20.1076 12.243L21.6326 20.2988H27.5479L23.4047 0.0136108H17.1343L14.6221 10.2021C14.4118 10.9918 14.1524 12.2706 13.9954 12.9377H13.9366C13.7771 12.2706 13.5196 10.9918 13.3099 10.2021L10.7965 0.0136108L4.52669 0.0136108ZM73.3145 3.25469C68.0191 3.25469 64.6834 7.05408 64.6834 12.0304C64.6834 17.0081 68.0179 20.8062 73.3133 20.8062C78.6093 20.8062 81.942 17.0087 81.942 12.0304C81.942 7.05408 78.61 3.25469 73.3145 3.25469ZM73.3133 7.40302C75.6354 7.40302 76.5675 9.37911 76.5675 12.0304C76.5675 14.6843 75.636 16.6579 73.3139 16.6579C70.99 16.6579 70.0579 14.6843 70.0579 12.0304C70.0579 9.37848 70.9894 7.40302 73.3133 7.40302ZM154.463 3.25281C151.284 3.25281 146.933 4.33736 146.933 8.32788C146.933 12.7962 151.252 12.8899 154.59 13.7525C155.524 13.9776 157.179 14.231 157.178 15.5086C157.178 16.8188 155.711 17.2652 154.682 17.2652C153.933 17.2652 153.287 17.0735 152.789 16.6899C152.258 16.2737 151.916 15.6657 151.916 14.8383H146.791C146.948 19.4683 150.878 20.7748 154.714 20.7748C158.364 20.7748 162.62 19.3061 162.62 14.871C162.62 13.4985 161.78 11.0723 158.504 10.4002C156.071 9.86071 152.376 9.57402 152.376 8.00975C152.376 6.85918 153.78 6.76361 154.652 6.76361C155.308 6.76361 155.829 6.89187 156.266 7.17857C156.702 7.46653 156.953 7.91229 156.953 8.61458H161.919C161.733 4.30655 158.02 3.25281 154.463 3.25281Z" fill="black"/>
</g>
<defs>
<clipPath id="clip0_1916_1784">
<rect width="163" height="21" fill="white"/>
</clipPath>
</defs>
</svg>
