<svg width="124" height="42" viewBox="0 0 124 42" fill="none" xmlns="http://www.w3.org/2000/svg">
<g clip-path="url(#clip0_1916_1786)">
<path d="M123.921 9.99926C122.235 0.122246 93.1461 -2.96007 58.9464 3.11446C44.5837 5.66688 31.6149 9.43157 21.5154 13.6669C23.0668 13.7016 24.2174 14.0645 24.9165 14.7758C25.463 15.3341 25.7391 16.1003 25.7391 17.0548V18.0346H22.3856V17.1695C22.3856 16.4487 21.9619 16.002 21.2116 16.002C20.581 16.002 20.1925 16.2924 20.0672 16.8645C20.0251 17.0907 20.0298 17.3233 20.0807 17.5475C20.4396 19.044 25.4192 19.9733 25.9608 22.7349C26.0318 23.0903 26.1282 23.8508 25.9763 24.9389C25.6656 27.1662 23.7474 28.0256 21.3054 28.0256C17.8969 28.0256 16.5123 26.3786 16.5123 24.1078L16.5148 23.0336H20.1098L20.1116 24.3718C20.1116 25.1242 20.6477 25.5394 21.3777 25.5394C22.0694 25.5394 22.4733 25.2552 22.6129 24.6743C22.6777 24.4071 22.7061 24.0133 22.5882 23.7122C21.923 22.0097 17.2732 21.2146 16.7007 18.4618C16.5728 17.843 16.5623 17.3163 16.6686 16.6503C16.7231 16.3202 16.8233 15.9996 16.9662 15.6983C5.76375 21.0432 -0.789514 26.9243 0.0763487 32.002C1.76423 41.8803 30.8528 44.9595 65.0519 38.8849C80.0853 36.2153 93.6006 32.2188 103.887 27.7402C103.738 27.7478 103.593 27.7642 103.439 27.7642C101.098 27.7642 99.0083 26.8695 98.7915 24.4286C98.7532 23.9844 98.7464 23.7985 98.7452 23.5452L98.7464 17.9338C98.7464 17.6918 98.7742 17.2671 98.8007 17.0479C99.078 14.6889 100.906 13.7161 103.44 13.7161C105.401 13.7161 107.805 14.2901 108.07 17.0498C108.105 17.3963 108.101 17.7662 108.1 17.8878V18.4177H104.714V17.6269C104.714 17.6099 104.709 17.3144 104.672 17.1298C104.616 16.8481 104.381 16.1954 103.416 16.1954C102.463 16.1954 102.216 16.8494 102.154 17.1304C102.119 17.2848 102.102 17.5066 102.102 17.7523V23.8508C102.099 24.0625 102.11 24.2282 102.131 24.3498C102.147 24.4456 102.319 25.2861 103.428 25.2861C104.529 25.2861 104.699 24.4456 104.715 24.3498C104.744 24.1847 104.748 23.9881 104.746 23.8508V21.9612H103.414V19.9261H108.126V23.5464C108.125 23.7928 108.121 23.9749 108.081 24.4286C108.024 25.0687 107.826 25.6106 107.516 26.0737C118.425 20.7893 124.776 15.0033 123.921 9.99926ZM35.2426 27.5046L33.5269 15.6113H33.4652L31.7057 27.5046H28.0897L30.5217 14.0733H36.4216L38.8388 27.5046H35.2426ZM52.6352 27.5046L52.5555 15.8413H52.4975L50.3699 27.5046H46.9762L44.8591 15.8413H44.7986L44.7214 27.5046H41.3586L41.6501 14.0733H47.059L48.6338 24.0505H48.711L50.2902 14.0733H55.6966L55.9869 27.5046H52.6352ZM68.4709 24.9017C68.1089 27.5033 65.6108 27.9582 63.8451 27.9582C60.9134 27.9582 59.1001 26.6798 59.1001 24.0782L59.102 23.0172H62.6538L62.6562 24.3391C62.6562 25.0567 63.1522 25.4959 63.918 25.4959C64.601 25.4959 65.0012 25.2161 65.1402 24.6415C65.2044 24.3737 65.231 23.9831 65.1173 23.6882C64.4627 22.0179 59.8493 21.1994 59.2885 18.4895C59.1601 17.8752 59.1508 17.3535 59.2564 16.6944C59.6467 14.2378 61.9577 13.7274 63.8179 13.7274C65.4817 13.7274 66.6928 14.0979 67.4191 14.8388C67.9607 15.3921 68.2349 16.1513 68.2349 17.0958V18.0648H64.9135V17.2098C64.9135 16.4777 64.4682 16.0543 63.7525 16.0543C63.1176 16.0543 62.7334 16.3422 62.6074 16.9086C62.5666 17.1325 62.572 17.3625 62.6235 17.5841C62.9792 19.0736 67.915 19.984 68.4554 22.7198C68.5252 23.0689 68.6209 23.818 68.4709 24.9017ZM80.772 23.6813C80.777 23.9333 80.7529 24.4367 80.7393 24.5659C80.5367 26.7787 78.9853 27.9034 76.1401 27.9034C73.2837 27.9034 71.7311 26.7787 71.5298 24.5659C71.507 24.2725 71.496 23.9782 71.4971 23.6838V14.0702H74.895V23.9869C74.8913 24.2087 74.9025 24.3725 74.9241 24.4865C74.9661 24.707 75.181 25.4228 76.1401 25.4228C77.0961 25.4228 77.3111 24.7064 77.3561 24.489C77.3753 24.3718 77.387 24.1998 77.387 23.9862V14.0702H80.772V23.6813ZM95.412 27.3678H90.6838L87.5099 16.7291H87.4568L87.6329 27.3678H84.3374V14.0733H89.2639L92.1975 24.2931H92.266L92.0925 14.0733H95.412V27.3678Z" fill="#2D4F9E"/>
</g>
<defs>
<clipPath id="clip0_1916_1786">
<rect width="124" height="42" fill="white"/>
</clipPath>
</defs>
</svg>
