<svg width="600" height="265" viewBox="0 0 600 265" fill="none" xmlns="http://www.w3.org/2000/svg">
<g filter="url(#filter0_d_2454_4774)">
<path d="M39.0938 92.7342V103.038C39.0938 120.627 53.3526 134.886 70.9418 134.886V134.886C88.5311 134.886 102.79 120.627 102.79 103.038V59.0127C102.79 41.4235 117.049 27.1646 134.638 27.1646H150.562C168.151 27.1646 182.41 41.4235 182.41 59.0127V190.152C182.41 207.741 196.669 222 214.258 222H274.208C291.797 222 306.056 207.741 306.056 190.152V148.468C306.056 136.311 315.911 126.456 328.068 126.456V126.456C340.226 126.456 350.081 116.6 350.081 104.443V101.165C350.081 87.1967 361.404 75.8734 375.372 75.8734H409.094C426.683 75.8734 440.942 90.1323 440.942 107.722V134.886C440.942 152.475 455.201 166.734 472.79 166.734H531.803C549.392 166.734 563.651 152.475 563.651 134.886V83.3671" stroke="url(#paint0_linear_2454_4774)" stroke-width="14.0506" shape-rendering="crispEdges"/>
</g>
<path d="M39.0938 92.7342V103.038C39.0938 120.627 53.3526 134.886 70.9418 134.886V134.886C88.5311 134.886 102.79 120.627 102.79 103.038V59.0127C102.79 41.4235 117.049 27.1646 134.638 27.1646H150.562C168.151 27.1646 182.41 41.4235 182.41 59.0127V190.152C182.41 207.741 196.669 222 214.258 222H274.208C291.797 222 306.056 207.741 306.056 190.152V148.468C306.056 136.311 315.911 126.456 328.068 126.456V126.456C340.226 126.456 350.081 116.6 350.081 104.443V101.165C350.081 87.1967 361.404 75.8734 375.372 75.8734H409.094C426.683 75.8734 440.942 90.1323 440.942 107.722V134.886C440.942 152.475 455.201 166.734 472.79 166.734H531.803C549.392 166.734 563.651 152.475 563.651 134.886V83.3671" stroke="white" stroke-width="0.936709" stroke-dasharray="6.56 6.56"/>
<circle cx="36.2911" cy="74.9368" r="25.2911" fill="#8941FF"/>
<circle cx="36.2911" cy="74.9368" r="30.7911" stroke="#7622FF" stroke-opacity="0.25" stroke-width="11"/>
<circle cx="563.658" cy="74.9368" r="25.2911" fill="#8941FF"/>
<circle cx="563.658" cy="74.9368" r="30.7911" stroke="#7622FF" stroke-opacity="0.25" stroke-width="11"/>
<g clip-path="url(#clip0_2454_4774)">
<path d="M141.674 3.05176e-05C135.12 3.05176e-05 129.789 4.82174 129.789 10.7527C129.789 17.2608 138.052 24.6632 140.587 26.7684C140.891 27.0246 141.276 27.1651 141.674 27.1651C142.071 27.1651 142.456 27.0246 142.76 26.7684C145.295 24.6519 153.558 17.2608 153.558 10.7527C153.558 4.82174 148.227 3.05176e-05 141.674 3.05176e-05Z" fill="white"/>
</g>
<g clip-path="url(#clip1_2454_4774)">
<path d="M271.869 194.835C265.315 194.835 259.984 199.657 259.984 205.588C259.984 212.096 268.247 219.499 270.782 221.604C271.086 221.86 271.471 222.001 271.869 222.001C272.267 222.001 272.651 221.86 272.955 221.604C275.491 219.487 283.753 212.096 283.753 205.588C283.753 199.657 278.422 194.835 271.869 194.835Z" fill="white"/>
</g>
<g clip-path="url(#clip2_2454_4774)">
<path d="M382.408 49.6456C375.854 49.6456 370.523 54.4673 370.523 60.3982C370.523 66.9064 378.786 74.3088 381.321 76.414C381.625 76.6702 382.01 76.8107 382.408 76.8107C382.806 76.8107 383.19 76.6702 383.495 76.414C386.03 74.2974 394.292 66.9064 394.292 60.3982C394.292 54.4673 388.961 49.6456 382.408 49.6456Z" fill="white"/>
</g>
<g clip-path="url(#clip3_2454_4774)">
<path d="M524.783 140.506C518.229 140.506 512.898 145.328 512.898 151.259C512.898 157.767 521.161 165.169 523.696 167.275C524 167.531 524.385 167.671 524.783 167.671C525.181 167.671 525.565 167.531 525.87 167.275C528.405 165.158 536.667 157.767 536.667 151.259C536.667 145.328 531.336 140.506 524.783 140.506Z" fill="white"/>
</g>
<defs>
<filter id="filter0_d_2454_4774" x="9.5893" y="10.7722" width="583.571" height="253.848" filterUnits="userSpaceOnUse" color-interpolation-filters="sRGB">
<feFlood flood-opacity="0" result="BackgroundImageFix"/>
<feColorMatrix in="SourceAlpha" type="matrix" values="0 0 0 0 0 0 0 0 0 0 0 0 0 0 0 0 0 0 127 0" result="hardAlpha"/>
<feOffset dy="13.1139"/>
<feGaussianBlur stdDeviation="11.2405"/>
<feComposite in2="hardAlpha" operator="out"/>
<feColorMatrix type="matrix" values="0 0 0 0 0 0 0 0 0 0 0 0 0 0 0 0 0 0 0.25 0"/>
<feBlend mode="normal" in2="BackgroundImageFix" result="effect1_dropShadow_2454_4774"/>
<feBlend mode="normal" in="SourceGraphic" in2="effect1_dropShadow_2454_4774" result="shape"/>
</filter>
<linearGradient id="paint0_linear_2454_4774" x1="602.056" y1="75.8734" x2="10.9925" y2="195.772" gradientUnits="userSpaceOnUse">
<stop stop-color="#7622FF"/>
<stop offset="1" stop-color="#7622FF" stop-opacity="0"/>
</linearGradient>
<clipPath id="clip0_2454_4774">
<rect width="27.1646" height="27.1646" fill="white" transform="translate(128.094 3.05176e-05)"/>
</clipPath>
<clipPath id="clip1_2454_4774">
<rect width="27.1646" height="27.1646" fill="white" transform="translate(258.289 194.835)"/>
</clipPath>
<clipPath id="clip2_2454_4774">
<rect width="27.1646" height="27.1646" fill="white" transform="translate(368.828 49.6456)"/>
</clipPath>
<clipPath id="clip3_2454_4774">
<rect width="27.1646" height="27.1646" fill="white" transform="translate(511.203 140.506)"/>
</clipPath>
</defs>
</svg>
