<svg width="557" height="399" viewBox="0 0 557 399" fill="none" xmlns="http://www.w3.org/2000/svg">
<g clip-path="url(#clip0_2459_2288)">
<path d="M77.8623 354.84C49.0788 314.931 26.385 270.639 10.8061 223.964C-0.0760296 191.363 -6.90886 153.472 11.1726 124.244C25.235 101.514 51.89 89.1353 78.3421 85.3039C104.794 81.4725 131.675 84.9349 158.321 87.0282C184.967 89.1215 212.5 89.7235 237.607 80.5568C255.567 73.9986 271.391 62.7562 288.53 54.2835C305.671 45.8108 325.534 40.0863 343.844 45.5967C365.527 52.1222 380.008 72.996 387.272 94.4441C394.535 115.891 396.286 138.815 402.319 160.64C408.353 182.465 420.006 204.437 440.268 214.546C457.314 223.049 477.918 221.911 494.992 230.359C514.712 240.117 526.62 261.476 530.554 283.125C534.489 304.773 531.627 333.026 528.76 354.842H77.8623V354.84Z" fill="#05374A"/>
<path d="M48.4496 352.288H549.031C549.982 352.288 550.754 353.059 550.754 354.011C550.754 354.962 549.983 355.734 549.031 355.734H48.4496C47.4986 355.734 46.7266 354.963 46.7266 354.011C46.7266 353.06 47.4974 352.288 48.4496 352.288Z" fill="#180C45"/>
<path d="M529.13 303.709C529.13 303.709 534.959 296.203 536.274 290.89C537.589 285.576 535.981 280.592 532.529 280.865C529.078 281.138 524.302 288.756 529.128 303.709H529.13Z" fill="#61C7AA"/>
<path d="M520.409 316.095C520.409 316.095 525.089 305.982 524.489 299.861C523.888 293.74 522.398 289.727 517.996 289.848C513.595 289.969 509.138 295.163 520.408 316.095H520.409Z" fill="#61C7AA"/>
<path d="M510.396 329.56C510.396 329.56 513.286 318.798 511.652 312.868C510.017 306.938 507.866 303.238 503.55 304.107C499.233 304.976 495.727 310.853 510.398 329.559L510.396 329.56Z" fill="#61C7AA"/>
<path d="M507.312 343.144C507.312 343.144 516.77 334.219 526.026 331.269C535.282 328.32 537.345 332.879 537.238 336.474C537.131 340.067 527.982 344.115 507.312 343.144Z" fill="#61C7AA"/>
<path d="M538.007 315.484C540.198 315.236 542.761 315.337 544.126 317.067C545.528 318.845 544.879 321.619 543.268 323.211C541.657 324.802 539.366 325.469 537.151 325.937C534.234 326.552 517.899 329.231 518.726 324.544C519.226 321.707 524.555 319.63 526.79 318.61C530.336 316.993 534.133 315.922 538.007 315.484Z" fill="#61C7AA"/>
<path d="M543.793 278.566C544.887 276.526 546.185 274.493 548.131 273.236C550.077 271.979 552.82 271.698 554.638 273.133C556.707 274.764 556.834 278.007 555.641 280.356C554.448 282.705 552.269 284.369 550.162 285.948C546.997 288.321 542.401 293.289 538.703 294.176C537.91 289.731 541.618 282.378 543.793 278.566Z" fill="#61C7AA"/>
<path d="M539.848 297.713C541.789 296.449 543.904 295.291 546.214 295.124C548.524 294.956 551.064 296.028 551.97 298.161C553 300.585 551.551 303.49 549.378 304.977C547.204 306.463 544.493 306.875 541.885 307.249C537.969 307.81 531.552 309.957 527.883 308.958C529.322 304.679 536.107 300.013 539.848 297.716V297.713Z" fill="#61C7AA"/>
<path d="M500.581 353.21C500.535 353.085 500.534 352.942 500.589 352.808C513.566 321.543 544.044 286.438 544.351 286.088C544.55 285.86 544.896 285.836 545.123 286.035C545.351 286.234 545.376 286.581 545.175 286.807C544.871 287.158 514.507 322.132 501.599 353.229C501.483 353.508 501.163 353.641 500.884 353.525C500.738 353.464 500.632 353.348 500.58 353.211L500.581 353.21Z" fill="#3C549E"/>
<path d="M527.093 308.417C527.083 308.39 527.076 308.361 527.069 308.334C527.01 308.038 527.202 307.748 527.496 307.688C527.563 307.674 534.252 306.29 540.627 302.782C540.891 302.636 541.225 302.733 541.371 302.998C541.506 303.259 541.42 303.595 541.154 303.743C534.629 307.331 527.782 308.748 527.716 308.762C527.448 308.816 527.187 308.665 527.093 308.418V308.417Z" fill="#3C549E"/>
<path d="M525.277 310.927C525.219 310.772 525.232 310.592 525.329 310.441C525.39 310.344 531.544 300.536 530.936 289.661C530.92 289.359 531.15 289.101 531.452 289.085C531.755 289.068 532.013 289.296 532.029 289.601C532.658 300.837 526.513 310.62 526.252 311.032C526.089 311.286 525.752 311.362 525.496 311.199C525.393 311.132 525.319 311.038 525.278 310.929L525.277 310.927Z" fill="#3C549E"/>
<path d="M514.968 326.216V326.214C514.862 325.93 515.007 325.615 515.292 325.511C515.383 325.477 524.483 322.139 530.979 321.232C531.278 321.191 531.551 321.399 531.597 321.698C531.639 321.998 531.43 322.274 531.131 322.317C524.75 323.207 515.762 326.505 515.672 326.537C515.389 326.642 515.075 326.498 514.969 326.215L514.968 326.216Z" fill="#3C549E"/>
<path d="M519.344 319.485C519.305 319.381 519.297 319.264 519.33 319.148C519.35 319.073 521.357 311.59 518.53 302.042C518.445 301.753 518.611 301.448 518.901 301.362C519.19 301.277 519.499 301.429 519.581 301.733C522.5 311.597 520.473 319.125 520.384 319.441C520.304 319.732 520.001 319.902 519.711 319.822C519.535 319.773 519.403 319.644 519.344 319.485Z" fill="#3C549E"/>
<path d="M504.648 344.357C504.548 344.09 504.67 343.789 504.932 343.668C505.412 343.449 516.755 338.27 523.3 336.812C523.595 336.747 523.883 336.941 523.952 337.228C524.018 337.523 523.833 337.815 523.537 337.88C517.107 339.314 505.504 344.61 505.388 344.663C505.114 344.789 504.789 344.668 504.662 344.393C504.655 344.381 504.652 344.368 504.647 344.356L504.648 344.357Z" fill="#3C549E"/>
<path d="M509.201 335.83C509.154 335.702 509.154 335.557 509.21 335.423C509.235 335.364 511.714 329.333 507.777 318.793C507.671 318.509 507.815 318.194 508.098 318.089C508.382 317.983 508.696 318.126 508.802 318.41C512.909 329.405 510.326 335.6 510.215 335.858C510.094 336.135 509.775 336.262 509.496 336.142C509.354 336.082 509.251 335.966 509.201 335.831V335.83Z" fill="#3C549E"/>
<path d="M115.727 314.688C115.727 314.688 118.21 307.818 121.124 304.783C124.037 301.748 127.935 300.745 129.174 303.1C130.414 305.456 127.425 311.685 115.728 314.688H115.727Z" fill="#61C7AA"/>
<path d="M111.262 325.441C111.262 325.441 115.911 318.248 120.135 316.126C124.359 314.004 127.577 313.325 129.307 316.234C131.035 319.144 129.489 324.172 111.262 325.441Z" fill="#61C7AA"/>
<path d="M106.621 337.474C106.621 337.474 112.427 331.177 116.952 329.806C121.476 328.434 124.763 328.313 125.971 331.475C127.179 334.636 124.8 339.328 106.621 337.475V337.474Z" fill="#61C7AA"/>
<path d="M99.0616 345.056C99.0616 345.056 100.977 335.247 99.0943 328.022C97.2114 320.798 93.4013 321.328 91.1103 322.873C88.8193 324.419 89.9453 332.025 99.0616 345.056Z" fill="#61C7AA"/>
<path d="M104.433 313.755C103.695 312.229 102.577 310.604 100.892 310.428C99.1615 310.247 97.6249 311.807 97.2521 313.508C96.8793 315.208 97.3869 316.97 97.9927 318.602C98.79 320.75 103.755 332.463 106.463 330.002C108.102 328.513 107.263 324.198 107.007 322.327C106.603 319.358 105.739 316.452 104.433 313.755Z" fill="#61C7AA"/>
<path d="M126.044 294.839C126.92 293.29 127.709 291.612 127.726 289.833C127.744 288.053 126.801 286.155 125.122 285.562C123.212 284.888 121.054 286.137 120.017 287.875C118.98 289.615 118.794 291.713 118.633 293.731C118.39 296.761 117.05 301.787 117.992 304.554C121.206 303.244 124.461 297.817 126.044 294.838V294.839Z" fill="#61C7AA"/>
<path d="M115.222 305.262C115.246 303.482 115.131 301.632 114.291 300.062C113.451 298.493 111.712 297.281 109.954 297.569C107.957 297.895 106.663 300.027 106.59 302.051C106.517 304.074 107.362 306.005 108.19 307.852C109.433 310.627 110.672 315.679 112.829 317.653C115.018 314.96 115.265 308.636 115.222 305.263V305.262Z" fill="#61C7AA"/>
<path d="M95.2769 353.556C95.3777 353.535 95.4709 353.477 95.5338 353.386C110.521 332.119 120.818 297.904 120.92 297.561C120.987 297.338 120.86 297.104 120.638 297.037C120.415 296.972 120.181 297.096 120.114 297.319C120.012 297.662 109.752 331.748 94.8461 352.901C94.7126 353.091 94.758 353.353 94.9482 353.487C95.0477 353.556 95.1661 353.578 95.2769 353.555V353.556Z" fill="#3C549E"/>
<path d="M113.497 317.941C113.518 317.936 113.54 317.931 113.561 317.922C113.778 317.839 113.887 317.596 113.805 317.379C113.787 317.33 111.94 312.416 111.603 306.834C111.589 306.602 111.388 306.425 111.157 306.439C110.931 306.458 110.749 306.652 110.762 306.885C111.109 312.598 113.001 317.628 113.018 317.678C113.093 317.874 113.298 317.981 113.497 317.94V317.941Z" fill="#3C549E"/>
<path d="M112.611 320.152C112.736 320.125 112.847 320.043 112.906 319.919C112.944 319.838 116.79 311.814 124.106 307.744C124.308 307.631 124.381 307.375 124.269 307.172C124.157 306.97 123.902 306.895 123.698 307.009C116.138 311.213 112.305 319.222 112.145 319.561C112.047 319.771 112.137 320.021 112.347 320.12C112.433 320.16 112.524 320.169 112.611 320.152Z" fill="#3C549E"/>
<path d="M106.909 333.128H106.91C107.138 333.079 107.283 332.856 107.234 332.628C107.219 332.555 105.652 325.273 103.574 320.679C103.478 320.469 103.231 320.377 103.017 320.469C102.806 320.565 102.711 320.814 102.807 321.026C104.849 325.537 106.395 332.732 106.41 332.803C106.458 333.03 106.681 333.175 106.908 333.127L106.909 333.128Z" fill="#3C549E"/>
<path d="M109.487 327.52C109.57 327.502 109.65 327.459 109.713 327.39C109.752 327.346 113.792 322.97 121.155 320.887C121.378 320.824 121.508 320.591 121.445 320.367C121.382 320.144 121.157 320.005 120.925 320.077C113.316 322.23 109.258 326.638 109.089 326.824C108.933 326.997 108.947 327.263 109.118 327.419C109.222 327.513 109.36 327.546 109.487 327.518V327.52Z" fill="#3C549E"/>
<path d="M99.3612 347.281C99.5753 347.236 99.7201 347.033 99.6912 346.814C99.637 346.412 98.3447 336.916 96.6054 332.065C96.5273 331.846 96.2829 331.739 96.0675 331.812C95.8484 331.89 95.735 332.131 95.8144 332.35C97.5235 337.116 98.8448 346.829 98.8574 346.926C98.8888 347.157 99.1004 347.318 99.3309 347.288C99.341 347.286 99.3511 347.284 99.3612 347.283V347.281Z" fill="#3C549E"/>
<path d="M103.029 340.82C103.133 340.799 103.227 340.739 103.29 340.648C103.318 340.606 106.219 336.52 114.685 334.752C114.913 334.704 115.058 334.481 115.011 334.254C114.963 334.026 114.74 333.881 114.514 333.928C105.683 335.773 102.718 339.994 102.596 340.173C102.466 340.364 102.514 340.625 102.707 340.757C102.805 340.825 102.922 340.844 103.031 340.821L103.029 340.82Z" fill="#3C549E"/>
<path d="M50.86 294.272C50.86 294.272 45.4442 285.121 44.7313 279.036C44.0184 272.952 46.5047 267.645 50.297 268.435C54.0894 269.225 58.3201 278.352 50.8588 294.272H50.86Z" fill="#61C7AA"/>
<path d="M58.8052 309.249C58.8052 309.249 55.0317 297.365 56.5595 290.654C58.0873 283.943 60.3052 279.699 65.1745 280.452C70.0438 281.205 74.2606 287.598 58.8052 309.249Z" fill="#61C7AA"/>
<path d="M68.0258 325.605C68.0258 325.605 66.3317 313.252 68.9805 306.899C71.6292 300.546 74.5374 296.741 79.2077 298.313C83.8767 299.885 86.9436 306.902 68.027 325.605H68.0258Z" fill="#61C7AA"/>
<path d="M69.5397 341.119C69.5397 341.119 60.2962 329.881 50.4355 325.305C40.5761 320.73 37.6427 325.501 37.2573 329.506C36.8706 333.51 46.458 339.291 69.5397 341.12V341.119Z" fill="#61C7AA"/>
<path d="M39.3504 306.095C36.9536 305.512 34.0945 305.263 32.335 306.992C30.5276 308.768 30.8576 311.94 32.4231 313.933C33.9875 315.926 36.4372 316.989 38.8315 317.82C41.9828 318.913 59.7393 324.185 59.4824 318.864C59.3275 315.645 53.7025 312.591 51.3636 311.144C47.6544 308.849 43.5899 307.127 39.3504 306.095Z" fill="#61C7AA"/>
<path d="M38.1212 264.3C37.1929 261.88 36.038 259.442 34.0555 257.773C32.073 256.104 29.0666 255.407 26.8461 256.743C24.3208 258.263 23.7238 261.845 24.7175 264.62C25.7113 267.395 27.8952 269.548 30.0125 271.599C33.1915 274.678 37.596 280.839 41.576 282.344C43.0824 277.521 39.9991 268.838 38.1199 264.3H38.1212Z" fill="#61C7AA"/>
<path d="M39.8058 286.11C37.8296 284.433 35.6444 282.85 33.104 282.34C30.5635 281.83 27.5924 282.662 26.2862 284.9C24.8013 287.447 26.0003 290.876 28.2045 292.832C30.4086 294.788 33.3596 295.626 36.2023 296.407C40.4708 297.58 47.2923 300.867 51.5066 300.273C50.5091 295.319 43.6334 289.185 39.8058 286.11Z" fill="#61C7AA"/>
<path d="M75.5835 353.238C75.6528 353.105 75.6742 352.947 75.6314 352.792C65.6233 316.26 36.7252 273.003 36.4343 272.571C36.2453 272.29 35.865 272.215 35.5841 272.404C35.3032 272.593 35.2277 272.973 35.4166 273.254C35.7063 273.686 64.4936 316.781 74.45 353.117C74.5394 353.443 74.8769 353.636 75.2019 353.545C75.3719 353.498 75.5067 353.385 75.5823 353.239L75.5835 353.238Z" fill="#3C549E"/>
<path d="M52.4494 299.785C52.4645 299.756 52.4771 299.727 52.4884 299.696C52.5955 299.375 52.4242 299.027 52.1043 298.919C52.0325 298.895 44.8016 296.416 38.2182 291.626C37.9449 291.427 37.5607 291.488 37.3617 291.762C37.1753 292.033 37.2232 292.417 37.4978 292.619C44.2374 297.521 51.6382 300.055 51.7113 300.08C52.001 300.178 52.3121 300.047 52.4494 299.785Z" fill="#3C549E"/>
<path d="M54.1132 302.826C54.1988 302.662 54.2102 302.461 54.1245 302.279C54.0691 302.162 48.6179 290.411 50.8221 278.423C50.8838 278.09 50.6634 277.77 50.3309 277.71C49.9984 277.648 49.6785 277.866 49.618 278.201C47.3408 290.587 52.7857 302.309 53.0187 302.803C53.1635 303.109 53.5275 303.239 53.8348 303.095C53.9595 303.036 54.0552 302.94 54.1157 302.826H54.1132Z" fill="#3C549E"/>
<path d="M63.4111 321.25V321.247C63.5685 320.948 63.4514 320.577 63.1516 320.421C63.0546 320.371 53.4232 315.386 46.3397 313.465C46.0147 313.377 45.6822 313.569 45.5878 313.896C45.4996 314.222 45.6923 314.558 46.0185 314.648C52.9773 316.534 62.4916 321.458 62.5873 321.508C62.8871 321.664 63.2549 321.548 63.4123 321.25H63.4111Z" fill="#3C549E"/>
<path d="M59.4965 313.161C59.5545 313.052 59.5784 312.922 59.5595 312.789C59.5469 312.704 58.373 304.113 62.8531 293.912C62.9891 293.602 62.8468 293.242 62.5382 293.105C62.2284 292.969 61.8644 293.094 61.7309 293.42C57.1022 303.961 58.295 312.602 58.3479 312.965C58.3957 313.3 58.7081 313.53 59.0418 313.482C59.2434 313.454 59.4071 313.329 59.4965 313.16V313.161Z" fill="#3C549E"/>
<path d="M72.3159 342.838C72.4633 342.556 72.3701 342.204 72.0967 342.033C71.5955 341.722 59.7309 334.378 52.6714 331.839C52.3527 331.724 52.0063 331.899 51.888 332.209C51.7733 332.528 51.9383 332.878 52.2582 332.992C59.1944 335.487 71.3297 342.999 71.4506 343.075C71.7378 343.252 72.1156 343.164 72.2945 342.877C72.3033 342.864 72.3096 342.85 72.3172 342.837L72.3159 342.838Z" fill="#3C549E"/>
<path d="M68.4561 332.732C68.5279 332.596 68.548 332.436 68.504 332.278C68.4838 332.208 66.5807 325.166 72.4336 314.018C72.5911 313.718 72.4752 313.348 72.1754 313.19C71.8757 313.033 71.5054 313.149 71.3479 313.448C65.2431 325.076 67.2381 332.316 67.3251 332.618C67.4195 332.942 67.7583 333.13 68.0833 333.035C68.2495 332.987 68.3805 332.874 68.4548 332.732H68.4561Z" fill="#3C549E"/>
<path d="M137.63 129.358C137.63 129.358 174.313 139.071 178.293 139.508C182.273 139.945 220.739 113.875 220.739 113.875L229.404 125.942C229.404 125.942 196.98 147.702 186.969 152.635C176.957 157.567 149.819 152.335 149.819 152.335C149.819 152.335 134.38 153.075 130.967 140.6C127.555 128.125 137.629 129.358 137.629 129.358H137.63Z" fill="#8941FF"/>
<path d="M221.767 115.309C221.767 115.309 224.785 113.825 225.848 112.361C226.911 110.896 227.669 108.159 229.879 105.443C232.09 102.729 234.46 102.937 234.716 103.582C234.972 104.227 231.716 106.432 231.455 108.801C231.455 108.801 235.732 105.021 237.593 103.938C239.453 102.855 241.807 100.88 242.971 101.812C244.136 102.744 248.627 107.194 248.083 109.844C247.54 112.493 240.827 120.379 235.317 121.632C229.806 122.885 228.088 124.116 228.088 124.116L221.766 115.31L221.767 115.309Z" fill="#FFC8BB"/>
<path d="M133.175 398.262C167.418 398.262 195.178 395.109 195.178 391.218C195.178 387.328 167.418 384.174 133.175 384.174C98.9316 384.174 71.1719 387.328 71.1719 391.218C71.1719 395.109 98.9316 398.262 133.175 398.262Z" fill="#EAB7B7"/>
<path d="M130.408 243.254C130.408 243.254 137.721 273.884 144.137 300.994C144.137 300.994 133.771 352.63 131.356 363.392H146.722C146.722 363.392 164.417 320.448 164.417 305.961C164.417 291.474 164.107 254.118 156.863 229.696L126.957 230.627L130.407 243.251L130.408 243.254Z" fill="#16168C"/>
<path d="M133.996 244.496C133.996 244.496 128.572 279.264 124.868 304.099L120.543 364.945H105.28C105.28 364.945 104.193 333.694 102.951 306.375C101.709 279.056 99.6401 244.288 100.675 227.111L135.651 229.18L133.994 244.494L133.996 244.496Z" fill="#16168C"/>
<path d="M106.538 367.014L105.848 379.293L117.299 377.154C117.299 377.154 116.678 371.98 116.609 366.53L106.537 367.013L106.538 367.014Z" fill="#FFC8BB"/>
<path d="M145.652 374.672C145.652 374.672 143.996 370.67 144.41 364.048H133.235C133.235 364.048 132.423 374.137 132.355 378.001L145.652 374.672Z" fill="#FFC8BB"/>
<path d="M132.342 374.809C132.342 374.809 137.309 376.672 145.104 373.291C145.104 373.291 151.244 376.051 156.28 379.086C158.6 380.484 161.184 381.4 163.297 381.981C165.829 382.677 167.594 384.962 167.594 387.589V388.814C167.594 389.728 166.852 390.47 165.938 390.47H131.445C130.53 390.47 129.789 389.728 129.789 388.814V385.02C129.789 385.02 129.513 379.984 132.342 374.81V374.809Z" fill="#16168C"/>
<path d="M129.79 387.502H167.594V389.239C167.594 389.918 167.043 390.47 166.364 390.47H131.02C130.341 390.47 129.789 389.918 129.789 389.239V387.502H129.79Z" fill="#DADADA"/>
<path d="M145.857 377.721C145.654 377.59 145.595 377.317 145.726 377.113L147.493 374.373C147.624 374.171 147.897 374.111 148.101 374.242C148.304 374.373 148.363 374.647 148.232 374.851L146.465 377.59C146.334 377.793 146.061 377.852 145.857 377.721Z" fill="#180C45"/>
<path d="M147.873 378.756C147.67 378.625 147.611 378.352 147.742 378.148L149.509 375.409C149.64 375.206 149.913 375.147 150.117 375.278C150.32 375.409 150.379 375.682 150.248 375.886L148.481 378.625C148.35 378.828 148.077 378.887 147.873 378.756Z" fill="#180C45"/>
<path d="M150.044 379.842C149.842 379.711 149.782 379.438 149.913 379.234L151.681 376.494C151.812 376.292 152.085 376.232 152.289 376.363C152.492 376.494 152.551 376.768 152.42 376.972L150.653 379.711C150.522 379.914 150.248 379.973 150.044 379.842Z" fill="#180C45"/>
<path d="M152.271 381.032C152.068 380.901 152.009 380.628 152.14 380.424L153.907 377.685C154.038 377.482 154.311 377.423 154.515 377.554C154.718 377.685 154.777 377.958 154.646 378.162L152.879 380.901C152.748 381.104 152.475 381.163 152.271 381.032Z" fill="#180C45"/>
<path d="M154.65 381.944C154.447 381.813 154.388 381.54 154.519 381.336L156.286 378.596C156.417 378.394 156.69 378.334 156.894 378.465C157.097 378.596 157.156 378.87 157.025 379.074L155.258 381.813C155.127 382.016 154.854 382.075 154.65 381.944Z" fill="#180C45"/>
<path d="M130.809 378.396C130.809 378.396 133.22 379.948 133.22 387.502H129.787C129.787 387.502 129.309 382.705 130.809 378.396Z" fill="#180C45"/>
<path d="M137.353 376.167C135.877 376.167 134.241 375.969 132.477 375.458C132.147 375.362 131.956 375.017 132.052 374.687C132.148 374.357 132.493 374.167 132.823 374.263C139.949 376.327 144.878 372.824 144.927 372.789C145.205 372.587 145.594 372.648 145.796 372.926C145.997 373.205 145.937 373.594 145.659 373.796C145.489 373.92 142.325 376.168 137.352 376.168L137.353 376.167Z" fill="#180C45"/>
<path d="M106.056 375.982C106.056 375.982 110.815 378.19 117.231 375.982C117.231 375.982 124.957 383.019 124.681 388.986C124.406 394.954 121.164 395.505 117.438 395.781C113.712 396.057 107.435 393.228 105.09 388.986C102.745 384.744 106.056 375.982 106.056 375.982Z" fill="#16168C"/>
<path d="M110.829 377.666C107.541 377.666 105.808 376.721 105.7 376.659C105.4 376.491 105.294 376.111 105.463 375.812C105.631 375.513 106.008 375.406 106.308 375.574C106.365 375.605 110.069 377.56 117.046 375.389C117.372 375.287 117.723 375.47 117.825 375.798C117.927 376.127 117.743 376.475 117.416 376.577C114.785 377.396 112.586 377.666 110.83 377.666H110.829Z" fill="#180C45"/>
<path d="M117.577 378.69L112.267 379.845C112.078 379.886 111.89 379.764 111.848 379.575C111.806 379.386 111.929 379.197 112.118 379.156L117.428 378.001C117.617 377.959 117.805 378.081 117.847 378.27C117.889 378.459 117.766 378.648 117.577 378.69Z" fill="#180C45"/>
<path d="M118.886 380.311L113.576 381.466C113.387 381.507 113.198 381.385 113.157 381.196C113.115 381.007 113.237 380.818 113.426 380.777L118.736 379.622C118.925 379.58 119.114 379.702 119.156 379.891C119.197 380.08 119.075 380.269 118.886 380.311Z" fill="#180C45"/>
<path d="M120.031 382.277L114.721 383.432C114.532 383.473 114.343 383.351 114.301 383.162C114.26 382.973 114.382 382.784 114.571 382.743L119.881 381.588C120.07 381.546 120.259 381.668 120.3 381.857C120.342 382.046 120.22 382.235 120.031 382.277Z" fill="#180C45"/>
<path d="M121.757 384.243L116.447 385.398C116.258 385.439 116.069 385.317 116.028 385.128C115.986 384.939 116.108 384.75 116.297 384.709L121.607 383.554C121.796 383.512 121.985 383.634 122.027 383.823C122.068 384.012 121.946 384.201 121.757 384.243Z" fill="#180C45"/>
<path d="M104.359 386.63C104.359 386.63 110.402 393.091 118.473 391.849C126.544 390.607 124.683 388.986 124.683 388.986C124.683 388.986 125.718 395.611 118.473 395.8C111.23 395.989 105.008 391.689 104.359 386.63Z" fill="#DADADA"/>
<path d="M120.468 363.703H104.96C104.384 363.703 103.918 364.169 103.918 364.744V368.25C103.918 368.825 104.384 369.291 104.96 369.291H120.468C121.043 369.291 121.51 368.825 121.51 368.25V364.744C121.51 364.169 121.043 363.703 120.468 363.703Z" fill="#180C45"/>
<path d="M131.593 361.84H146.813C147.468 361.84 147.999 362.372 147.999 363.026V366.242C147.999 366.897 147.468 367.428 146.813 367.428H131.593C130.938 367.428 130.406 366.897 130.406 366.242V363.026C130.406 362.372 130.938 361.84 131.593 361.84Z" fill="#180C45"/>
<path d="M126.357 117.508C118.145 116.42 113.717 114.448 107.922 115.69C102.127 116.931 91.7546 117.508 89.3124 127.029C86.1826 139.232 96.9476 169.784 97.1541 188.41C97.3305 204.252 98.629 224.361 99.0132 230.019C99.0724 230.897 99.7878 231.582 100.667 231.61L157.235 232.261C158.393 232.275 159.333 231.336 159.317 230.179C159.225 223.469 158.296 213.743 157.608 190.358C156.78 162.212 163.817 122.476 126.357 117.509V117.508Z" fill="#8941FF"/>
<path d="M132.695 252.85L133.639 246.766L144.134 300.995L132.695 252.85Z" fill="#180C45"/>
<path d="M143.028 79.4434C143.028 79.4434 146.605 84.7862 145.51 93.7527C145.51 93.7527 148.775 98.2793 148.964 101.568C149.025 102.646 145.406 103.36 145.406 103.36C145.406 103.36 145.082 109.281 144.883 111.623C144.685 113.964 144.547 115.886 141.653 116.218C138.76 116.552 134.502 116.37 133.236 118.939C131.97 121.508 133.428 129.471 129.716 128.714C122.365 127.215 117.123 119.086 114.224 115.468C114.224 115.468 117.35 107.467 113.865 100.429C110.38 93.3912 109.299 83.3013 115.704 78.9371C122.11 74.5729 138.719 71.1193 143.026 79.4421L143.028 79.4434Z" fill="#FFC8BB"/>
<path d="M113.379 93.0133C113.379 93.0133 124.164 90.3356 124.585 90.3948C124.585 90.3948 124.31 103.19 127.155 105.166C128.045 105.783 131.371 115.397 139.825 116.241C139.825 116.241 127.032 113.733 124.465 113.965C121.898 114.197 120.306 115.158 120.213 116.093C119.789 120.326 122.718 125.128 122.718 125.128C122.718 125.128 116.923 120.409 114.225 115.468C114.225 115.468 115.8 107.972 115.423 104.334C115.046 100.694 113.38 93.0121 113.38 93.0121L113.379 93.0133Z" fill="#EAAFA2"/>
<path d="M145.349 104.354C145.349 104.354 130.954 101.898 128.579 93.6418C128.756 92.8257 128.964 91.4994 128.959 89.7537C128.944 84.9109 125.958 82.5292 126.993 81.9712C135.623 77.3186 141.875 81.5972 144.552 81.4221C146.927 81.2672 141.462 73.9998 130.37 73.0917C124.701 72.6282 120.712 72.2617 114.329 74.6459C112.549 75.5691 111.02 76.903 109.73 78.6272C109.73 78.6272 104.663 83.8101 110.885 95.1595C111.913 97.8309 112.977 99.5817 112.977 99.5817C113.69 101.39 113.961 105.223 114.923 105.2C117.692 105.135 121.283 102.509 121.283 102.509C121.283 102.509 115.777 99.0413 115.886 95.5525C115.994 92.0649 118.981 92.2438 119.824 92.5322C120.667 92.8206 122.712 93.429 123.333 95.0462C123.773 96.1898 124.462 97.8322 124.462 97.8322C124.462 97.8322 125.562 102.38 123.303 106.619C123.303 106.619 125.994 114.424 128.363 116.892C130.733 119.361 140.97 122.838 142.897 122.622C144.825 122.405 147.212 122.269 147.335 120.615C147.75 115.091 145.344 104.355 145.344 104.355L145.349 104.354Z" fill="#180C45"/>
<path d="M221.504 118.976C223.181 115.208 223.055 111.11 221.513 107.629L223.251 103.547L245.519 113.028C248.633 114.354 252.232 112.905 253.557 109.791L263.039 87.5231L259.726 86.1125C256.245 87.6541 252.147 87.7801 248.38 86.1037C241.511 83.0494 238.282 75.0024 241.13 68.0461C244.09 60.8178 252.377 57.4297 259.539 60.479C263.248 62.0584 265.921 65.0535 267.198 68.565L270.51 69.9757L279.992 47.7076C281.318 44.5941 279.868 40.9944 276.755 39.6694L254.487 30.1879L255.796 27.1134C259.374 25.8123 262.416 23.0628 263.97 19.2427C266.804 12.2814 263.555 4.24074 256.681 1.20029C249.538 -1.95981 241.214 1.34136 238.165 8.50418C236.586 12.2134 236.734 16.225 238.248 19.642L236.939 22.7165L214.671 13.2349C211.558 11.9086 207.958 13.3583 206.633 16.4718L197.152 38.7399L200.287 40.075C203.768 38.5333 207.866 38.4074 211.633 40.0838C218.502 43.1381 221.732 51.1851 218.884 58.1414C215.926 65.3697 207.637 68.759 200.474 65.7085C196.765 64.1291 194.092 61.1352 192.815 57.6224L189.68 56.2874L180.199 78.5555C178.872 81.669 180.322 85.2686 183.436 86.5936L205.704 96.0752L203.966 100.157C200.454 101.434 197.459 104.107 195.879 107.816C192.83 114.979 196.22 123.267 203.447 126.227C210.403 129.074 218.449 125.844 221.504 118.976Z" fill="#FF7F77"/>
<path d="M146.328 140.246C150.417 139.123 156.563 135.626 156.579 135.617C167.963 125.888 189.194 105.181 189.194 105.181L178.49 94.8799C178.49 94.8799 145.372 127.475 141.378 127.764C137.386 128.054 99.5502 125.133 99.5502 125.133C99.5502 125.133 85.8543 125.172 92.2614 138.128C92.6682 138.95 93.293 139.686 94.0713 140.356C94.3598 140.419 102.122 142.098 110.922 142.551C119.89 143.013 142.236 141.371 146.33 140.246H146.328Z" fill="#8941FF"/>
<path d="M152.285 139.106C153.435 138.251 154.902 137.052 156.58 135.617C156.563 135.626 150.417 139.124 146.329 140.246C142.235 141.371 119.889 143.013 110.921 142.551C102.121 142.098 94.3587 140.419 94.0703 140.356C104.261 149.138 143.964 145.294 152.283 139.106H152.285Z" fill="#6F2DDA"/>
<path d="M178.426 95.327C178.426 95.327 181.126 93.3232 181.908 91.6908C182.689 90.0585 183.541 86.5697 183.541 86.5697L186.324 88.1881C186.324 88.1881 188.794 86.1415 191.414 82.3831C192.838 80.3376 193.424 77.8048 194.617 76.908C196.34 75.6132 203.731 81.009 202.533 84.9676C201.749 87.5559 198.088 96.8787 192.895 99.1043C187.701 101.33 186.233 102.849 186.233 102.849L178.428 95.327H178.426Z" fill="#FFC8BB"/>
<path d="M384.041 396.031C431.636 396.031 470.219 392.877 470.219 388.986C470.219 385.096 431.636 381.942 384.041 381.942C336.446 381.942 297.863 385.096 297.863 388.986C297.863 392.877 336.446 396.031 384.041 396.031Z" fill="#EAB7B7"/>
<path d="M319.291 126.317C319.291 126.317 317.378 125.805 316.903 124.927C316.454 124.098 315.07 120.476 309.649 118.926C309.139 118.78 308.645 119.227 308.725 119.753C308.804 120.273 309.133 120.869 309.628 121.445C306.997 120.115 303.869 118.722 302.621 118.899C300.294 119.227 298.244 123.953 298.151 125.454C298.058 126.956 300.374 130.424 309.414 134.417C309.422 134.421 309.431 134.425 309.441 134.428C310.543 134.974 312.491 135.658 315.424 135.724L319.291 126.317Z" fill="#FED0CC"/>
<path d="M407.514 119.756C407.514 119.756 372.94 138.269 369.042 139.655C365.143 141.043 319.589 125.599 319.589 125.599L314.918 136.964C314.918 136.964 352.203 152.351 363.447 154.926C374.69 157.499 400.733 144.486 400.733 144.486C400.733 144.486 416.436 142.833 416.894 129.475C417.352 116.116 407.514 119.758 407.514 119.758V119.756Z" fill="#FF7F77"/>
<path d="M400.309 125.454C400.309 125.454 393.394 134.209 392.432 137.897C391.47 141.586 390.335 149.107 390.335 149.107L387.184 150.34C387.184 150.34 388.449 134.525 400.309 125.453V125.454Z" fill="#D84A4A"/>
<path d="M439.265 363.555C439.265 363.555 436.6 373.897 437.666 379.656C437.666 379.656 433.081 382.36 427.857 380.687C422.632 379.016 425.937 378.321 425.937 378.321C425.937 378.321 428.602 372.618 428.39 362.916L439.265 363.555Z" fill="#FFC8BB"/>
<path d="M438.199 378.321C438.199 378.321 428.71 380.292 425.938 378.321C425.938 378.321 423.698 378.225 417.194 381.233C410.69 384.24 404.72 385.759 404.293 387.559C403.866 389.358 410.477 388.69 415.062 388.69H439.265C439.265 388.69 440.757 383.598 438.198 378.322L438.199 378.321Z" fill="#180C45"/>
<path d="M368.574 364.505C368.574 364.505 363.217 372.488 361.537 379.654C361.537 379.654 356.952 382.359 351.728 380.686C346.503 379.015 349.808 378.319 349.808 378.319C349.808 378.319 355.209 370.275 357.698 363.864L368.574 364.504V364.505Z" fill="#FFC8BB"/>
<path d="M362.07 378.321C362.07 378.321 352.581 380.292 349.809 378.321C349.809 378.321 347.569 378.225 341.065 381.233C334.561 384.24 328.591 385.759 328.164 387.559C327.737 389.358 334.348 388.69 338.933 388.69H363.136C363.136 388.69 364.628 383.598 362.069 378.322L362.07 378.321Z" fill="#180C45"/>
<path d="M451.826 216.102C451.826 216.102 456.69 226.978 455.42 253.413C454.152 279.847 446.961 312.836 445.481 323.198C444.001 333.56 440.233 370.145 440.233 370.145C435.312 371.441 430.639 371.482 426.237 370.145C426.237 370.145 425.603 316.219 424.334 300.571C423.066 284.922 421.162 273.292 419.258 250.03C417.355 226.768 416.582 215.397 416.582 215.397C416.582 215.397 435.119 216.858 451.826 216.104V216.102Z" fill="#16168C"/>
<path d="M431.947 215.396C431.947 215.396 423.911 251.298 419.682 265.255C415.452 279.211 402.168 300.148 395.699 316.431C389.231 332.714 367.026 372.471 367.026 372.471C367.026 372.471 357.298 373.318 353.914 369.088C353.914 369.088 368.929 324.256 374.426 305.859C379.924 287.461 383.955 252.779 387.121 238.188C390.287 223.596 394.296 213.111 394.296 213.111C394.296 213.111 419.259 215.397 431.947 215.397V215.396Z" fill="#16168C"/>
<path d="M420.403 262.794L418.554 244.813L415.906 274.997C415.906 274.997 419.715 268.368 420.404 262.794" fill="#180C45"/>
<path d="M441.469 78.5894C441.469 78.5894 446.091 91.551 445.324 100.777C444.557 110.003 450.421 121.54 457.548 127.417C464.674 133.294 470.746 146.717 456.481 155.725C442.216 164.733 409.729 159.495 406.602 145.864C403.473 132.233 413.153 118.654 409.388 104.183C405.623 89.7109 402.592 79.9888 416.88 72.8688C431.167 65.7488 441.47 78.5894 441.47 78.5894H441.469Z" fill="#180C45"/>
<path d="M438.012 119.198C438.012 119.198 434.488 117.225 424.477 117.366C414.468 117.507 411.357 117.356 406.784 119.974C402.211 122.593 392.757 131.183 393.461 150.497C394.166 169.812 390.219 212.529 390.219 212.529C390.219 212.529 428.848 218.591 454.365 214.926C454.365 214.926 446.471 159.802 447.598 145.282C448.725 130.761 442.804 120.751 438.012 119.2V119.198Z" fill="white"/>
<path d="M430.819 117.366C430.819 117.366 457.185 119.551 456.903 136.469C456.621 153.387 449.569 171.221 452.953 188.702C456.337 206.184 460.631 233.565 465.143 240.896C465.143 240.896 447.359 244.53 437.773 244.812C428.187 245.094 423.418 238.25 422.854 230.214C422.29 222.178 425.885 190.917 422.36 177.05C418.836 163.183 413.619 158.108 418.695 145.561C423.771 133.014 430.819 117.365 430.819 117.365V117.366Z" fill="#FF7F77"/>
<path d="M411.646 118.071C411.646 118.071 403.187 129.632 402.2 144.998C401.212 160.365 401.354 174.435 401.495 186.221C401.636 198.007 401.918 230.855 402.059 234.661C402.2 238.468 404.174 244.108 398.676 244.108C393.178 244.108 383.309 239.596 383.309 239.596C383.309 239.596 388.665 223.666 389.23 206.325C389.794 188.984 391.344 164.595 390.076 153.598C388.808 142.601 390.499 122.019 411.646 118.071Z" fill="#FF7F77"/>
<path d="M411.023 129.382C415.646 133.095 425.794 127.375 427.552 120.531C429.31 113.687 427.029 113.101 428.197 102.374C428.197 102.374 418.772 103.539 415.065 102.972C415.065 102.972 414.451 114.734 412.725 118.263C411 121.792 407.012 126.161 411.023 129.383V129.382Z" fill="#FFC8BB"/>
<path d="M414.444 110.149C414.444 110.149 423.865 107.61 428.03 104.684C428.03 104.684 424.705 111.612 414.203 112.005L414.444 110.149Z" fill="#EAAFA2"/>
<path d="M406.605 79.2696C406.605 79.2696 424.425 59.7976 435.956 72.1017C435.956 72.1017 442.443 75.4608 443.907 87.1113C445.401 98.9985 436.884 107.218 433.055 104.684C430.599 103.059 428.119 105.173 428.119 105.173L406.605 79.2696Z" fill="#180C45"/>
<path d="M409.875 110.296C409.875 110.296 428.916 112.225 429.935 100.347C430.953 88.4703 434.097 80.7205 421.982 78.9875C409.868 77.2544 406.83 81.5002 405.81 85.4651C404.661 89.9313 405.117 91.7626 405.604 95.1318C405.831 96.6986 405.252 98.2743 405.758 100.427C406.958 105.54 407.563 109.917 409.875 110.296Z" fill="#FFC8BB"/>
<path d="M413.309 78.7821C413.309 78.7821 417.102 94.0171 425.188 95.8976C428.091 96.5727 430.348 96.3787 430.348 96.3787C430.348 96.3787 422.143 96.0172 421.589 87.3871C421.589 87.3871 417.808 72.4834 413.309 78.7834V78.7821Z" fill="#EAAFA2"/>
<path d="M414.52 79.2028C414.52 79.2028 410.746 80.3515 408.212 83.6111C406.26 86.1238 405.439 88.3809 405.351 93.4176C405.351 93.4176 402.062 83.8932 406.935 78.9094C412.103 73.6245 414.52 79.2028 414.52 79.2028Z" fill="#180C45"/>
<path d="M413.322 77.9622C413.322 77.9622 417.363 92.3382 425.201 95.0777C433.039 97.8158 436.695 95.9631 436.695 95.9631C436.695 95.9631 430.962 90.5611 430.408 81.9309C430.408 81.9309 417.819 71.6634 413.32 77.9635L413.322 77.9622Z" fill="#180C45"/>
<path d="M385.742 112.129C381.926 110.513 377.81 110.713 374.338 112.327L370.205 110.654L379.329 88.1038C380.604 84.95 379.083 81.3604 375.929 80.0845L353.379 70.9606L352.021 74.3159C353.635 77.7859 353.835 81.9032 352.219 85.7195C349.274 92.677 341.246 96.0689 334.204 93.3333C326.886 90.4905 323.331 82.2231 326.265 74.9696C327.786 71.2125 330.746 68.4731 334.252 67.1254L335.61 63.7701L313.06 54.6462C309.906 53.3703 306.316 54.8918 305.04 58.0456L295.916 80.5959L292.803 79.3363C291.43 75.7644 288.611 72.7579 284.745 71.2654C277.696 68.5449 269.677 71.9544 266.746 78.9169C263.701 86.1528 267.169 94.4567 274.423 97.3914C278.18 98.9116 282.208 98.6887 285.614 97.1055L288.727 98.365L279.603 120.915C278.327 124.069 279.849 127.659 283.003 128.934L305.553 138.058L306.838 134.883C305.224 131.413 305.024 127.297 306.64 123.48C309.585 116.522 317.613 113.13 324.655 115.865C331.972 118.707 335.529 126.975 332.594 134.228C331.074 137.985 328.114 140.725 324.608 142.072L323.323 145.248L345.873 154.371C349.027 155.647 352.617 154.126 353.893 150.972L363.017 128.422L367.15 130.094C368.497 133.601 371.237 136.561 374.995 138.081C382.248 141.016 390.515 137.459 393.358 130.141C396.094 123.099 392.701 115.071 385.743 112.126L385.742 112.129Z" fill="#7622FF"/>
<path d="M394.521 138.322C390.496 137.026 384.525 133.275 384.51 133.265C373.593 123.078 354.953 100.352 354.953 100.352L362.954 93.7161C362.954 93.7161 396.029 125.637 399.994 126.101C403.959 126.563 441.779 125.297 441.779 125.297C441.779 125.297 455.42 125.931 448.475 138.558C448.034 139.359 447.38 140.066 446.576 140.7C446.286 140.75 438.48 142.085 429.694 142.154C420.74 142.225 398.55 139.618 394.521 138.32V138.322Z" fill="#FF7F77"/>
<path d="M388.639 136.927C387.531 136.026 386.121 134.766 384.512 133.266C384.528 133.276 390.498 137.027 394.522 138.323C398.551 139.621 420.741 142.227 429.695 142.157C438.482 142.088 446.287 140.751 446.578 140.702C436.044 149.009 396.658 143.455 388.639 136.929V136.927Z" fill="#D84A4A"/>
<path d="M360.729 91.7324C360.181 90.3407 360.142 89.4615 360.142 89.4615C360.142 89.4615 359.609 85.3303 359.143 83.6539C358.677 81.9775 357.373 80.9536 356.536 81.7911C355.698 82.6287 356.536 85.3303 356.536 86.5407C356.536 87.7511 352.896 84.6452 353.276 82.63C353.928 79.1839 351.228 80.0228 351.227 80.0228C348.452 80.0291 344.987 84.8656 344.056 88.3028C343.472 90.4603 344.65 93.7161 350.419 96.2969C354.682 98.2038 355.69 99.7756 355.69 99.7756L362.567 94.0348C362.567 94.0348 361.275 93.1217 360.727 91.7312L360.729 91.7324Z" fill="#FED0CC"/>
<path d="M310.251 119.565C310.251 119.565 306.038 117.899 306.225 116.566C306.411 115.234 312.323 117.809 312.323 117.809L310.251 119.565Z" fill="#FED0CC"/>
</g>
<defs>
<clipPath id="clip0_2459_2288">
<rect width="556.4" height="398.262" fill="white"/>
</clipPath>
</defs>
</svg>
