<svg width="544" height="329" viewBox="0 0 544 329" fill="none" xmlns="http://www.w3.org/2000/svg">
<g clip-path="url(#clip0_2455_25306)">
<path d="M228.321 310.946C226.424 307.383 221.938 304.883 216.708 304.883C214.429 304.883 212.292 305.357 210.452 306.193C210.31 306.051 210.162 305.917 210.013 305.782C210.049 305.485 210.07 305.187 210.07 304.883C210.07 299.436 204.437 295.023 197.487 295.023C192.031 295.023 187.389 297.75 185.641 301.554C184.19 301.101 182.605 300.846 180.949 300.846C174.41 300.846 169.039 304.755 168.43 309.749C161.353 311.704 156.973 314.388 156.973 317.356C156.973 323.327 174.665 328.164 196.497 328.164C218.328 328.164 236.02 323.327 236.02 317.356C236.02 314.955 233.161 312.738 228.328 310.946H228.321Z" fill="#195A75"/>
<path d="M281.501 135.042C281.501 135.042 273.653 161.893 257.277 152.728C257.277 152.728 254.234 136.643 281.501 135.042Z" fill="#7622FF"/>
<path d="M281.502 135.042C281.502 135.042 255.785 150.823 251.383 160.264C251.383 160.264 256.061 149.243 281.502 135.042Z" fill="#05374A"/>
<path d="M233.068 130.205C233.068 130.205 229.148 157.906 211.633 151.184C211.633 151.184 206.318 135.701 233.068 130.205Z" fill="#7622FF"/>
<path d="M233.07 130.205C233.07 130.205 209.879 149.513 206.879 159.485C206.879 159.485 209.929 147.905 233.07 130.205Z" fill="#05374A"/>
<path d="M252.542 121.769C252.542 121.769 227.547 134.292 223.109 116.046C223.109 116.046 232.819 102.865 252.542 121.769Z" fill="#7622FF"/>
<path d="M252.544 121.769C252.544 121.769 223.493 113.652 213.586 116.846C213.586 116.846 224.838 112.774 252.544 121.769Z" fill="#05374A"/>
<path d="M217.812 173.12C217.812 173.12 215.76 201.019 197.834 195.495C197.834 195.495 191.494 180.401 217.812 173.12Z" fill="#7622FF"/>
<path d="M217.812 173.12C217.812 173.12 195.973 193.944 193.645 204.093C193.645 204.093 195.909 192.336 217.812 173.12Z" fill="#05374A"/>
<path d="M202.398 154.294C202.398 154.294 200.346 182.193 182.42 176.669C182.42 176.669 176.08 161.575 202.398 154.294Z" fill="#7622FF"/>
<path d="M202.398 154.294C202.398 154.294 180.559 175.117 178.23 185.267C178.23 185.267 180.495 173.51 202.398 154.294Z" fill="#05374A"/>
<path d="M191.538 139.816C191.538 139.816 193.378 167.73 174.851 164.748C174.851 164.748 166.479 150.681 191.538 139.816Z" fill="#7622FF"/>
<path d="M191.537 139.816C191.537 139.816 172.797 163.473 171.898 173.849C171.898 173.849 172.514 161.894 191.537 139.816Z" fill="#05374A"/>
<path d="M166.561 103.177C166.561 103.177 181.217 127.003 163.44 133.024C163.44 133.024 149.471 124.503 166.561 103.177Z" fill="#7622FF"/>
<path d="M166.561 103.177C166.561 103.177 161.027 132.854 165.075 142.451C165.075 142.451 160.037 131.593 166.561 103.177Z" fill="#05374A"/>
<path d="M115.475 97.1277C115.475 97.1277 134.759 117.385 118.624 126.975C118.624 126.975 103.19 121.542 115.475 97.1277Z" fill="#7622FF"/>
<path d="M115.476 97.1277C115.476 97.1277 116.226 127.308 122.178 135.85C122.178 135.85 114.995 126.274 115.476 97.1277Z" fill="#05374A"/>
<path d="M182.616 129.638C182.616 129.638 181.122 149.98 168.044 145.957C168.044 145.957 163.416 134.95 182.616 129.638Z" fill="#7622FF"/>
<path d="M182.617 129.638C182.617 129.638 166.695 144.824 164.996 152.226C164.996 152.226 166.645 143.655 182.617 129.638Z" fill="#05374A"/>
<path d="M224.647 89.3081C224.647 89.3081 227.534 110.861 212.631 109.728C212.631 109.728 205.243 99.3446 224.647 89.3081Z" fill="#7622FF"/>
<path d="M224.648 89.3081C224.648 89.3081 210.933 108.871 210.742 116.981C210.742 116.981 210.622 107.66 224.648 89.3081Z" fill="#05374A"/>
<path d="M272.402 164.238C263.988 167.631 254.802 167.843 245.829 167.857C252.608 159.924 257.286 154.683 257.286 154.683V150.065C257.286 150.065 243.656 167 230.352 180.755C229.793 175.939 229.524 171.108 229.39 166.271C230.019 166.752 231.031 166.689 231.187 165.711C231.987 160.689 234.152 156.291 236.919 152.077C237.761 150.795 235.716 149.59 234.874 150.865C232.39 154.648 230.352 158.614 229.312 162.984C229.262 159.882 229.255 156.773 229.255 153.67C229.255 152.14 226.884 152.126 226.884 153.656C226.884 163.43 226.99 173.198 228.243 182.901C216.354 194.921 205.328 203.512 205.328 194.057C205.328 189.871 204.437 182.597 203.021 173.679C203.432 173.439 203.722 172.985 203.602 172.39C201.741 163.36 208.754 156.532 215.484 151.758C216.722 150.88 215.547 148.811 214.295 149.697C208.754 153.628 203.368 158.685 201.571 165.024C199.957 155.753 197.976 145.412 195.93 135.184C197.176 131.182 198.117 127.102 198.782 122.98C199.037 123.228 199.398 123.377 199.837 123.313C202.908 122.846 205.59 121.507 207.819 119.587C208.039 119.694 208.308 119.736 208.612 119.651C213.998 118.199 219.588 118.227 225.122 118.227C226.651 118.227 226.665 115.848 225.136 115.855C220.225 115.855 215.264 115.855 210.438 116.797C211.443 115.493 212.299 114.049 212.986 112.519C213.608 111.137 211.57 109.912 210.94 111.307C208.697 116.308 204.776 120.175 199.214 121.018C199.157 121.025 199.115 121.039 199.065 121.054C199.653 116.818 199.957 112.547 199.978 108.255C199.985 106.725 197.615 106.711 197.601 108.241C197.565 115.628 196.688 122.938 194.89 130.07C189.469 103.375 183.957 78.9883 183.957 78.9883C183.957 78.9883 186.214 91.4967 188.712 108.418C181.826 104.09 176.455 98.0767 171.091 92.035C170.072 90.8875 168.388 92.5662 169.4 93.7065C175.011 100.024 180.659 106.286 187.934 110.734C188.344 110.982 188.74 110.96 189.059 110.776C190.8 122.753 192.619 136.671 193.836 149.838C190.913 145.596 187.594 141.672 183.291 138.711C182.025 137.84 180.829 139.894 182.081 140.758C187.29 144.342 190.97 149.498 194.274 154.832C196.164 177.901 195.909 197.542 189.731 198.569C182.534 199.773 175.054 172.681 164.226 151.12C164.786 151.255 165.394 151.035 165.536 150.306C166.972 143.152 168.48 136.02 169.237 128.753C169.4 127.23 167.022 127.23 166.866 128.738C166.144 135.68 164.694 142.501 163.321 149.335C158.742 140.517 153.576 132.818 147.596 128.661C147.596 128.661 160.808 146.375 171.735 175.493C157.928 170.018 147.129 159.514 135.006 151.156C133.74 150.285 132.544 152.339 133.796 153.203C139.663 157.247 145.218 161.759 150.943 165.973C144.617 166.604 138.226 165.265 131.9 166.412C130.392 166.681 131.022 168.976 132.515 168.707C139.543 167.432 146.669 169.253 153.71 167.978C159.648 172.185 165.84 175.946 172.818 178.439C184.636 211.254 193.079 257.59 177.609 309.097H212.242C212.242 309.097 181.649 249.891 216.057 204.462C225.2 192.385 235.681 179.742 243.784 170.209C253.578 170.209 263.783 170.223 273.004 166.504C274.405 165.938 273.803 163.636 272.388 164.21L272.402 164.238Z" fill="#05374A"/>
<path d="M203.331 75.0928C203.331 75.0928 206.218 96.646 191.314 95.5127C191.314 95.5127 183.926 85.1292 203.331 75.0928Z" fill="#7622FF"/>
<path d="M203.332 75.0928C203.332 75.0928 189.617 94.6557 189.426 102.766C189.426 102.766 189.306 93.4445 203.332 75.0928Z" fill="#05374A"/>
<path d="M198.909 61.2529C198.909 61.2529 201.796 82.8061 186.892 81.6729C186.892 81.6729 179.504 71.2894 198.909 61.2529Z" fill="#7622FF"/>
<path d="M198.91 61.2529C198.91 61.2529 185.195 80.8159 185.004 88.9258C185.004 88.9258 184.884 79.6047 198.91 61.2529Z" fill="#05374A"/>
<path d="M288.227 118.511C288.227 118.511 284.08 139.852 270.316 134.015C270.316 134.015 266.636 121.819 288.227 118.511Z" fill="#7622FF"/>
<path d="M288.227 118.511C288.227 118.511 268.978 132.656 266.211 140.284C266.211 140.284 269.07 131.416 288.227 118.511Z" fill="#05374A"/>
<path d="M263.062 106.236C263.062 106.236 247.599 121.507 239.531 108.914C239.531 108.914 243.374 96.7665 263.062 106.236Z" fill="#7622FF"/>
<path d="M263.061 106.236C263.061 106.236 239.198 107.037 232.609 111.768C232.609 111.768 239.976 106.066 263.061 106.236Z" fill="#05374A"/>
<path d="M213.714 89.3081C213.714 89.3081 216.601 110.861 201.697 109.728C201.697 109.728 194.309 99.3446 213.714 89.3081Z" fill="#7622FF"/>
<path d="M213.715 89.3081C213.715 89.3081 200 108.871 199.809 116.981C199.809 116.981 199.688 107.66 213.715 89.3081Z" fill="#05374A"/>
<path d="M166.301 199.348C166.301 199.348 168.353 227.247 186.279 221.723C186.279 221.723 192.619 206.629 166.301 199.348Z" fill="#7622FF"/>
<path d="M166.301 199.348C166.301 199.348 188.14 220.172 190.468 230.321C190.468 230.321 188.203 218.564 166.301 199.348Z" fill="#05374A"/>
<path d="M237.619 128.044C237.619 128.044 223.402 143.457 235.61 150.462C235.61 150.462 247.116 146.212 237.619 128.044Z" fill="#7622FF"/>
<path d="M237.618 128.044C237.618 128.044 237.405 150.681 233.039 157.162C233.039 157.162 238.311 149.902 237.618 128.044Z" fill="#05374A"/>
<path d="M178.381 50.9827C178.381 50.9827 169.925 70.1844 183.746 72.8404C183.746 72.8404 193.257 65.0776 178.381 50.9827Z" fill="#7622FF"/>
<path d="M178.383 50.9827C178.383 50.9827 185.523 72.4651 183.492 80.0083C183.492 80.0083 186.125 71.4239 178.383 50.9827Z" fill="#05374A"/>
<path d="M262.863 182.009C262.863 182.009 245.822 195.502 239.184 182.101C239.184 182.101 244.328 170.443 262.863 182.009Z" fill="#7622FF"/>
<path d="M262.861 182.009C262.861 182.009 239.055 180.196 231.992 184.183C231.992 184.183 239.939 179.318 262.861 182.009Z" fill="#05374A"/>
<path d="M255.233 132.769C255.233 132.769 263.003 153.075 248.241 155.413C248.241 155.413 238.666 147.012 255.233 132.769Z" fill="#7622FF"/>
<path d="M255.232 132.769C255.232 132.769 246.386 154.967 248.071 162.906C248.071 162.906 245.806 153.862 255.232 132.769Z" fill="#05374A"/>
<path d="M286.638 183.964C286.638 183.964 277.191 165.237 266.363 174.225C266.363 174.225 266.314 186.507 286.638 183.964Z" fill="#7622FF"/>
<path d="M286.638 183.964C286.638 183.964 265.528 175.84 260.992 169.479C260.992 169.479 265.939 176.966 286.638 183.964Z" fill="#05374A"/>
<path d="M244.518 152.813C244.518 152.813 247.406 174.366 232.502 173.233C232.502 173.233 225.114 162.85 244.518 152.813Z" fill="#7622FF"/>
<path d="M244.519 152.813C244.519 152.813 230.804 172.376 230.613 180.486C230.613 180.486 230.493 171.165 244.519 152.813Z" fill="#05374A"/>
<path d="M228.943 139.129C228.943 139.129 207.528 135.481 213.034 121.578C213.034 121.578 225.135 117.604 228.943 139.129Z" fill="#7622FF"/>
<path d="M228.943 139.129C228.943 139.129 214.358 120.204 206.68 117.618C206.68 117.618 215.611 120.274 228.943 139.129Z" fill="#05374A"/>
<path d="M236.012 90.1936C236.012 90.1936 218.37 101.526 228.419 111.379C228.419 111.379 240.626 110.167 236.012 90.1936Z" fill="#7622FF"/>
<path d="M236.012 90.1936C236.012 90.1936 230.11 112.051 224.25 117.215C224.25 117.215 231.185 111.52 236.012 90.1936Z" fill="#05374A"/>
<path d="M171.594 125.119C171.594 125.119 172.91 142.996 184.396 139.455C184.396 139.455 188.458 129.787 171.594 125.119Z" fill="#7622FF"/>
<path d="M171.594 125.119C171.594 125.119 185.592 138.463 187.078 144.965C187.078 144.965 185.627 137.429 171.594 125.119Z" fill="#05374A"/>
<path d="M170.469 69.0793C170.469 69.0793 171.785 86.9565 183.271 83.4151C183.271 83.4151 187.333 73.747 170.469 69.0793Z" fill="#7622FF"/>
<path d="M170.469 69.0793C170.469 69.0793 184.467 82.4235 185.953 88.9256C185.953 88.9256 184.502 81.3894 170.469 69.0793Z" fill="#05374A"/>
<path d="M95.3203 103.708C95.3203 103.708 96.6366 121.585 108.122 118.044C108.122 118.044 112.184 108.375 95.3203 103.708Z" fill="#7622FF"/>
<path d="M95.3203 103.708C95.3203 103.708 109.318 117.052 110.804 123.554C110.804 123.554 109.354 116.018 95.3203 103.708Z" fill="#05374A"/>
<path d="M128.621 114.183C128.621 114.183 137.446 137.394 146.971 130.106C146.971 130.106 146.78 116.457 128.621 114.183Z" fill="#7622FF"/>
<path d="M128.621 114.183C128.621 114.183 147.693 128.519 151.875 136.735C151.875 136.735 147.297 127.159 128.621 114.183Z" fill="#05374A"/>
<path d="M91.25 144.201C91.25 144.201 115.254 153.415 116.599 139.816C116.599 139.816 106.09 130.049 91.25 144.201Z" fill="#7622FF"/>
<path d="M91.25 144.201C91.25 144.201 115.913 138.039 125.176 140.376C125.176 140.376 114.596 137.394 91.25 144.201Z" fill="#05374A"/>
<path d="M102.996 168.884C102.996 168.884 129.017 179.112 131.799 160.541C131.799 160.541 120.95 148.287 102.996 168.884Z" fill="#7622FF"/>
<path d="M102.996 168.884C102.996 168.884 131.204 158.189 141.352 160.484C141.352 160.484 129.782 157.438 102.996 168.884Z" fill="#05374A"/>
<path d="M96.8633 121.479C96.8633 121.479 106.523 147.735 122.234 137.472C122.234 137.472 124.173 121.217 96.8633 121.479Z" fill="#7622FF"/>
<path d="M96.8633 121.479C96.8633 121.479 123.592 135.467 128.631 144.583C128.631 144.583 123.21 133.909 96.8633 121.479Z" fill="#05374A"/>
<path d="M129.629 128.377C129.629 128.377 139.289 154.634 154.999 144.371C154.999 144.371 156.938 128.115 129.629 128.377Z" fill="#7622FF"/>
<path d="M129.629 128.377C129.629 128.377 156.358 142.366 161.397 151.482C161.397 151.482 155.976 140.808 129.629 128.377Z" fill="#05374A"/>
<path d="M135.988 179.162C135.988 179.162 156.263 198.42 165.817 182.257C165.817 182.257 160.361 166.823 135.988 179.162Z" fill="#7622FF"/>
<path d="M135.988 179.162C135.988 179.162 166.142 179.856 174.691 185.798C174.691 185.798 165.109 178.63 135.988 179.162Z" fill="#05374A"/>
<path d="M143.082 201.09C143.082 201.09 170.356 207.224 170.278 188.447C170.278 188.447 157.689 177.993 143.082 201.09Z" fill="#7622FF"/>
<path d="M143.082 201.09C143.082 201.09 169.33 186.216 179.712 186.931C179.712 186.931 167.815 185.692 143.082 201.09Z" fill="#05374A"/>
<path d="M132.523 157.098C132.523 157.098 152.798 176.357 162.345 160.194C162.345 160.194 156.889 144.76 132.523 157.098Z" fill="#7622FF"/>
<path d="M132.523 157.098C132.523 157.098 162.678 157.793 171.226 163.735C171.226 163.735 161.644 156.567 132.523 157.098Z" fill="#05374A"/>
<path d="M104.555 150.2C104.555 150.2 124.83 169.458 134.383 153.295C134.383 153.295 128.927 137.861 104.555 150.2Z" fill="#7622FF"/>
<path d="M104.555 150.2C104.555 150.2 134.709 150.894 143.258 156.836C143.258 156.836 133.676 149.669 104.555 150.2Z" fill="#05374A"/>
<path d="M116.707 175.733C116.707 175.733 142.438 186.662 145.722 168.169C145.722 168.169 135.206 155.625 116.707 175.733Z" fill="#7622FF"/>
<path d="M116.707 175.734C116.707 175.734 145.191 165.81 155.283 168.374C155.283 168.374 143.797 165.017 116.707 175.734Z" fill="#05374A"/>
<path d="M120.84 95.704C120.84 95.704 144.844 104.919 146.189 91.3197C146.189 91.3197 135.68 81.5524 120.84 95.704Z" fill="#7622FF"/>
<path d="M120.84 95.7041C120.84 95.7041 145.502 89.542 154.766 91.8793C154.766 91.8793 144.186 88.8974 120.84 95.7041Z" fill="#05374A"/>
<path d="M221.009 62.9951C221.009 62.9951 199.659 81.0565 214.668 92.3253C214.668 92.3253 230.598 88.5856 221.009 62.9951Z" fill="#7622FF"/>
<path d="M221.011 62.9951C221.011 62.9951 217.02 92.9203 210.184 100.775C210.184 100.775 218.357 92.0279 221.011 62.9951Z" fill="#05374A"/>
<path d="M266.415 116.159C266.415 116.159 245.065 134.221 260.075 145.49C260.075 145.49 276.005 141.75 266.415 116.159Z" fill="#7622FF"/>
<path d="M266.417 116.159C266.417 116.159 262.426 146.085 255.59 153.94C255.59 153.94 263.764 145.192 266.417 116.159Z" fill="#05374A"/>
<path d="M146.18 101.625C146.18 101.625 166.455 120.884 176.001 104.72C176.001 104.72 170.545 89.2868 146.18 101.625Z" fill="#7622FF"/>
<path d="M146.18 101.625C146.18 101.625 176.334 102.319 184.883 108.262C184.883 108.262 175.301 101.094 146.18 101.625Z" fill="#05374A"/>
<path d="M135.762 63.8807C135.762 63.8807 145.952 89.9315 161.458 79.3497C161.458 79.3497 163.064 63.052 135.762 63.8807Z" fill="#7622FF"/>
<path d="M135.762 63.8804C135.762 63.8804 162.774 77.3166 167.989 86.3331C167.989 86.3331 162.356 75.7725 135.762 63.8804Z" fill="#05374A"/>
<path d="M123.91 129.482C123.91 129.482 125.962 157.382 143.888 151.857C143.888 151.857 150.229 136.763 123.91 129.482Z" fill="#7622FF"/>
<path d="M123.91 129.482C123.91 129.482 145.749 150.306 148.077 160.456C148.077 160.456 145.813 148.698 123.91 129.482Z" fill="#05374A"/>
<path d="M167.033 61.7273C167.033 61.7273 186.318 81.9843 170.183 91.5746C170.183 91.5746 154.748 86.142 167.033 61.7273Z" fill="#7622FF"/>
<path d="M167.034 61.7273C167.034 61.7273 167.784 91.9075 173.743 100.449C173.743 100.449 166.56 90.8734 167.034 61.7273Z" fill="#05374A"/>
<path d="M200.424 129.461C200.424 129.461 190.694 153.281 204.246 154.917C204.246 154.917 214.231 144.611 200.424 129.461Z" fill="#7622FF"/>
<path d="M200.426 129.461C200.426 129.461 206.045 154.279 203.504 163.494C203.504 163.494 206.717 152.969 200.426 129.461Z" fill="#05374A"/>
<path d="M141.086 80.0224C141.086 80.0224 150.746 106.279 166.456 96.0156C166.456 96.0156 168.395 79.7604 141.086 80.0224Z" fill="#7622FF"/>
<path d="M141.086 80.0222C141.086 80.0222 167.815 94.0109 172.854 103.127C172.854 103.127 167.433 92.4527 141.086 80.0222Z" fill="#05374A"/>
<path d="M175.473 94.082C175.473 94.082 177.525 121.982 195.45 116.457C195.45 116.457 201.791 101.363 175.473 94.082Z" fill="#7622FF"/>
<path d="M175.473 94.082C175.473 94.082 197.312 114.906 199.64 125.055C199.64 125.055 197.375 113.298 175.473 94.082Z" fill="#05374A"/>
<path d="M300.899 162.184C300.899 162.184 280.348 181.145 271.035 164.847C271.035 164.847 276.711 149.491 300.899 162.184Z" fill="#7622FF"/>
<path d="M300.9 162.184C300.9 162.184 270.739 162.439 262.105 168.261C262.105 168.261 271.787 161.228 300.9 162.184Z" fill="#05374A"/>
<path d="M457.847 308.559C455.597 304.33 450.275 301.363 444.062 301.363C441.358 301.363 438.825 301.929 436.631 302.914C436.461 302.751 436.291 302.588 436.107 302.425C436.15 302.071 436.171 301.717 436.171 301.355C436.171 294.896 429.484 289.655 421.239 289.655C414.764 289.655 409.251 292.891 407.178 297.41C405.458 296.865 403.575 296.567 401.608 296.567C393.852 296.567 387.476 301.207 386.747 307.135C378.34 309.451 373.152 312.646 373.152 316.166C373.152 323.256 394.156 329 420.064 329C445.973 329 466.976 323.256 466.976 316.166C466.976 313.318 463.587 310.691 457.84 308.559H457.847Z" fill="#195A75"/>
<path d="M520.975 99.7766C520.975 99.7766 511.662 131.65 492.222 120.77C492.222 120.77 488.612 101.675 520.975 99.7766Z" fill="#7622FF"/>
<path d="M520.975 99.7766C520.975 99.7766 490.453 118.504 485.23 129.709C485.23 129.709 490.779 116.627 520.975 99.7766Z" fill="#05374A"/>
<path d="M463.485 94.0325C463.485 94.0325 458.828 126.911 438.037 118.936C438.037 118.936 431.731 100.556 463.485 94.0325Z" fill="#7622FF"/>
<path d="M463.487 94.0325C463.487 94.0325 435.958 116.946 432.398 128.788C432.398 128.788 436.015 115.047 463.487 94.0325Z" fill="#05374A"/>
<path d="M486.606 84.0172C486.606 84.0172 456.933 98.8771 451.668 77.2248C451.668 77.2248 463.189 61.5787 486.606 84.0172Z" fill="#7622FF"/>
<path d="M486.607 84.0172C486.607 84.0172 452.122 74.3845 440.367 78.1738C440.367 78.1738 453.721 73.3433 486.607 84.0172Z" fill="#05374A"/>
<path d="M445.374 144.972C445.374 144.972 442.94 178.092 421.66 171.533C421.66 171.533 414.13 153.621 445.374 144.972Z" fill="#7622FF"/>
<path d="M445.374 144.972C445.374 144.972 419.451 169.692 416.691 181.74C416.691 181.74 419.381 167.786 445.374 144.972Z" fill="#05374A"/>
<path d="M427.081 122.626C427.081 122.626 424.647 155.746 403.367 149.187C403.367 149.187 395.837 131.274 427.081 122.626Z" fill="#7622FF"/>
<path d="M427.08 122.626C427.08 122.626 401.158 147.345 398.391 159.393C398.391 159.393 401.08 145.44 427.08 122.626Z" fill="#05374A"/>
<path d="M414.188 105.443C414.188 105.443 416.368 138.577 394.387 135.042C394.387 135.042 384.451 118.348 414.188 105.443Z" fill="#7622FF"/>
<path d="M414.19 105.443C414.19 105.443 391.948 133.519 390.879 145.837C390.879 145.837 391.608 131.642 414.19 105.443Z" fill="#05374A"/>
<path d="M384.546 61.9541C384.546 61.9541 401.941 90.2361 380.845 97.3827C380.845 97.3827 364.264 87.2683 384.546 61.9541Z" fill="#7622FF"/>
<path d="M384.548 61.9541C384.548 61.9541 377.98 97.1773 382.786 108.567C382.786 108.567 376.806 95.6757 384.548 61.9541Z" fill="#05374A"/>
<path d="M323.907 54.772C323.907 54.772 346.794 78.8184 327.644 90.1935C327.644 90.1935 309.322 83.7481 323.907 54.772Z" fill="#7622FF"/>
<path d="M323.906 54.772C323.906 54.772 324.798 90.5972 331.867 100.733C331.867 100.733 323.34 89.3719 323.906 54.772Z" fill="#05374A"/>
<path d="M403.612 93.3596C403.612 93.3596 401.836 117.505 386.323 112.724C386.323 112.724 380.832 99.6634 403.612 93.3596Z" fill="#7622FF"/>
<path d="M403.611 93.3596C403.611 93.3596 384.709 111.378 382.699 120.168C382.699 120.168 384.659 109.99 403.611 93.3596Z" fill="#05374A"/>
<path d="M453.496 45.4934C453.496 45.4934 456.921 71.0768 439.236 69.731C439.236 69.731 430.468 57.4068 453.496 45.4934Z" fill="#7622FF"/>
<path d="M453.495 45.4934C453.495 45.4934 437.212 68.7111 436.992 78.3438C436.992 78.3438 436.851 67.2804 453.495 45.4934Z" fill="#05374A"/>
<path d="M510.174 134.433C500.188 138.456 489.283 138.711 478.633 138.732C486.686 129.319 492.234 123.093 492.234 123.093V117.611C492.234 117.611 476.05 137.713 460.268 154.039C459.61 148.33 459.285 142.593 459.129 136.848C459.872 137.422 461.075 137.344 461.266 136.183C462.214 130.226 464.783 125.006 468.074 120.005C469.079 118.482 466.644 117.052 465.647 118.567C462.696 123.058 460.282 127.761 459.044 132.953C458.987 129.27 458.973 125.58 458.973 121.904C458.973 120.083 456.157 120.069 456.157 121.889C456.157 133.491 456.284 145.086 457.77 156.603C443.659 170.868 430.574 181.067 430.574 169.848C430.574 164.875 429.52 156.248 427.835 145.667C428.324 145.383 428.67 144.845 428.529 144.137C426.321 133.42 434.643 125.31 442.633 119.651C444.098 118.61 442.711 116.152 441.225 117.208C434.65 121.868 428.253 127.874 426.123 135.396C424.205 124.397 421.855 112.115 419.428 99.982C420.9 95.2294 422.025 90.3918 422.811 85.4975C423.115 85.795 423.547 85.972 424.063 85.8941C427.708 85.3417 430.893 83.748 433.539 81.4744C433.801 81.6019 434.12 81.6444 434.48 81.5523C440.871 79.8241 447.509 79.8595 454.083 79.8595C455.902 79.8595 455.916 77.0405 454.097 77.0405C448.266 77.0405 442.378 77.0405 436.646 78.1596C437.835 76.6085 438.854 74.9015 439.668 73.0883C440.404 71.4451 437.983 69.9931 437.24 71.6505C434.58 77.5859 429.923 82.1756 423.32 83.1743C423.257 83.1814 423.2 83.2026 423.143 83.2168C423.844 78.195 424.198 73.1166 424.226 68.024C424.233 66.2037 421.417 66.1895 421.41 68.0098C421.367 76.7785 420.327 85.455 418.197 93.919C411.764 62.2373 405.218 33.2896 405.218 33.2896C405.218 33.2896 407.893 48.1353 410.858 68.2153C402.684 63.0802 396.308 55.9406 389.946 48.7727C388.736 47.4128 386.74 49.396 387.943 50.7559C394.603 58.2567 401.312 65.6867 409.938 70.9705C410.426 71.268 410.901 71.2326 411.269 71.0201C413.335 85.2354 415.493 101.753 416.944 117.392C413.477 112.356 409.535 107.695 404.425 104.182C402.925 103.148 401.503 105.585 402.989 106.612C409.174 110.868 413.54 116.988 417.461 123.313C419.704 150.695 419.4 174.005 412.061 175.231C403.52 176.654 394.638 144.505 381.794 118.915C382.452 119.07 383.174 118.815 383.351 117.951C385.056 109.459 386.847 100.995 387.745 92.3679C387.936 90.5547 385.113 90.5547 384.929 92.3537C384.065 100.598 382.346 108.687 380.718 116.804C375.29 106.335 369.155 97.1984 362.057 92.2616C362.057 92.2616 377.739 113.284 390.71 147.855C374.328 141.353 361.512 128.887 347.11 118.964C345.61 117.93 344.188 120.367 345.674 121.394C352.637 126.196 359.233 131.55 366.027 136.551C358.511 137.302 350.932 135.708 343.423 137.068C341.64 137.394 342.376 140.114 344.159 139.795C352.503 138.279 360.96 140.439 369.317 138.931C376.366 143.917 383.719 148.386 391.998 151.347C406.025 190.303 416.045 245.302 397.688 306.434H438.797C438.797 306.434 402.486 236.158 443.319 182.236C454.175 167.907 466.609 152.891 476.226 141.58C487.854 141.58 499.962 141.601 510.903 137.188C512.566 136.516 511.858 133.782 510.167 134.461L510.174 134.433Z" fill="#05374A"/>
<path d="M428.191 28.6218C428.191 28.6218 431.617 54.2052 413.932 52.8595C413.932 52.8595 405.164 40.5352 428.191 28.6218Z" fill="#7622FF"/>
<path d="M428.191 28.6218C428.191 28.6218 411.907 51.8395 411.688 61.4722C411.688 61.4722 411.546 50.4088 428.191 28.6218Z" fill="#05374A"/>
<path d="M422.941 12.1968C422.941 12.1968 426.367 37.7802 408.682 36.4344C408.682 36.4344 399.914 24.1102 422.941 12.1968Z" fill="#7622FF"/>
<path d="M422.941 12.1968C422.941 12.1968 406.657 35.4145 406.438 45.0472C406.438 45.0472 406.296 33.9837 422.941 12.1968Z" fill="#05374A"/>
<path d="M528.956 80.1499C528.956 80.1499 524.03 105.485 507.697 98.5512C507.697 98.5512 503.324 84.0738 528.956 80.1499Z" fill="#7622FF"/>
<path d="M528.956 80.1499C528.956 80.1499 506.112 96.9363 502.828 105.995C502.828 105.995 506.225 95.4702 528.956 80.1499Z" fill="#05374A"/>
<path d="M499.089 65.5874C499.089 65.5874 480.739 83.7196 471.164 68.7676C471.164 68.7676 475.722 54.3469 499.089 65.5874Z" fill="#7622FF"/>
<path d="M499.09 65.5873C499.09 65.5873 470.762 66.5365 462.949 72.1532C462.949 72.1532 471.689 65.3819 499.09 65.5873Z" fill="#05374A"/>
<path d="M440.52 45.4934C440.52 45.4934 443.945 71.0768 426.26 69.731C426.26 69.731 417.492 57.4068 440.52 45.4934Z" fill="#7622FF"/>
<path d="M440.519 45.4934C440.519 45.4934 424.235 68.7111 424.016 78.3438C424.016 78.3438 423.874 67.2804 440.519 45.4934Z" fill="#05374A"/>
<path d="M384.234 176.102C384.234 176.102 386.669 209.221 407.949 202.663C407.949 202.663 415.478 184.75 384.234 176.102Z" fill="#7622FF"/>
<path d="M384.234 176.102C384.234 176.102 410.157 200.821 412.917 212.869C412.917 212.869 410.227 198.916 384.234 176.102Z" fill="#05374A"/>
<path d="M468.889 91.4683C468.889 91.4683 452.011 109.763 466.497 118.072C466.497 118.072 480.155 113.029 468.889 91.4683Z" fill="#7622FF"/>
<path d="M468.889 91.4683C468.889 91.4683 468.641 118.341 463.461 126.026C463.461 126.026 469.724 117.406 468.889 91.4683Z" fill="#05374A"/>
<path d="M398.573 0C398.573 0 388.539 22.7856 404.943 25.9446C404.943 25.9446 416.23 16.7369 398.573 0Z" fill="#7622FF"/>
<path d="M398.574 0C398.574 0 407.052 25.4984 404.639 34.4512C404.639 34.4512 407.767 24.266 398.574 0Z" fill="#05374A"/>
<path d="M498.852 155.526C498.852 155.526 478.626 171.54 470.75 155.639C470.75 155.639 476.857 141.799 498.852 155.526Z" fill="#7622FF"/>
<path d="M498.851 155.526C498.851 155.526 470.593 153.373 462.207 158.104C462.207 158.104 471.633 152.332 498.851 155.526Z" fill="#05374A"/>
<path d="M489.8 97.0781C489.8 97.0781 499.021 121.181 481.506 123.958C481.506 123.958 470.141 113.992 489.8 97.0781Z" fill="#7622FF"/>
<path d="M489.802 97.0781C489.802 97.0781 479.3 123.426 481.303 132.847C481.303 132.847 478.614 122.116 489.802 97.0781Z" fill="#05374A"/>
<path d="M527.073 157.842C527.073 157.842 515.863 135.609 503.012 146.283C503.012 146.283 502.948 160.859 527.073 157.842Z" fill="#7622FF"/>
<path d="M527.074 157.842C527.074 157.842 502.015 148.195 496.637 140.652C496.637 140.652 502.51 149.541 527.074 157.842Z" fill="#05374A"/>
<path d="M477.086 120.869C477.086 120.869 480.511 146.453 462.826 145.107C462.826 145.107 454.058 132.783 477.086 120.869Z" fill="#7622FF"/>
<path d="M477.085 120.869C477.085 120.869 460.801 144.087 460.582 153.72C460.582 153.72 460.441 142.656 477.085 120.869Z" fill="#05374A"/>
<path d="M458.594 104.628C458.594 104.628 433.174 100.301 439.706 83.7906C439.706 83.7906 454.065 79.0804 458.594 104.628Z" fill="#7622FF"/>
<path d="M458.593 104.628C458.593 104.628 441.283 82.1685 432.168 79.0945C432.168 79.0945 442.762 82.2464 458.593 104.628Z" fill="#05374A"/>
<path d="M466.984 46.5488C466.984 46.5488 446.044 59.9992 457.976 71.6931C457.976 71.6931 472.469 70.2552 466.984 46.5488Z" fill="#7622FF"/>
<path d="M466.983 46.5488C466.983 46.5488 459.977 72.4863 453.027 78.6201C453.027 78.6201 461.258 71.856 466.983 46.5488Z" fill="#05374A"/>
<path d="M390.52 87.9978C390.52 87.9978 392.076 109.218 405.713 105.018C405.713 105.018 410.54 93.5366 390.52 87.9978Z" fill="#7622FF"/>
<path d="M390.52 87.9978C390.52 87.9978 407.129 103.835 408.898 111.555C408.898 111.555 407.178 102.617 390.52 87.9978Z" fill="#05374A"/>
<path d="M389.184 21.4824C389.184 21.4824 390.74 42.7027 404.385 38.5026C404.385 38.5026 409.211 27.0212 389.184 21.4824Z" fill="#7622FF"/>
<path d="M389.184 21.4824C389.184 21.4824 405.793 37.3198 407.569 45.0401C407.569 45.0401 405.849 36.1015 389.184 21.4824Z" fill="#05374A"/>
<path d="M299.98 62.5845C299.98 62.5845 301.537 83.8048 315.181 79.6046C315.181 79.6046 320.008 68.1233 299.98 62.5845Z" fill="#7622FF"/>
<path d="M299.98 62.5845C299.98 62.5845 316.59 78.4218 318.359 86.1492C318.359 86.1492 316.639 77.2035 299.98 62.5845Z" fill="#05374A"/>
<path d="M339.516 75.0149C339.516 75.0149 349.989 102.567 361.298 93.912C361.298 93.912 361.072 77.7064 339.516 75.0149Z" fill="#7622FF"/>
<path d="M339.516 75.0149C339.516 75.0149 362.154 92.0351 367.115 101.781C367.115 101.781 361.68 90.4131 339.516 75.0149Z" fill="#05374A"/>
<path d="M295.16 110.649C295.16 110.649 323.658 121.585 325.244 105.443C325.244 105.443 312.767 93.8483 295.16 110.649Z" fill="#7622FF"/>
<path d="M295.16 110.649C295.16 110.649 324.437 103.332 335.427 106.109C335.427 106.109 322.866 102.567 295.16 110.649Z" fill="#05374A"/>
<path d="M309.102 139.944C309.102 139.944 339.985 152.077 343.29 130.042C343.29 130.042 330.41 115.493 309.102 139.944Z" fill="#7622FF"/>
<path d="M309.102 139.943C309.102 139.943 342.582 127.251 354.634 129.971C354.634 129.971 340.905 126.359 309.102 139.943Z" fill="#05374A"/>
<path d="M301.812 83.6772C301.812 83.6772 313.277 114.835 331.931 102.659C331.931 102.659 334.231 83.3585 301.812 83.6772Z" fill="#7622FF"/>
<path d="M301.812 83.6772C301.812 83.6772 333.538 100.28 339.518 111.095C339.518 111.095 333.085 98.4238 301.812 83.6772Z" fill="#05374A"/>
<path d="M340.707 91.8579C340.707 91.8579 352.171 123.023 370.826 110.84C370.826 110.84 373.126 91.5392 340.707 91.8579Z" fill="#7622FF"/>
<path d="M340.707 91.8579C340.707 91.8579 372.432 108.46 378.412 119.276C378.412 119.276 371.979 106.604 340.707 91.8579Z" fill="#05374A"/>
<path d="M348.266 152.14C348.266 152.14 372.334 174.997 383.664 155.816C383.664 155.816 377.188 137.493 348.266 152.14Z" fill="#7622FF"/>
<path d="M348.266 152.141C348.266 152.141 384.06 152.962 394.208 160.017C394.208 160.017 382.836 151.503 348.266 152.141Z" fill="#05374A"/>
<path d="M356.672 178.17C356.672 178.17 389.048 185.451 388.949 163.161C388.949 163.161 374.003 150.752 356.672 178.17Z" fill="#7622FF"/>
<path d="M356.672 178.17C356.672 178.17 387.831 160.512 400.152 161.362C400.152 161.362 386.026 159.889 356.672 178.17Z" fill="#05374A"/>
<path d="M344.145 125.955C344.145 125.955 368.213 148.811 379.543 129.631C379.543 129.631 373.067 111.307 344.145 125.955Z" fill="#7622FF"/>
<path d="M344.145 125.955C344.145 125.955 379.939 126.777 390.08 133.831C390.08 133.831 378.708 125.318 344.145 125.955Z" fill="#05374A"/>
<path d="M310.949 117.76C310.949 117.76 335.017 140.617 346.354 121.436C346.354 121.436 339.879 103.113 310.949 117.76Z" fill="#7622FF"/>
<path d="M310.949 117.76C310.949 117.76 346.744 118.582 356.892 125.636C356.892 125.636 345.519 117.123 310.949 117.76Z" fill="#05374A"/>
<path d="M325.371 148.075C325.371 148.075 355.915 161.044 359.814 139.101C359.814 139.101 347.337 124.213 325.371 148.075Z" fill="#7622FF"/>
<path d="M325.371 148.075C325.371 148.075 359.184 136.296 371.158 139.342C371.158 139.342 357.528 135.361 325.371 148.075Z" fill="#05374A"/>
<path d="M330.27 53.0862C330.27 53.0862 358.768 64.0222 360.353 47.8803C360.353 47.8803 347.877 36.2856 330.27 53.0862Z" fill="#7622FF"/>
<path d="M330.27 53.0862C330.27 53.0862 359.546 45.7695 370.536 48.546C370.536 48.546 357.975 45.0046 330.27 53.0862Z" fill="#05374A"/>
<path d="M449.173 14.2578C449.173 14.2578 423.831 35.6977 441.651 49.0773C441.651 49.0773 460.553 44.6434 449.173 14.2578Z" fill="#7622FF"/>
<path d="M449.175 14.2578C449.175 14.2578 444.433 49.7785 436.316 59.0996C436.316 59.0996 446.019 48.7231 449.175 14.2578Z" fill="#05374A"/>
<path d="M503.061 77.3594C503.061 77.3594 477.726 98.7993 495.538 112.179C495.538 112.179 514.44 107.745 503.061 77.3594Z" fill="#7622FF"/>
<path d="M503.062 77.3594C503.062 77.3594 498.32 112.88 490.203 122.201C490.203 122.201 499.905 111.825 503.062 77.3594Z" fill="#05374A"/>
<path d="M360.359 60.1123C360.359 60.1123 384.428 82.9688 395.757 63.7884C395.757 63.7884 389.282 45.4649 360.359 60.1123Z" fill="#7622FF"/>
<path d="M360.359 60.1125C360.359 60.1125 396.154 60.9341 406.302 67.9886C406.302 67.9886 394.929 59.475 360.359 60.1125Z" fill="#05374A"/>
<path d="M347.988 15.3132C347.988 15.3132 360.09 46.2371 378.482 33.6791C378.482 33.6791 380.386 14.3357 347.988 15.3132Z" fill="#7622FF"/>
<path d="M347.988 15.313C347.988 15.313 380.046 31.2636 386.245 41.9588C386.245 41.9588 379.558 29.4221 347.988 15.313Z" fill="#05374A"/>
<path d="M333.918 93.1753C333.918 93.1753 336.352 126.295 357.632 119.736C357.632 119.736 365.162 101.823 333.918 93.1753Z" fill="#7622FF"/>
<path d="M333.918 93.1753C333.918 93.1753 359.84 117.895 362.6 129.943C362.6 129.943 359.911 115.989 333.918 93.1753Z" fill="#05374A"/>
<path d="M385.115 12.7563C385.115 12.7563 408.001 36.8027 388.852 48.1779C388.852 48.1779 370.537 41.7324 385.115 12.7563Z" fill="#7622FF"/>
<path d="M385.117 12.7563C385.117 12.7563 386.009 48.5816 393.078 58.7172C393.078 58.7172 384.551 47.3562 385.117 12.7563Z" fill="#05374A"/>
<path d="M424.744 93.1541C424.744 93.1541 413.194 121.429 429.28 123.37C429.28 123.37 441.134 111.137 424.744 93.1541Z" fill="#7622FF"/>
<path d="M424.742 93.1541C424.742 93.1541 431.409 122.612 428.401 133.548C428.401 133.548 432.215 121.061 424.742 93.1541Z" fill="#05374A"/>
<path d="M354.309 34.4724C354.309 34.4724 365.773 65.6371 384.427 53.4545C384.427 53.4545 386.727 34.1537 354.309 34.4724Z" fill="#7622FF"/>
<path d="M354.309 34.4724C354.309 34.4724 386.041 51.0747 392.014 61.8903C392.014 61.8903 385.581 49.219 354.309 34.4724Z" fill="#05374A"/>
<path d="M395.125 51.1597C395.125 51.1597 397.559 84.2792 418.839 77.7205C418.839 77.7205 426.369 59.8079 395.125 51.1597Z" fill="#7622FF"/>
<path d="M395.125 51.1597C395.125 51.1597 421.047 75.8789 423.807 87.9269C423.807 87.9269 421.118 73.9736 395.125 51.1597Z" fill="#05374A"/>
<path d="M544.002 131.989C544.002 131.989 519.609 154.499 508.555 135.148C508.555 135.148 515.292 116.924 544.002 131.989Z" fill="#7622FF"/>
<path d="M544.002 131.989C544.002 131.989 508.2 132.294 497.953 139.2C497.953 139.2 509.446 130.856 544.002 131.989Z" fill="#05374A"/>
<path d="M78.2699 311.498C76.982 309.076 73.9319 307.376 70.3793 307.376C68.8295 307.376 67.3788 307.702 66.1262 308.261C66.0271 308.169 65.928 308.07 65.8219 307.985C65.8431 307.78 65.8573 307.581 65.8573 307.376C65.8573 303.672 62.0287 300.676 57.3085 300.676C53.6003 300.676 50.444 302.531 49.2551 305.116C48.2714 304.805 47.1958 304.635 46.0635 304.635C41.6192 304.635 37.9676 307.291 37.5501 310.684C32.7379 312.015 29.7656 313.836 29.7656 315.854C29.7656 319.913 41.7962 323.199 56.6291 323.199C71.4621 323.199 83.4926 319.913 83.4926 315.854C83.4926 314.225 81.5465 312.716 78.2629 311.498H78.2699Z" fill="#195A75"/>
<path d="M28.3438 200.679C28.3438 200.679 65.1431 250.019 46.7434 311.293H67.9738C67.9738 311.293 49.2203 275 70.3091 247.15C81.3489 232.566 95.5733 216.616 95.5733 216.616V213.783C95.5733 213.783 63.7277 253.341 63.7277 240.761C63.7277 228.182 50.6356 170.223 50.6356 170.223C50.6356 170.223 63.572 241.965 54.174 243.531C47.8049 244.593 41.082 209.533 28.3438 200.679Z" fill="#05374A"/>
<path d="M122.837 193.483C122.837 193.483 114.989 220.334 98.613 211.169C98.613 211.169 95.57 195.084 122.837 193.483Z" fill="#7622FF"/>
<path d="M122.838 193.483C122.838 193.483 97.1205 209.264 92.7188 218.698C92.7188 218.698 97.3965 207.677 122.838 193.483Z" fill="#05374A"/>
<path d="M84.7911 200.396C84.7911 200.396 80.8706 228.097 63.3555 221.375C63.3555 221.375 58.0409 205.892 84.7911 200.396Z" fill="#7622FF"/>
<path d="M84.7928 200.396C84.7928 200.396 61.6021 219.704 58.6016 229.677C58.6016 229.677 61.6517 218.096 84.7928 200.396Z" fill="#05374A"/>
<path d="M81.8162 169.373C81.8162 169.373 79.7639 197.273 61.8384 191.748C61.8384 191.748 55.4976 176.654 81.8162 169.373Z" fill="#7622FF"/>
<path d="M81.8157 169.373C81.8157 169.373 59.9767 190.197 57.6484 200.346C57.6484 200.346 59.913 188.589 81.8157 169.373Z" fill="#05374A"/>
<path d="M67.0534 155.398C67.0534 155.398 69.9407 176.952 55.037 175.818C55.037 175.818 47.6488 165.435 67.0534 155.398Z" fill="#7622FF"/>
<path d="M67.0544 155.398C67.0544 155.398 53.3395 174.961 53.1485 183.071C53.1485 183.071 53.0282 173.75 67.0544 155.398Z" fill="#05374A"/>
<path d="M33.6641 184.906C33.6641 184.906 35.7163 212.805 53.6418 207.281C53.6418 207.281 59.9826 192.187 33.6641 184.906Z" fill="#7622FF"/>
<path d="M33.6641 184.906C33.6641 184.906 55.503 205.729 57.8313 215.879C57.8313 215.879 55.5667 204.122 33.6641 184.906Z" fill="#05374A"/>
<path d="M89.5702 198.307C89.5702 198.307 75.3459 213.719 87.5533 220.724C87.5533 220.724 99.0602 216.474 89.5702 198.307Z" fill="#7622FF"/>
<path d="M89.5709 198.307C89.5709 198.307 89.3586 220.944 84.9922 227.417C84.9922 227.417 90.2644 220.157 89.5709 198.307Z" fill="#05374A"/>
<path d="M36.7305 157.955C36.7305 157.955 38.0467 175.833 49.5324 172.291C49.5324 172.291 53.5945 162.623 36.7305 157.955Z" fill="#7622FF"/>
<path d="M36.7305 157.955C36.7305 157.955 50.7284 171.299 52.2145 177.802C52.2145 177.802 50.7637 170.265 36.7305 157.955Z" fill="#05374A"/>
<path d="M5.70312 191.734C5.70312 191.734 15.3629 217.99 31.0734 207.727C31.0734 207.727 33.0125 191.472 5.70312 191.734Z" fill="#7622FF"/>
<path d="M5.70312 191.733C5.70312 191.733 32.4322 205.722 37.4708 214.838C37.4708 214.838 32.0571 204.164 5.70312 191.733Z" fill="#05374A"/>
<path d="M0 212.564C0 212.564 20.275 231.823 29.8287 215.66C29.8287 215.66 24.3725 200.226 0 212.564Z" fill="#7622FF"/>
<path d="M0 212.564C0 212.564 30.1542 213.258 38.703 219.201C38.703 219.201 29.121 212.033 0 212.564Z" fill="#05374A"/>
<path d="M16.8906 253.518C16.8906 253.518 35.5238 274.37 46.3655 259.042C46.3655 259.042 42.1902 243.212 16.8906 253.518Z" fill="#7622FF"/>
<path d="M16.8906 253.518C16.8906 253.518 46.8891 256.677 54.9213 263.299C54.9213 263.299 45.9621 255.366 16.8906 253.518Z" fill="#05374A"/>
<path d="M25.582 219.973C25.582 219.973 27.6343 247.873 45.5598 242.348C45.5598 242.348 51.9006 227.254 25.582 219.973Z" fill="#7622FF"/>
<path d="M25.582 219.973C25.582 219.973 47.421 240.797 49.7493 250.947C49.7493 250.947 47.4847 239.189 25.582 219.973Z" fill="#05374A"/>
<path d="M124.657 220.058C124.657 220.058 104.106 239.019 94.793 222.721C94.793 222.721 100.469 207.365 124.657 220.058Z" fill="#7622FF"/>
<path d="M124.658 220.058C124.658 220.058 94.497 220.313 85.8633 226.135C85.8633 226.135 95.5443 219.102 124.658 220.058Z" fill="#05374A"/>
</g>
<defs>
<clipPath id="clip0_2455_25306">
<rect width="544" height="329" fill="white"/>
</clipPath>
</defs>
</svg>
