<svg width="119" height="50" viewBox="0 0 119 50" fill="none" xmlns="http://www.w3.org/2000/svg">
<g clip-path="url(#clip0_1625_1282)">
<path d="M102.275 21.8394C100.288 22.2979 95.0403 22.5526 95.0403 22.5526L94.395 24.6245C94.395 24.6245 96.9933 24.4037 98.8953 24.5905C98.8953 24.5905 99.5067 24.5396 99.5746 25.2698C99.6086 26.017 99.5237 26.7982 99.5237 26.7982C99.5237 26.7982 99.4727 27.2567 98.8444 27.3756C98.1142 27.4945 93.1893 27.7153 93.1893 27.7153L92.3911 30.3985C92.3911 30.3985 92.1024 31.0098 92.7647 30.84C93.3761 30.6702 98.5387 29.6852 99.218 29.8211C99.9313 29.9909 100.746 30.9759 100.509 31.859C100.237 32.9289 95.0743 36.2234 91.9496 36.0027C91.9496 36.0027 90.3023 36.1046 88.9267 33.8799C87.6021 31.7571 89.3852 27.7662 89.3852 27.7662C89.3852 27.7662 88.587 25.8981 89.1814 25.2189C89.1814 25.2189 89.5211 24.9302 90.54 24.8452L91.8137 22.2299C91.8137 22.2299 90.3702 22.3149 89.5211 21.262C88.7399 20.243 88.672 19.8015 89.2833 19.5297C89.9286 19.1901 95.9064 18.1202 100.016 18.2561C100.016 18.2561 101.46 18.0862 102.733 20.5827C102.733 20.5827 103.311 21.6016 102.292 21.8394H102.275ZM86.7869 31.8929C86.2774 33.1326 84.8679 34.4403 83.1697 33.6421C81.4374 32.827 78.7033 27.2567 78.7033 27.2567C78.7033 27.2567 77.6843 25.1849 77.4806 25.2528C77.4806 25.2528 77.2598 24.8452 77.1409 27.1209C76.9711 29.3795 77.1749 33.778 76.2408 34.4743C75.3917 35.1535 74.3728 34.8649 73.7954 34.0667C73.3199 33.2685 73.1161 31.3495 73.3878 28.004C73.6935 24.6584 74.4577 21.0921 75.4257 19.9883C76.4446 18.8674 77.2598 19.6826 77.5655 19.9883C77.5655 19.9883 78.8731 21.177 81.0808 24.6924L81.4544 25.3377C81.4544 25.3377 83.4584 28.6833 83.6621 28.6663C83.6621 28.6663 83.832 28.8361 83.9678 28.7002C84.1716 28.6493 84.1037 27.5624 84.1037 27.5624C84.1037 27.5624 83.7301 23.9452 81.862 17.8315C81.862 17.8315 81.5903 17.0503 81.7771 16.3031C81.9469 15.6238 82.6772 15.9634 82.6772 15.9634C82.6772 15.9634 85.4962 17.322 86.8718 21.9073C88.2304 26.4925 87.3134 30.6532 86.8039 31.8929H86.7869ZM72.9632 20.1241C72.6915 20.5996 72.5726 21.262 71.4008 21.4488C71.4008 21.4488 60.0226 22.2469 59.4622 23.0451C59.4622 23.0451 59.0886 23.5206 59.7 23.6395C60.3453 23.7753 62.9266 24.115 64.1494 24.1829C65.474 24.1829 69.9234 24.2169 71.5537 26.2208C71.5537 26.2208 72.4877 27.1718 72.4538 29.3286C72.4198 31.5363 72.0292 32.3175 71.1631 33.1157C70.263 33.8629 62.553 37.3273 57.5772 32.0288C57.5772 32.0288 55.3015 29.4814 58.3754 27.5454C58.3754 27.5454 60.5831 26.1868 66.2382 27.7662C66.2382 27.7662 67.9364 28.3776 67.8685 29.0059C67.7666 29.6852 66.459 30.3645 64.5569 30.3306C62.7228 30.2796 61.3643 29.3965 61.636 29.5494C61.8907 29.6343 59.649 28.4625 58.9528 29.2607C58.2735 30.0079 58.4433 30.4494 59.1226 30.908C60.8208 31.8929 67.4949 31.5363 69.4818 29.3116C69.4818 29.3116 70.28 28.4115 69.0743 27.6813C67.8855 27.002 64.4211 26.5774 63.0795 26.5265C61.8058 26.4586 57.0337 26.5265 56.3205 25.2868C56.3205 25.2868 55.6412 24.4037 56.3884 21.9922C57.1696 19.4448 62.7228 18.4599 65.1343 18.2561C65.1343 18.2561 71.7575 17.9844 72.9972 19.3429C72.9972 19.3429 73.167 19.6486 72.9632 20.1071V20.1241ZM54.1807 35.0517C53.3825 35.646 51.6843 35.3913 51.1918 34.712C50.7163 34.1176 50.5465 31.7741 50.6314 28.0889C50.7503 24.3188 50.8012 19.6996 51.6503 18.9523C52.4994 18.2221 53.0089 18.8674 53.3486 19.3599C53.6882 19.8694 54.1298 20.4298 54.1977 21.6016C54.2996 22.7904 54.5883 28.904 54.5883 28.904C54.5883 28.904 54.9619 34.4743 54.1977 35.0517H54.1807ZM55.8789 15.1823C53.5354 15.9804 51.939 15.7257 50.5804 15.1313C49.986 16.2012 49.6294 16.5239 49.1879 16.5918C48.5086 16.6597 47.9142 15.5728 47.8293 15.2332C47.6934 14.9785 47.3708 14.5199 47.7614 13.484C46.4367 12.2952 46.3348 10.6989 46.5726 9.62901C46.8783 8.37232 49.1199 3.65121 55.9129 3.09079C55.9129 3.09079 59.2415 2.85304 59.8189 4.61921H59.9207C59.9207 4.61921 63.1474 4.61921 63.0795 7.50621C63.0795 10.3932 59.5132 13.9935 55.8789 15.2332V15.1823ZM58.9018 6.96278C56.762 7.30242 53.4674 10.1555 51.8881 12.516C54.3166 12.9576 58.5622 12.7877 60.4642 8.94972C60.4642 8.94972 61.3643 6.53822 58.9018 6.96278ZM49.5105 8.83084C48.8312 9.9347 48.7973 10.597 49.1199 11.0386C49.9181 9.84978 51.3277 7.98172 53.4505 6.52123C51.8201 6.69106 50.4446 7.37035 49.5105 8.83084ZM107.37 34.9328C105.807 38.7708 104.483 42.6598 103.718 48.4847C103.718 48.4847 103.549 49.6226 102.614 49.2489C101.68 48.9093 100.152 47.3809 99.8124 45.2241C99.4728 42.405 100.729 37.65 103.294 32.1816C102.547 30.9929 102.02 29.2267 102.445 26.7473C102.445 26.7473 103.124 22.162 107.709 18.0183C107.709 18.0183 108.253 17.5598 108.558 17.7126C108.932 17.8825 108.779 19.3429 108.473 20.0902C108.202 20.8034 106.164 24.3358 106.164 24.3358C106.164 24.3358 104.89 26.7473 105.247 28.6323C107.658 24.9302 113.144 17.4239 116.54 19.8015C118.697 21.3299 118.697 26.2548 117.083 29.1078C115.81 31.3665 112.21 36.0366 107.404 34.9498L107.37 34.9328ZM114.468 23.4017C113.212 24.7603 110.97 27.3417 109.204 30.84C111.072 30.6362 112.889 29.6003 113.449 29.0739C114.349 28.2757 116.421 26.1189 116.099 23.2659C116.099 23.2659 115.895 21.7714 114.468 23.4017ZM38.3871 36.9367C32.3753 38.7708 26.7032 37.9217 23.6124 37.1065C23.5275 38.3632 23.3916 38.8897 23.1878 39.0935C22.9501 39.3652 20.9801 40.486 19.8932 38.8897C19.4177 38.1255 19.18 36.7499 19.0441 35.4932C12.0813 32.3345 8.85468 27.6813 8.75279 27.5115C8.58297 27.3417 7.0036 25.6944 8.58297 23.6565C10.0604 21.8224 14.9514 19.9713 19.3328 19.241C19.5026 15.5049 19.9102 12.6179 20.4367 11.3442C21.065 9.81582 21.8632 11.1744 22.5765 12.1934C23.1539 12.9576 23.5105 16.2352 23.5445 18.8505C26.3975 18.7146 28.1297 18.9184 31.3054 19.5297C35.4831 20.243 38.2682 22.3828 38.0474 24.7943C37.8436 27.1718 35.6699 28.1568 34.8208 28.2247C33.9716 28.2927 32.6131 27.6643 32.6131 27.6643C31.662 27.2228 32.5281 26.8152 33.632 26.3397C34.8547 25.7453 34.583 25.1509 34.583 25.1509C34.1415 23.7923 28.7241 22.8923 23.3407 22.8923C23.3407 25.8642 23.4595 30.7891 23.5445 33.6591C27.3146 34.3724 30.1336 34.2195 30.1336 34.2195C30.1336 34.2195 43.8894 33.8289 44.28 25.049C44.7045 16.2521 30.5242 7.82888 20.08 5.17963C9.65286 2.44546 3.74298 4.38145 3.23351 4.63619C2.67309 4.90791 3.18256 5.0098 3.18256 5.0098C3.18256 5.0098 3.74298 5.09471 4.76193 5.43436C5.78087 5.77401 4.96572 6.28348 4.96572 6.28348C3.18256 6.89485 1.19562 6.53822 0.805029 5.72306C0.414434 4.92489 1.05977 4.19465 1.82397 3.12476C2.53723 2.0209 3.35239 2.05487 3.35239 2.05487C16.259 -2.44547 32.0187 5.62117 32.0187 5.62117C46.7594 13.0595 49.2728 21.8054 49.0011 25.2019C48.7633 28.5474 47.4727 34.2025 38.3871 36.9537V36.9367ZM10.0265 24.7943C8.56598 25.4736 9.58493 26.5605 9.58493 26.5605C12.3361 29.4984 15.6986 31.3495 18.9252 32.5043C19.2989 27.4096 19.2649 25.5925 19.2649 23.0281C14.2721 23.3678 11.3851 24.1829 10.0265 24.7943Z" fill="white"/>
</g>
<defs>
<clipPath id="clip0_1625_1282">
<rect width="118.886" height="50" fill="white"/>
</clipPath>
</defs>
</svg>
