<?xml version="1.0" encoding="UTF-8" standalone="no"?>
<svg
   xmlns:dc="http://purl.org/dc/elements/1.1/"
   xmlns:cc="http://creativecommons.org/ns#"
   xmlns:rdf="http://www.w3.org/1999/02/22-rdf-syntax-ns#"
   xmlns:svg="http://www.w3.org/2000/svg"
   xmlns="http://www.w3.org/2000/svg"
   width="421.45639mm"
   height="421.45575mm"
   viewBox="0 0 1493.3494 1493.3471"
   id="svg4332"
   version="1.1">
  <defs
     id="defs4334" />
  <metadata
     id="metadata4337">
    <rdf:RDF>
      <cc:Work
         rdf:about="">
        <dc:format>image/svg+xml</dc:format>
        <dc:type
           rdf:resource="http://purl.org/dc/dcmitype/StillImage" />
        <dc:title></dc:title>
      </cc:Work>
    </rdf:RDF>
  </metadata>
  <g
     id="g4289"
     transform="translate(1412.3896,234.73309)">
    <path
       id="path4306"
       d="M -665.71267,-234.73309 -1412.3896,511.94154 -665.71486,1258.6141 80.959771,511.93935 Z"
       style="color:#000000;font-style:normal;font-variant:normal;font-weight:normal;font-stretch:normal;font-size:medium;line-height:normal;font-family:sans-serif;text-indent:0;text-align:start;text-decoration:none;text-decoration-line:none;text-decoration-style:solid;text-decoration-color:#000000;letter-spacing:normal;word-spacing:normal;text-transform:none;direction:ltr;block-progression:tb;writing-mode:lr-tb;baseline-shift:baseline;text-anchor:start;white-space:normal;clip-rule:nonzero;display:inline;overflow:visible;visibility:visible;opacity:1;isolation:auto;mix-blend-mode:normal;color-interpolation:sRGB;color-interpolation-filters:linearRGB;solid-color:#000000;solid-opacity:1;fill:#ffffff;fill-opacity:1;fill-rule:nonzero;stroke:none;stroke-width:1;stroke-linecap:butt;stroke-linejoin:miter;stroke-miterlimit:4;stroke-dasharray:none;stroke-dashoffset:0;stroke-opacity:1;color-rendering:auto;image-rendering:auto;shape-rendering:auto;text-rendering:auto;enable-background:accumulate" />
    <path
       style="color:#000000;font-style:normal;font-variant:normal;font-weight:normal;font-stretch:normal;font-size:medium;line-height:normal;font-family:sans-serif;text-indent:0;text-align:start;text-decoration:none;text-decoration-line:none;text-decoration-style:solid;text-decoration-color:#000000;letter-spacing:normal;word-spacing:normal;text-transform:none;direction:ltr;block-progression:tb;writing-mode:lr-tb;baseline-shift:baseline;text-anchor:start;white-space:normal;clip-rule:nonzero;display:inline;overflow:visible;visibility:visible;opacity:1;isolation:auto;mix-blend-mode:normal;color-interpolation:sRGB;color-interpolation-filters:linearRGB;solid-color:#000000;solid-opacity:1;fill:#f03c36;fill-opacity:1;fill-rule:nonzero;stroke:none;stroke-width:12;stroke-linecap:round;stroke-linejoin:bevel;stroke-miterlimit:4;stroke-dasharray:none;stroke-dashoffset:0;stroke-opacity:1;color-rendering:auto;image-rendering:auto;shape-rendering:auto;text-rendering:auto;enable-background:accumulate"
       d="m -667.22852,64.490234 c -118.54403,0 -232.2392,47.092726 -316.0625,130.916016 -57.41338,57.41334 -97.59168,128.84157 -117.21288,206.24219 l 12.3906,0 c 19.3594,-74.1869 58.1621,-142.61134 113.30666,-197.75586 81.57611,-81.57612 192.21208,-127.402346 307.57812,-127.402346 115.36605,0 226.00006,45.826226 307.57618,127.402346 55.14452,55.14452 93.94728,123.56896 113.30664,197.75586 l 12.39062,0 C -253.57632,324.24782 -293.75462,252.81959 -351.16797,195.40625 -434.99126,111.58296 -548.68448,64.490234 -667.22852,64.490234 Z m 0,159.603516 c -119.7494,0 -222.44074,73.35844 -265.60351,177.55469 l 12.99414,0 c 42.39702,-97.45362 139.49933,-165.55469 252.60937,-165.55469 113.11005,0 210.21096,68.10107 252.60743,165.55469 l 12.99609,0 C -444.78711,297.45194 -547.47892,224.09375 -667.22852,224.09375 Z m -435.92188,386.17578 c 18.5047,81.63367 59.731,157.13334 119.85938,217.26172 83.8233,83.82329 197.51847,130.91797 316.0625,130.91797 118.54404,0 232.23726,-47.09468 316.06055,-130.91797 60.12838,-60.12838 101.3547,-135.62805 119.85938,-217.26172 l -12.31641,0 c -18.29297,78.42451 -58.16263,150.91261 -116.02734,208.77735 -81.57612,81.57609 -192.21013,127.40234 -307.57618,127.40234 -115.36604,0 -226.00201,-45.82625 -307.57812,-127.40234 -57.86476,-57.86474 -97.73436,-130.35284 -116.02736,-208.77735 l -12.3164,0 z m 165.99806,0 c 40.31204,110.01146 145.9922,188.57422 269.92382,188.57422 123.93163,0 229.61036,-78.56276 269.92188,-188.57422 l -12.80274,0 c -39.68903,103.30163 -139.79238,176.57422 -257.11914,176.57422 -117.32675,0 -217.43153,-73.27259 -257.12109,-176.57422 l -12.80273,0 z"
       id="path4510" />
    <path
       style="font-style:normal;font-variant:normal;font-weight:normal;font-stretch:normal;font-size:117.5px;line-height:125%;font-family:'BentonSans Bold';-inkscape-font-specification:'BentonSans Bold, ';text-align:center;letter-spacing:10px;word-spacing:0px;writing-mode:lr-tb;text-anchor:middle;opacity:1;fill:#01874f;fill-opacity:1;stroke:none;stroke-width:1px;stroke-linecap:butt;stroke-linejoin:miter;stroke-opacity:1"
       d="m -972.05664,610.68555 -77.19336,36.34179 7.6855,16.4961 27.0997,-13.42774 10.125,21.26758 c 3.3314,6.9978 16.76158,19.55911 36.08589,10.08594 16.00673,-7.84682 20.60929,-18.84318 12.23438,-36.65625 z m 607.52148,7.71289 -25.22851,53.3457 75.91406,36.98828 28.62695,-56.75586 -13.00195,-6.10547 -19.88477,42.03516 -21.13476,-10.23828 17.8457,-34.04102 -13.16406,-6.51562 -17.72461,33.64062 -17.41211,-8.51367 17.78711,-37.73242 z m -613.02148,13.99414 6.61914,13.93164 c 5.61468,11.81638 3.33075,17.27394 -6.07812,20.11523 -7.11486,2.14856 -12.42655,2.28778 -16.47852,-6.22851 l -7.71096,-16.20703 z m 35.96625,41.63333 -68.66601,51.42188 37.95898,50.98828 11.35352,-8.79883 -26.5293,-37.43555 17.1543,-12.43945 22.37305,29.65234 11.79296,-8.75781 -22.79101,-30.15039 16.00976,-11.79297 22.50391,30.91602 12.25195,-9.17578 z m 554.63531,14.6069 c -6.63172,-0.65333 -21.15003,4.0834 -27.25976,14.78711 -9.86075,17.27517 -4.55549,35.92386 12.34179,51.22461 6.41684,5.81055 20.99958,14.48703 34.63867,15.36524 12.6137,0.81219 25.71288,-5.16911 30.91993,-14.74024 9.34071,-17.16925 6.41568,-30.24397 -3.2793,-40.49805 l -13.76367,7.19727 4.12977,5.44393 c 3.3565,4.42459 2.91649,15.39845 -1.28016,20.10294 -11.33018,12.70125 -27.16795,5.85492 -38.51563,-3.02148 -14.2743,-11.16567 -17.96263,-22.40485 -11.28906,-32.66211 5.57487,-8.56856 15.87006,-9.75843 24.62695,-5.75284 l 0.3086,-16.30575 z m -514.58594,41.16211 -57.00195,63.48438 13.49219,12.21289 19.75,-22.9043 17.5957,15.66016 c 5.7892,5.15304 23.04406,11.50985 37.16797,-4.72852 11.69913,-13.45059 11.66649,-25.37298 -2.97266,-38.53125 z m 467.53321,6.18946 -13.86133,10.60742 28.54687,38.01758 c 9.9844,13.29699 14.76224,19.35987 3.78045,29.24402 -8.89692,8.00766 -16.9603,7.95995 -26.84099,-5.22645 l -31.67188,-42.26757 -14.25976,10.95507 34.47265,46.13086 c 12.55236,16.7978 36.08636,15.60611 49.91407,1.32031 15.45882,-15.97092 15.68383,-29.16601 2.1914,-46.74218 z m -464.16602,15.94726 11.51367,10.26563 c 9.76543,8.7056 9.78193,14.62203 2.2168,20.89648 -5.72064,4.74465 -10.56045,6.93628 -17.60352,0.66406 l -13.40429,-11.93554 z m 49.69336,23.54492 -43.82226,73.20703 15.57812,9.41016 15.00977,-26.25781 20.26367,12.01172 c 6.66721,3.95184 24.81939,6.89196 35.58008,-11.7461 8.91331,-15.4383 6.60253,-27.13352 -10.28125,-37.25195 z m 333.16992,17.97266 -18.07422,9.17383 10.97266,89.7539 16.01758,-6.97656 -2.39063,-18.58984 28.26172,-14.06446 13.42188,12.72852 16.35742,-7.51172 z m -325.63476,3.11328 13.26367,7.875 c 11.24902,6.67913 12.39473,12.4854 6.16797,20.08984 -4.70858,5.75036 -9.04052,8.82642 -17.15235,4.01563 l -15.4375,-9.1543 z m 52.83008,12.04492 -27.73633,81.17969 60.09375,20.72266 4.41992,-13.66797 -43.01367,-15.97071 7.1582,-19.94336 35.19336,11.88282 4.80469,-13.88086 -35.81836,-12.0586 6.57812,-18.76562 36.01172,12.85547 4.94922,-14.48633 z m 273.05664,8.58008 24.61132,24.00781 -19.67968,9.48242 z m -66.39453,2.89453 c -3.71552,-0.0704 -8.14714,0.43859 -13.8379,1.74609 -12.66234,2.9093 -23.1056,16.38638 -21.33007,29.84766 1.99209,15.10316 16.40087,18.7867 32.48632,19.63477 9.08431,0.47895 21.01821,2.52471 22.40235,9.80078 1.25164,6.5795 -1.1821,9.8117 -9.34961,13.12109 -8.46497,3.42991 -19.66903,0.97315 -23.60156,-2.79883 l -11.82813,9.90625 c 2.07317,5.35153 15.92636,11.64678 35.63086,8.4375 17.07442,-2.78092 28.94937,-19.21395 26.58008,-32.89453 -3.38114,-19.52317 -24.46105,-19.96502 -38.06445,-20.83593 -11.80662,-0.75589 -16.21289,-1.94898 -17.85743,-8.6836 -1.22643,-5.02242 2.27431,-10.30134 10.15039,-12.22461 8.21852,-2.00689 18.37756,2.39866 21.58008,5.23242 l 6.96485,-13.76171 c -7.04154,-3.41567 -11.75166,-6.37256 -19.92578,-6.52735 z m -142.63086,7.95703 -6.83204,85.79297 17.24219,1.74609 2.75391,-34.11523 19.91992,1.24609 10.89844,35.73047 18.79687,0.49219 -12.4414,-37.0957 c 10.87437,-2.23192 16.06253,-12.4297 17.15429,-17.97852 0.7085,-3.60091 5.00741,-29.91732 -26.5,-32.61523 z m 16.07031,16.29688 12.54297,0.7207 c 10.54579,0.60621 22.17817,1.9669 21.54687,13.31055 -0.67308,12.09445 -12.56109,10.54772 -23.08594,9.64843 l -12.82812,-1.0957 z"
       id="path4252" />
    <path
       style="opacity:1;fill:#01874f;fill-opacity:1;fill-rule:evenodd;stroke:none"
       d="m -196.31641,403.62695 c -21.80058,0 -37.67167,10.55838 -50.51367,28.08985 -12.85186,17.54492 -20.4043,41.25425 -20.4043,71.14648 10e-6,29.84677 6.16919,50.52821 19.01563,68.10742 12.84742,17.58055 30.10176,29.40625 51.90234,29.40625 21.77019,0 39.05734,-13.5915 51.97071,-31.17383 8.95998,-12.19956 17.97851,-36.49307 17.97851,-66.33984 0,-29.80128 -7.46358,-53.13837 -20.37695,-70.7207 -12.90976,-17.57742 -27.80208,-28.51563 -49.57227,-28.51563 z m -157.43554,2.25977 c -23.9842,0 -33.84465,10.13678 -43.44922,21.16992 -13.99447,16.07599 -22.12695,47.1344 -22.12695,77.2207 -10e-6,30.0863 7.21172,53.98453 19.13476,71.68946 11.92304,17.70493 29.80877,26.56445 50.04297,26.56445 12.50894,0 31.43603,-7.34455 43.41797,-25.05078 5.6973,-8.41916 10.62852,-22.41702 12.43945,-33.88672 l -25.21289,-14.77148 c -1.21664,9.21627 -4.83982,20.00464 -8.80664,26.67578 -12.86901,21.64229 -36.86365,25.4259 -50.17969,-5.28711 -5.65834,-13.05076 -9.24804,-34.04038 -9.24804,-45.375 0,-6.69299 4.10377,-38.85101 11.30078,-51.10547 9.26171,-15.77005 18.86056,-19.0102 28.83789,-16.09375 8.17262,2.38892 18.41683,13.92315 22.49023,20.16992 l 24.29492,-16.1582 c -10.37228,-20.05324 -27.55922,-35.76172 -52.93554,-35.76172 z m -156.6836,1.92383 c -25.48337,0 -54.76367,18.30633 -54.76367,48.49414 0,26.41409 18.95601,41.85019 32.95313,47.14062 19.88944,7.51752 57.88086,15.26765 57.88086,41.39258 0,13.00368 -10.59964,27.35547 -31.50586,27.35547 -25.15383,0 -33.40952,-16.88254 -43.86914,-35.05078 l -28.11915,12.53711 c 0,0 18.24405,51.24414 71.4629,51.24414 37.82758,0 61.89062,-27.1799 61.89062,-61.56445 0,-25.05937 -22.70778,-47.45653 -46.82617,-55.5586 -20.24322,-6.80028 -41.48633,-8.66833 -41.48633,-26.03516 0,-12.02933 13.17621,-20.24688 25.79883,-20.33398 6.92769,-0.0478 26.02734,9.66016 26.02734,9.66016 l 13.03907,-22.81641 c 0,0 -17.64161,-16.46484 -42.48243,-16.46484 z m -498.84965,7.18359 -64.5332,178.79688 34.0196,0 15.3144,-42.42969 54.20706,0 16.04882,42.42969 35.28125,0 -67.63085,-178.79688 -22.70708,0 z m 324.2852,0 -64.5332,178.79688 34.01953,0 15.31445,-42.42969 54.20703,0 16.04883,42.42969 35.28125,0 -67.63086,-178.79688 -22.70703,0 z m -206.28906,0.0723 0,178.74023 80.87304,0 c 15.70976,0 46.0625,-12.88126 46.0625,-53.48633 0,-19.10247 -9.0583,-36.74867 -27.40625,-44.35547 13.46117,-13.46118 16.45845,-27.80554 15.44532,-43.26562 -1.45536,-22.20837 -24.34746,-37.63281 -41.66797,-37.63281 l -73.30664,0 z m -318.69724,0.3789 0,28.25781 56.3593,0 0,149.77735 34.0332,0 0,-149.77735 50.1426,0 0,-28.25781 -140.5351,0 z m 1014.15036,20.50196 c 10.16742,0 20.8166,5.94817 27.98828,17.89257 7.16539,11.93392 12.81836,28.06391 12.81836,48.30469 0,20.27055 -4.85105,36.38052 -12.30664,48.31445 -5.64179,9.03064 -16.0117,17.91211 -28.58984,17.91211 -12.59268,0 -21.7543,-5.96598 -29.17774,-17.91211 -7.41479,-11.93219 -11.84179,-28.0439 -11.84179,-48.31445 0,-20.3003 5.84409,-36.38429 12.97656,-48.30469 7.12821,-11.91328 19.11155,-17.89257 28.13281,-17.89257 z m -665.52344,7.65039 28.87891,0 c 13.93907,0 20.79656,10.50196 20.84766,21.47656 0.0525,11.27784 -9.30933,20.76172 -20.67188,20.76172 l -29.05469,0 0,-42.23828 z m -136.65624,34.43164 17.14648,45.33203 -33.50786,0 16.36138,-45.33203 z m 324.28515,0 17.14649,45.33203 -33.50782,0 16.36133,-45.33203 z m -186.11328,37.65039 40.27344,0 c 18.91914,0 25.24042,13.65675 25.03906,27.31445 -0.20136,13.65761 -13.42001,25.04297 -24.86914,25.04297 l -40.44336,0 0,-52.35742 z"
       id="path2434" />
    <path
       id="path4475"
       style="font-style:normal;font-variant:normal;font-weight:normal;font-stretch:normal;font-size:68.89338684px;line-height:125%;font-family:'Neuzeit S LT Std';-inkscape-font-specification:'Neuzeit S LT Std';text-align:center;letter-spacing:0px;word-spacing:0px;text-anchor:middle;fill:#01874f;fill-opacity:1;stroke:none;stroke-width:1px;stroke-linecap:butt;stroke-linejoin:miter;stroke-opacity:1"
       d="m -74.831025,529.41802 4.822537,0 -8.95614,-13.64089 c 4.27139,-0.55115 8.3361,-3.30688 8.3361,-9.16282 0,-5.99372 -3.513563,-8.95614 -10.954049,-8.95614 l -12.469703,0 0,31.75985 3.995817,0 0,-13.572 6.544871,0 8.680567,13.572 z m -15.225438,-17.15445 0,-11.02294 8.336099,0 c 4.340284,0 7.096019,0.9645 7.096019,5.64925 0,4.54697 -3.100202,5.37369 -8.404993,5.37369 l -7.027125,0 z m -20.392447,1.37787 c 0,14.81207 12.056347,26.86842 26.868425,26.86842 14.812078,0 26.868421,-12.05635 26.868421,-26.86842 0,-14.81208 -12.056343,-26.86843 -26.868421,-26.86843 -14.812078,0 -26.868425,12.05635 -26.868425,26.86843 z m 49.741029,0 c 0,13.36531 -9.920647,23.28596 -22.872604,23.28596 -12.951957,0 -22.872605,-9.92065 -22.872605,-23.28596 0,-13.36532 9.920648,-23.28597 22.872605,-23.28597 12.951957,0 22.872604,9.92065 22.872604,23.28597 z" />
    <path
       d="m -820.244,709.11707 17.56375,0 c 4.14426,0 7.17275,-0.75903 9.06273,-2.2619 1.88236,-1.50288 2.83872,-3.85586 2.83872,-7.0969 0,-3.36249 -0.94118,-5.78377 -2.79319,-7.27148 -1.85201,-1.48768 -4.92604,-2.22393 -9.19176,-2.22393 l -17.48025,0 0,18.85421 z m 0,-31.18081 16.93377,0 c 3.65088,0 6.33024,-0.63758 8.03802,-1.89757 1.68503,-1.25239 2.53515,-3.24105 2.53515,-5.94318 0,-2.64141 -0.81975,-4.56934 -2.47441,-5.75342 -1.65467,-1.18408 -4.37956,-1.78372 -8.18985,-1.78372 l -16.84268,0 0,15.37789 z m -14.20129,44.19813 0,-72.11513 33.97379,0 c 7.38529,0 13.00203,1.556 16.87304,4.6832 3.86343,3.112 5.79893,7.63581 5.79893,13.58657 0,3.64332 -0.71347,6.70219 -2.15563,9.15386 -1.43454,2.44406 -3.59016,4.33404 -6.45926,5.66993 3.72679,1.50287 6.49723,3.67369 8.33405,6.49726 1.85961,2.8084 2.77803,6.33787 2.77803,10.55048 0,7.01339 -2.29225,12.43285 -6.85396,16.24316 -4.57691,3.8255 -11.04377,5.73067 -19.43855,5.73067 l -32.85044,0 z m 85.44304,-40.57757 17.4499,0 c 3.77234,0 6.55035,-0.76663 8.33405,-2.30745 1.77612,-1.53324 2.65658,-3.93935 2.65658,-7.2487 0,-3.1272 -0.86529,-5.50294 -2.58827,-7.12727 -1.71538,-1.61671 -4.31124,-2.4137 -7.71923,-2.4137 l -18.13303,0 0,19.09712 z m -14.83887,40.57757 0,-72.11513 34.97571,0 c 7.85587,0 13.68515,1.69263 17.46508,5.04752 3.7951,3.3625 5.67748,8.50869 5.67748,15.42343 0,4.40236 -0.91842,8.07603 -2.77044,11.01348 -1.83683,2.94501 -4.49339,4.94884 -7.95454,6.01907 3.14236,1.11577 5.36629,2.80841 6.70216,5.09307 1.3207,2.29227 2.07212,5.8521 2.26949,10.6795 l 0.3036,8.50869 c 0,0.0686 0,0.16699 0,0.30362 0.0838,4.29608 1.01708,6.91472 2.7932,7.81798 l 0,2.20877 -16.28101,0 c -0.51613,-1.02469 -0.90324,-2.25432 -1.18408,-3.74201 -0.26534,-1.49529 -0.44813,-3.26382 -0.50094,-5.32078 l -0.20463,-7.58267 c -0.167,-4.46308 -1.00192,-7.49161 -2.51996,-9.04001 -1.51805,-1.57119 -4.26571,-2.36058 -8.20503,-2.36058 l -15.72691,0 0,28.04605 -14.83889,0 z m 100.41853,-57.67845 -9.99631,30.70263 20.02298,0 -10.02667,-30.70263 z m -8.62249,-14.43668 17.13111,0 26.00409,72.11513 -15.57512,0 -4.90328,-14.82381 -27.93957,0 -4.7439,14.82381 -15.62824,0 25.65491,-72.11513 z m 48.5622,72.11513 0,-72.11513 15.52957,0 29.27546,49.54925 0,-49.54925 14.64153,0 0,72.11513 -15.32465,0 -29.48039,-49.54928 0,49.54928 -14.64152,0 z m 88.85104,-13.01732 11.90146,0 c 6.88434,0 11.87869,-1.80649 14.95272,-5.41945 3.09682,-3.59019 4.63004,-9.45747 4.63004,-17.5411 0,-8.06087 -1.43455,-13.98886 -4.30366,-17.76881 -2.87669,-3.79515 -7.35492,-5.67752 -13.47263,-5.67752 l -13.70793,0 0,46.40688 z m -14.53525,13.01732 0,-72.11513 28.24318,0 c 11.06653,0 19.3171,2.99056 24.75169,8.96411 5.42701,5.96593 8.15189,15.02112 8.15189,27.17315 0,6.58076 -1.0019,12.3949 -3.00572,17.42724 -2.00381,5.03235 -4.93364,9.07036 -8.74393,12.12925 -2.86909,2.29226 -6.13289,3.93177 -9.79137,4.93367 -3.65849,0.98674 -8.7743,1.48771 -15.37018,1.48771 l -24.23556,0"
       style="fill:#f03c36;fill-opacity:1;fill-rule:evenodd;stroke:none;stroke-width:0.07827238;stroke-miterlimit:4;stroke-dasharray:none"
       id="path2420" />
    <path
       d="m -834.2813,85.142978 -10.60083,-33.433182 10.174,-3.226346 14.71125,23.342649 -1.49655,-27.527865 10.21213,-3.241278 10.59322,33.433115 -6.44734,2.04434 -8.54144,-26.962907 1.75115,29.118826 -7.0341,2.222578 -15.42321,-24.777244 8.54906,26.962961 -6.44734,2.044353 z m 45.80708,-43.61697 -0.94971,15.671532 9.42323,-2.448616 -8.47352,-13.222916 z m -5.82835,-5.744762 8.05963,-2.093505 21.07497,30.756449 -7.33594,1.908646 -4.1206,-6.378706 -13.14839,3.425346 -0.41961,7.554827 -7.35122,1.916159 3.24116,-37.089216 z m 38.78149,20.520922 5.70958,-0.96238 c 3.30398,-0.561268 5.54857,-1.83033 6.7338,-3.80627 1.19283,-1.975886 1.45741,-4.916523 0.80111,-8.791451 -0.65636,-3.86732 -1.82276,-6.597808 -3.50691,-8.1763 -1.69172,-1.586157 -3.99168,-2.127434 -6.9226,-1.631578 l -6.56987,1.115818 3.75489,22.252161 z m -5.91592,7.416247 -5.84036,-34.577295 13.54317,-2.289557 c 5.30611,-0.896864 9.50528,-0.128969 12.59764,2.288501 3.08469,2.425 5.13064,6.545682 6.10734,12.377022 0.53986,3.151753 0.52639,6.025772 -0.0319,8.599312 -0.55084,2.573608 -1.6235,4.755662 -3.20266,6.531065 -1.19577,1.329561 -2.62518,2.376115 -4.29598,3.154788 -1.67834,0.771034 -4.09336,1.422668 -7.25266,1.954888 l -11.62471,1.961275 z m 35.03392,-5.897895 -4.02125,-34.837861 25.31032,-2.919207 0.69381,6.049789 -18.22559,2.103638 0.85105,7.43476 16.67317,-1.924772 0.68685,5.958499 -16.67316,1.924785 1.03774,8.956811 19.09304,-2.196216 0.73665,6.430281 -26.16263,3.019493 z m 45.51426,-4.172158 -0.3547,-35.069872 7.21627,-0.07678 0.3547,35.069872 -7.21627,0.07739 z m 14.73737,-0.251107 0.86942,-35.06102 7.54893,0.18415 13.63879,24.445008 0.59209,-24.091193 7.12321,0.173203 -0.86939,35.061022 -7.45011,-0.183437 -13.73762,-24.445722 -0.6,24.091136 -7.11561,-0.173149 z m 54.29733,-32.705387 7.2165,0.9418 -2.83423,21.824334 c -0.354,2.689078 -0.0828,4.721161 0.83793,6.096458 0.91007,1.375206 2.53114,2.215711 4.8556,2.521447 2.36248,0.306012 4.15971,-0.08428 5.39939,-1.17752 1.23961,-1.085929 2.03647,-2.981049 2.39059,-5.685333 l 2.84185,-21.82428 7.15573,0.93375 -2.94629,22.599083 c -0.55576,4.261542 -2.17476,7.382476 -4.85024,9.355239 -2.68304,1.96511 -6.26932,2.661512 -10.7588,2.081597 -4.51222,-0.587986 -7.82349,-2.170337 -9.92613,-4.763131 -2.11028,-2.585238 -2.8838,-6.019998 -2.32819,-10.304361 l 2.94629,-22.599083 z m 28.52279,39.668368 1.29797,-7.054261 7.04667,1.297934 -1.29798,7.054261 -7.04666,-1.297934 z m 14.56983,-8.623458 6.9224,1.654397 c -0.18117,1.922378 0.25579,3.491852 1.30424,4.700787 1.0482,1.201323 2.76777,2.088167 5.15874,2.660506 2.04181,0.486185 3.66132,0.490594 4.87376,0.0109 1.2048,-0.477918 1.97959,-1.422745 2.31685,-2.849765 0.49432,-2.072177 -2.07367,-4.493454 -7.68783,-7.263701 -0.0757,-0.037 -0.15156,-0.06986 -0.19697,-0.100577 -0.15157,-0.06986 -0.37882,-0.185232 -0.68185,-0.339486 -3.01568,-1.451266 -5.10475,-2.766564 -6.25183,-3.961004 -1.01884,-1.056658 -1.69405,-2.316107 -2.01048,-3.770662 -0.32403,-1.45461 -0.27467,-3.066193 0.14878,-4.849954 0.79194,-3.317004 2.53438,-5.593053 5.20455,-6.828324 2.67769,-1.227605 6.14564,-1.331797 10.40383,-0.312241 3.98496,0.948838 6.87735,2.627307 8.66947,5.05057 1.79972,2.423333 2.35639,5.354699 1.66225,8.816876 l -6.74789,-1.607509 c 0.27072,-1.686028 -0.0616,-3.095072 -0.9959,-4.22715 -0.9422,-1.139734 -2.4646,-1.956705 -4.57468,-2.466192 -1.84453,-0.431225 -3.3425,-0.419546 -4.50936,0.06656 -1.16678,0.478194 -1.91089,1.385226 -2.23223,2.713511 -0.43156,1.806509 1.19044,3.61267 4.8497,5.441147 0.9925,0.493808 1.77286,0.879619 2.31825,1.164894 2.33306,1.218224 3.98394,2.142587 4.9377,2.734951 0.96124,0.607319 1.77038,1.221754 2.4426,1.842499 1.20098,1.103577 2.00539,2.371583 2.39042,3.803814 0.40016,1.439965 0.38121,3.051768 -0.0409,4.827928 -0.84687,3.552312 -2.69714,6.017672 -5.55847,7.403622 -2.86127,1.378354 -6.46664,1.557583 -10.8235,0.514816 -4.28855,-1.027064 -7.42341,-2.821345 -9.38169,-5.397887 -1.96588,-2.576595 -2.6047,-5.713855 -1.90871,-9.43453 z m 30.21587,18.983912 1.90522,-6.913004 6.913,1.905242 -1.90522,6.913005 -6.913,-1.905243 z m 34.83768,-18.718806 -9.32957,12.630373 9.2388,3.077788 0.0893,-15.708171 z m -1.75947,-7.988781 7.90379,2.634729 0.91664,37.271343 -7.1832,-2.393813 0.0184,-7.595757 -12.89491,-4.290369 -4.46943,6.111305 -7.20594,-2.401589 22.91614,-29.335838 z m 12.97203,41.996635 2.62582,-6.672077 6.66455,2.61817 -2.61822,6.672132 -6.67215,-2.618225"
       style="fill:#f03c36;fill-opacity:1;fill-rule:evenodd;stroke:none"
       id="path2426" />
    <path
       d="m -821.51229,314.60892 4.66419,13.90968 7.2809,-5.4321 -11.94509,-8.47758 z m -7.04016,-2.93338 6.22552,-4.65103 28.94648,19.25638 -5.66305,4.23089 -5.78693,-4.08235 -10.14737,7.58474 2.2811,6.70655 -5.67837,4.23813 -10.17738,-33.28331 z m 44.65861,9.05792 -26.34342,-22.44927 6.41049,-3.81791 18.42538,17.55638 -6.3647,-24.73113 6.326,-3.76669 7.08155,33.90991 -5.5353,3.29871 z m 18.35547,-10.57721 -12.58703,-30.26838 21.89608,-9.17845 2.18618,5.2597 -15.77214,6.60833 2.6806,6.45745 14.42662,-6.04698 2.15031,5.17522 -14.42662,6.04697 3.23989,7.79357 16.51386,-6.92539 2.32232,5.58983 -22.63007,9.48813 z m 30.10817,-31.14849 7.67472,-1.87214 c 1.6675,-0.40962 2.81032,-1.0439 3.4288,-1.9189 0.61803,-0.86743 0.75139,-2.02758 0.39939,-3.48807 -0.33893,-1.38418 -0.97507,-2.33436 -1.9088,-2.87336 -0.92649,-0.52363 -2.15101,-0.60599 -3.65854,-0.23823 l -7.97175,1.94878 2.03618,8.44192 z m -2.18953,19.52675 -7.71206,-31.87188 15.3952,-3.7584 c 3.45656,-0.83859 6.20187,-0.72071 8.22838,0.35375 2.02634,1.08176 3.40883,3.15198 4.14745,6.21067 0.46944,1.94227 0.45944,3.66799 -0.045,5.16914 -0.49696,1.49374 -1.4476,2.66505 -2.85265,3.50635 1.50269,0.16494 2.65672,0.67079 3.49184,1.54203 0.82754,0.87106 1.53482,2.35514 2.14391,4.47557 l 1.04101,3.7273 c 0.005,0.0304 0.01,0.0689 0.0334,0.13034 0.49369,1.88963 1.18787,2.9476 2.06113,3.15826 l 0.23471,0.97114 -7.16458,1.74729 c -0.33918,-0.38815 -0.63769,-0.897 -0.9184,-1.51946 -0.28086,-0.63008 -0.55003,-1.39674 -0.79422,-2.29968 l -0.89886,-3.32857 c -0.55202,-1.95943 -1.24238,-3.20742 -2.07811,-3.72891 -0.83551,-0.5294 -2.12127,-0.58219 -3.86477,-0.15915 l -6.91348,1.69239 2.99617,12.39538 -6.53251,1.5873 z m 46.87176,-8.88682 -6.68506,0.66372 -1.19983,-12.16302 -13.8272,-19.30328 8.18763,-0.81841 8.34045,13.38802 5.02968,-14.71546 7.63352,-0.75543 -8.67902,21.54085 1.19983,12.16301 z m 27.02435,-1.20355 1.33274,-32.77655 6.71619,0.27187 -1.33272,32.77654 -6.71619,-0.27251 z m 14.20595,-9.56486 6.56367,0.96811 c -0.0116,1.80928 0.52223,3.23606 1.59605,4.27259 1.07351,1.03652 2.73816,1.72199 5.00904,2.05678 1.93146,0.28091 3.43349,0.14959 4.51365,-0.3955 1.08771,-0.54433 1.72311,-1.49528 1.91361,-2.84417 0.29549,-1.96988 -2.28339,-4.01506 -7.73004,-6.13537 -0.0751,-0.0261 -0.14308,-0.046 -0.18725,-0.0731 -0.14307,-0.046 -0.36017,-0.13744 -0.66015,-0.25885 -2.91917,-1.10278 -4.96118,-2.1621 -6.12619,-3.17037 -1.03871,-0.90642 -1.76205,-2.02594 -2.17775,-3.35108 -0.41526,-1.33274 -0.50136,-2.8326 -0.25763,-4.52999 0.46017,-3.15972 1.89051,-5.4222 4.26925,-6.78797 2.37872,-1.36579 5.59009,-1.75396 9.61877,-1.15729 3.77989,0.55313 6.59538,1.88126 8.46156,3.98569 1.86602,2.11202 2.62091,4.79853 2.26414,8.08233 l -6.38264,-0.94103 c 0.10504,-1.59421 -0.3193,-2.87394 -1.28027,-3.8546 -0.96881,-0.98081 -2.44519,-1.62383 -4.44457,-1.91423 -1.74268,-0.26123 -3.13901,-0.11653 -4.18129,0.42647 -1.04231,0.54538 -1.65378,1.44367 -1.84231,2.70896 -0.25212,1.72 1.39984,3.27195 4.94047,4.67069 0.96769,0.38044 1.71794,0.67152 2.25017,0.89695 2.26427,0.94289 3.87505,1.66513 4.80264,2.14317 0.9427,0.47839 1.74851,0.98397 2.42514,1.50933 1.19726,0.92537 2.04939,2.0403 2.526,3.35169 0.48435,1.30395 0.60072,2.80453 0.35637,4.50188 -0.49478,3.3718 -2.00584,5.82248 -4.54735,7.3517 -2.54135,1.52163 -5.86799,1.9831 -9.99487,1.3765 -4.06651,-0.59758 -7.12215,-2.01532 -9.14424,-4.25266 -2.03718,-2.23771 -2.886,-5.1165 -2.55398,-8.63659 z m 30.67867,15.42713 8.09292,-31.78101 6.50935,1.67396 -6.59311,25.90859 15.44193,3.96759 -1.49204,5.86497 -21.95905,-5.6341 z m 46.84285,-12.1873 -9.46692,11.1895 8.38282,3.46679 1.0841,-14.65629 z m -1.1256,-7.56131 7.17584,2.95938 -1.51746,34.84027 -6.53101,-2.69329 0.50632,-7.08188 -11.70453,-4.83758 -4.54013,5.42062 -6.54595,-2.70124 23.15724,-25.90627 z m 8.88873,40.16429 16.49843,-28.31365 6.07139,3.57204 0.10792,26.18047 11.33297,-19.45589 5.72039,3.36609 -16.49827,28.30606 -5.98938,-3.51689 -0.18233,-26.23545 -11.34057,19.45573 -5.72055,-3.35851 z m 37.77856,18.07299 4.16696,3.42835 c 2.414,1.98806 4.68147,2.79418 6.795,2.41057 2.11337,-0.37601 4.33887,-1.9887 6.65383,-4.83862 2.31463,-2.83471 3.5162,-5.33829 3.59687,-7.49573 0.0806,-2.1574 -0.94096,-4.12027 -3.0877,-5.88156 l -4.79822,-3.95264 -13.32674,16.32963 z m -8.83614,0.38497 20.70705,-25.37094 9.8936,8.14795 c 3.87722,3.19342 5.90925,6.62472 6.09633,10.28627 0.19413,3.66934 -1.45772,7.63734 -4.94152,11.91194 -1.89379,2.32001 -3.91063,4.07449 -6.05811,5.26323 -2.14768,1.19637 -4.33392,1.77593 -6.544,1.7543 -1.66471,-0.0332 -3.28407,-0.38876 -4.8498,-1.09502 -1.56573,-0.70596 -3.49613,-2.00596 -5.81371,-3.90811 l -8.48984,-6.98962"
       style="fill:#f03c36;fill-opacity:1;fill-rule:evenodd;stroke:none"
       id="path2428" />
    <path
       d="m -700.39593,352.03969 0,-36.52449 6.53247,0 0,29.77328 15.50141,0 0,6.75121 -22.03388,0 z m 44.70139,-29.21506 -4.40527,15.55421 8.81808,0 -4.41281,-15.55421 z m -3.8018,-7.30943 7.5508,0 11.45068,36.52449 -6.85683,0 -2.16493,-7.50554 -12.30306,0 -2.08948,7.50554 -6.87945,0 11.29227,-36.52449 z m 34.17853,36.52449 -6.49174,0 0,-7.46692 6.49174,0 0,7.46692 z"
       style="fill:#f03c36;fill-opacity:1;fill-rule:evenodd;stroke:none"
       id="path2430" />
    <path
       d="m -667.14488,383.27205 c 4.82857,0 8.76325,3.83768 8.76325,8.54723 0,4.70954 -3.93468,8.54723 -8.76325,8.54723 -4.82859,0 -8.76326,-3.83769 -8.76326,-8.54723 0,-4.70955 3.93467,-8.54723 8.76326,-8.54723 z m 163.49154,7.7648 c -36.51228,3.36821 -73.07039,5.74535 -111.08776,5.8273 -10.91779,0.35769 -14.86008,-2.66773 -14.86008,-5.91673 0,-3.24153 3.21648,-6.31168 14.86008,-5.90929 37.03179,0.0239 74.06359,2.243 111.08776,5.99872 z M -830.86563,390.858 c 36.50464,-3.36823 73.07038,-5.74535 111.08775,-5.82732 10.9178,-0.35053 14.86009,2.67521 14.86009,5.91674 0,0 0,0 0,0 0,3.24154 -3.21649,6.31169 -14.86009,5.91673 -37.0318,-0.0298 -74.06359,-2.25043 -111.08775,-6.00615"
       style="fill:#f03c36;fill-opacity:1;fill-rule:evenodd;stroke:none;stroke-width:1"
       id="path2436" />
    <path
       style="color:#000000;font-style:normal;font-variant:normal;font-weight:normal;font-stretch:normal;font-size:medium;line-height:normal;font-family:sans-serif;text-indent:0;text-align:start;text-decoration:none;text-decoration-line:none;text-decoration-style:solid;text-decoration-color:#000000;letter-spacing:normal;word-spacing:normal;text-transform:none;direction:ltr;block-progression:tb;writing-mode:lr-tb;baseline-shift:baseline;text-anchor:start;white-space:normal;clip-rule:nonzero;display:inline;overflow:visible;visibility:visible;opacity:1;isolation:auto;mix-blend-mode:normal;color-interpolation:sRGB;color-interpolation-filters:linearRGB;solid-color:#000000;solid-opacity:1;fill:#f03c36;fill-opacity:1;fill-rule:nonzero;stroke:none;stroke-width:12;stroke-linecap:butt;stroke-linejoin:miter;stroke-miterlimit:4;stroke-dasharray:none;stroke-dashoffset:0;stroke-opacity:1;color-rendering:auto;image-rendering:auto;shape-rendering:auto;text-rendering:auto;enable-background:accumulate"
       d="M -665.71341,-152.00863 -1329.6632,511.94114 -665.71476,1175.8895 -1.7650022,511.93979 Z m 0,16.97057 L -18.735565,511.93979 -665.71476,1158.919 -1312.6926,511.94114 Z"
       id="rect4522" />
    <path
       style="color:#000000;font-style:normal;font-variant:normal;font-weight:normal;font-stretch:normal;font-size:medium;line-height:normal;font-family:sans-serif;text-indent:0;text-align:start;text-decoration:none;text-decoration-line:none;text-decoration-style:solid;text-decoration-color:#000000;letter-spacing:normal;word-spacing:normal;text-transform:none;direction:ltr;block-progression:tb;writing-mode:lr-tb;baseline-shift:baseline;text-anchor:start;white-space:normal;clip-rule:nonzero;display:inline;overflow:visible;visibility:visible;opacity:1;isolation:auto;mix-blend-mode:normal;color-interpolation:sRGB;color-interpolation-filters:linearRGB;solid-color:#000000;solid-opacity:1;fill:#01874f;fill-opacity:1;fill-rule:evenodd;stroke:none;stroke-width:18;stroke-linecap:butt;stroke-linejoin:miter;stroke-miterlimit:4;stroke-dasharray:none;stroke-dashoffset:0;stroke-opacity:1;color-rendering:auto;image-rendering:auto;shape-rendering:auto;text-rendering:auto;enable-background:accumulate"
       d="m -662.34179,101.79883 -57.9023,2.50976 7.6269,94.14258 52.9785,-2.98047 -0.6718,-15.0625 -36.3457,0.97071 -1.5645,-30.53516 29.2676,-1.32227 0.1211,-16.62109 -30.2481,1.16016 -0.7793,-15.22852 37.5918,-1 z m 28.6699,1.3789 -12.125,93.25 18.5938,1.61719 7.4492,-57.24609 21.6172,63.47851 12.7597,2.59961 23.3458,-91.4082 -18.4376,-3.46289 -12.1718,52.92187 -21.6231,-59.93945 z m -120.3945,9.78516 -18.4453,4.13477 8.1094,25.27539 -28.3926,9.24804 -9.7031,-26.63671 -17.8907,7.26562 33.375,87.83008 16.8301,-6.38281 -16.1523,-44.3418 27.6953,-9.02149 14.6914,45.78907 16.2344,-3.86914 z m 220.7559,10.75 -33.7168,87.9082 17.3066,5.69532 20.8555,-54.89844 6.1601,67.81445 10.8262,5.26758 44.9883,-82.94336 -16.2852,-8.33203 -25.1504,48.92578 -6.3867,-62.58984 z m 73.5527,32.62695 -3.9238,65.52149 -23.2266,30.21094 14.2461,11.0039 25.0976,-32.49023 56.2481,-22.66602 -15.3574,-13.82031 -37.1133,14.16016 2.3086,-38.8125 z m -407.4883,0.26368 -16.9883,10.85546 51.1035,76.77735 38.6055,-21.82422 -7.9766,-13.20313 -22.6093,12.81641 z m -39.2305,28.11132 -16.3574,12.07618 59.043,74.42187 14.2363,-11.01367 z m -49.4394,46.83594 c -0.7838,0.001 -1.5703,0.0419 -2.3574,0.12305 -6.2967,0.64819 -11.9651,3.20997 -15.8633,8.19726 -2.5591,3.27407 -4.2379,7.72589 -4.8887,11.69336 -0.6488,3.95558 -0.528,8.99472 0.5176,12.72266 2.0914,7.45611 6.4704,12.41575 12.3476,16.60937 5.646,4.02859 13.3291,6.68667 20.7989,6.38868 3.736,-0.14905 7.4859,-1.0456 10.9453,-2.80078 3.4702,-1.7607 6.5514,-4.34144 8.8437,-7.65626 2.828,-4.08938 4.2355,-8.98209 4.0118,-13.94921 l 0,-0.002 c -0.2239,-4.96689 -2.4192,-10.33169 -5.6036,-14.15039 l -10.1621,9.83008 c 0,0 2.3334,2.72177 2.7774,4.90625 0.9054,4.45505 -1.3967,9.43909 -8.0703,11.02344 -5.9243,1.40648 -12.0018,-2.12032 -15.6817,-4.7461 -3.8282,-2.73155 -10.8402,-10.62996 -6.5332,-19.32812 3.5012,-7.0708 12.699,-4.71188 15.5742,-3.43164 l 5.1075,-12.25195 c -2.8867,-1.68705 -6.1016,-2.73072 -9.4239,-3.0625 -0.7749,-0.0774 -1.556,-0.11631 -2.3398,-0.11524 z m 588.7363,8.15625 c -5.7406,-0.0593 -12.4497,1.98955 -16.4141,3.76367 -9.1761,4.10653 -15.2628,8.88196 -20.873,13.24024 -8.8413,6.86834 -16.9373,13.6569 -23.6641,24.92578 -1.3351,2.23659 -4.3699,7.89496 -5.1738,12.25586 -0.8642,4.68757 -1.2657,9.86279 0.4981,14.29101 2.6842,6.7389 7.8459,13.21115 14.4023,16.31446 6.727,3.18403 15.0087,2.77345 22.3125,0.8164 1.8068,-0.48414 8.0392,-4.04223 9.4727,-5.17187 l 8.2148,-5.99805 -9.5742,-10.87891 c 0,0 -7.377,5.06641 -10.1895,6.50391 -1.2011,0.61388 -4.6893,1.38376 -7.6972,1.1543 -2.5404,-0.1938 -4.6486,-1.29743 -5.6582,-1.80469 -2.2803,-1.14565 -4.0919,-4.01743 -4.5098,-6.66797 -0.6438,-4.08273 1.3252,-8.36449 3.4492,-11.91015 5.1416,-8.58302 13.0538,-14.09879 21.4805,-20.96485 5.7156,-4.65718 14.368,-10.99985 22.6094,-12.14258 4.1616,-0.57703 8.1609,1.88557 10.5937,7.61524 2.1646,5.09769 -2.0412,9.51984 -4.166,11.65625 l -6.0898,6.12304 11.5683,12.39649 6.1543,-6.12109 c 2.4933,-2.47989 6.522,-7.37662 8.7676,-11.88477 2.2136,-4.44392 3.0649,-9.6407 2.1387,-14.40625 -1.2839,-6.60612 -5.0251,-13.13864 -10.2286,-17.40625 -4.4445,-3.64513 -10.5522,-5.29839 -16.289,-5.6582 -0.373,-0.0234 -0.7521,-0.0371 -1.1348,-0.041 z m -633.23441,36.7168 -7.8945,16.22851 21.81641,42.26563 -46.52931,7.13476 -7.7246,14.80079 82.47071,43.5625 8.3984,-15.92188 -50.84371,-26.91406 46.19731,-4.82031 -24.9004,-44.10547 52.8105,30.23437 9.0664,-15.55078 z m 97.60361,11.55664 c -5.17519,-0.001 -9.37109,4.19395 -9.3711,9.36914 10e-6,5.17519 4.19591,9.37021 9.3711,9.36914 5.17363,-10e-4 9.36709,-4.19551 9.3671,-9.36914 -10e-6,-5.17363 -4.19347,-9.368 -9.3671,-9.36914 z m 568.6816,11.96875 c -11.1031,0.0171 -23.6313,5.12949 -31.291,9.89453 -9.6674,6.01397 -19.2638,14.84045 -24.7246,26.29102 -2.1381,4.4832 -3.6382,9.53712 -3.7617,14.95898 -0.1249,5.47041 1.1829,11.15074 4.457,16.07617 4.192,6.30622 10.6834,10.05284 17.3359,11.69141 6.5493,1.61311 13.0211,1.21321 18.8985,0.0996 10.2938,-1.95042 19.8571,-6.31487 28.2363,-12.09766 7.3832,-5.09544 13.70898,-11.50047 18.0937,-19.09375 3.20271,-5.54633 5.41401,-12.01362 5.4727,-18.41797 0.0583,-6.36599 -0.9413,-13.0696 -5.1035,-18.40429 -3.7278,-4.77799 -9.7037,-9.94119 -25.4141,-10.93165 -0.7257,-0.0457 -1.459,-0.0675 -2.1992,-0.0664 z m 14.5664,21.17578 c 3.1162,3.76715 3.4167,9.82437 2.0605,14.52148 -2.28748,7.92252 -9.46189,13.84075 -15.996,18.8711 -6.01631,4.63172 -13.15768,8.12526 -20.5645,9.79492 -4.70296,1.06015 -9.8468,1.37485 -14.4629,-0.0156 -2.989,-0.90034 -5.92045,-2.68115 -7.8125,-5.16407 -1.61722,-2.12227 -2.38796,-4.94289 -2.4844,-7.60937 -0.11087,-3.06554 0.7432,-6.24123 2.2168,-8.93164 4.24089,-7.74278 10.82566,-14.40105 18.2246,-19.2168 6.59557,-4.29287 14.37138,-7.87015 22.2408,-7.91955 5.83998,-0.0367 12.85517,1.16951 16.5776,5.66953 z m -42.7539,62.49023 c -4.4427,1.9e-4 -8.04388,3.60223 -8.043,8.04493 2.1e-4,4.44193 3.60107,8.04277 8.043,8.04296 4.44193,-1.9e-4 8.04279,-3.60103 8.043,-8.04296 8.8e-4,-4.4427 -3.6003,-8.04474 -8.043,-8.04493 z"
       id="path3477" />
  </g>
</svg>
