<?xml version="1.0" encoding="UTF-8"?>
<svg width="412px" height="166px" viewBox="0 0 412 166" version="1.1" xmlns="http://www.w3.org/2000/svg" xmlns:xlink="http://www.w3.org/1999/xlink">
    <!-- Generator: Sketch 52.3 (67297) - http://www.bohemiancoding.com/sketch -->
    <title>logo_black</title>
    <desc>Created with Sketch.</desc>
    <g id="Page-1" stroke="none" stroke-width="1" fill="none" fill-rule="evenodd">
        <g id="logo_black">
            <path d="M201.79,109.56 C208.28,109.56 212.37,106.19 215.37,102.11 L215.37,108.72 L224.38,108.72 L224.38,53.91 L215.37,53.91 L215.37,75.18 C212.49,71.45 208.4,68.21 201.79,68.21 C192.42,68.21 183.4,75.66 183.4,88.76 L183.4,89 C183.4,102.11 192.54,109.56 201.79,109.56 Z M203.96,101.63 C197.83,101.63 192.54,96.58 192.54,89.01 L192.54,88.77 C192.54,80.96 197.83,76.15 203.96,76.15 C210.09,76.15 215.5,81.08 215.5,88.77 L215.5,89.01 C215.49,96.58 210.09,101.63 203.96,101.63 Z M235.57,62.93 L245.31,62.93 L245.31,54.28 L235.57,54.28 L235.57,62.93 Z M235.93,108.72 L245.06,108.72 L245.06,69.06 L235.93,69.06 L235.93,108.72 Z M274.27,120.86 C281.36,120.86 286.89,119.18 290.5,115.57 C293.87,112.2 295.55,107.28 295.55,100.55 L295.55,69.06 L286.54,69.06 L286.54,74.95 C283.42,71.34 279.21,68.22 272.6,68.22 C263.35,68.22 254.57,75.07 254.57,86.85 L254.57,86.97 C254.57,98.63 263.22,105.6 272.6,105.6 C279.09,105.6 283.3,102.6 286.54,98.27 L286.54,101.39 C286.54,109.32 282.09,113.53 274.04,113.53 C268.63,113.53 264.06,111.97 259.86,109.32 L256.49,116.17 C261.65,119.18 267.66,120.86 274.27,120.86 Z M274.99,97.9 C268.74,97.9 263.69,93.45 263.69,86.96 L263.69,86.72 C263.69,80.23 268.62,75.9 274.99,75.9 C281.24,75.9 286.65,80.35 286.65,86.84 L286.65,86.96 C286.65,93.34 281.24,97.9 274.99,97.9 Z M306.72,62.93 L316.46,62.93 L316.46,54.28 L306.72,54.28 L306.72,62.93 Z M307.08,108.72 L316.21,108.72 L316.21,69.06 L307.08,69.06 L307.08,108.72 Z M340.97,109.44 C344.34,109.44 346.86,108.6 349.14,107.4 L349.14,99.95 C347.34,100.79 345.53,101.27 343.49,101.27 C340.49,101.27 338.68,99.83 338.68,96.34 L338.68,76.87 L349.26,76.87 L349.26,69.06 L338.68,69.06 L338.68,58.12 L329.55,58.12 L329.55,69.06 L324.5,69.06 L324.5,76.87 L329.55,76.87 L329.55,97.78 C329.55,106.44 334.24,109.44 340.97,109.44 Z M391.45,108.72 L391.45,85.16 C391.45,74.58 385.68,68.45 374.02,68.45 C367.53,68.45 363.2,69.77 358.88,71.7 L361.4,79.03 C365.01,77.47 368.25,76.51 372.7,76.51 C378.95,76.51 382.44,79.51 382.44,85.04 L382.44,85.76 C379.44,84.8 376.31,84.2 371.5,84.2 C362.25,84.2 355.39,88.41 355.39,97.18 L355.39,97.3 C355.39,105.23 362,109.56 369.57,109.56 C375.58,109.56 379.67,107.04 382.43,103.79 L382.43,108.72 L391.45,108.72 Z M382.68,94.42 C382.68,99.35 378.11,102.71 372.1,102.71 C367.77,102.71 364.41,100.55 364.41,96.82 L364.41,96.7 C364.41,92.85 367.78,90.57 373.54,90.57 C377.03,90.57 380.27,91.17 382.67,92.13 L382.67,94.42 L382.68,94.42 Z M402.39,108.72 L411.52,108.72 L411.52,53.91 L402.39,53.91 L402.39,108.72 Z" id="XMLID_25_" fill="#3B3D41" fill-rule="nonzero"></path>
            <path d="M0.48,0.79 L164.9,0.79 L164.9,165.21 L0.48,165.21 L0.48,0.79 Z M31.85,109.32 L40.98,109.32 L40.98,71.94 L69.95,109.32 L77.64,109.32 L77.64,56.68 L68.63,56.68 L68.63,93.1 L40.39,56.68 L31.86,56.68 L31.86,109.32 L31.85,109.32 Z M92.9,109.32 L102.15,109.32 L102.15,92.37 L112.61,92.37 C124.15,92.37 133.64,86.24 133.64,74.46 L133.64,74.34 C133.64,63.76 125.83,56.67 113.57,56.67 L92.9,56.67 L92.9,109.32 Z M102.16,84.08 L102.16,65.21 L112.86,65.21 C119.83,65.21 124.16,68.33 124.16,74.58 L124.16,74.7 C124.16,80.23 119.83,84.07 112.86,84.07 L102.16,84.07 L102.16,84.08 Z M9.61,9.93 L155.88,9.93 L155.88,156.2 L9.61,156.2 L9.61,9.93 Z" id="XMLID_19_" fill="#FF5E29"></path>
        </g>
    </g>
</svg>