<svg width="32" height="32" viewBox="0 0 32 32" fill="none" xmlns="http://www.w3.org/2000/svg">
  <defs>
    <linearGradient id="grad1" x1="0%" y1="0%" x2="100%" y2="100%">
      <stop offset="0%" style="stop-color:#A855F7;stop-opacity:1" />
      <stop offset="50%" style="stop-color:#8B5CF6;stop-opacity:1" />
      <stop offset="100%" style="stop-color:#7C3AED;stop-opacity:1" />
    </linearGradient>
  </defs>
  <path d="M25 17 C25 17 27 17 27 15 C27 12 24 11 22 12 C21 8 17 6 13 7 C8 8 5 12 6 16 C3 16 1 18 1 21 C1 24 3 25 6 25 L24 25 C27 25 29 23 29 20 C29 18 27.5 17 25 17 Z" stroke="url(#grad1)" stroke-width="2" fill="none" stroke-linejoin="round"/>
  <path d="M12 15 L12 21 L18 18 Z" fill="url(#grad1)"/>
</svg>
